%TF.GenerationSoftware,KiCad,Pcbnew,8.0.6*%
%TF.CreationDate,2025-01-09T22:44:34+01:00*%
%TF.ProjectId,deley,64656c65-792e-46b6-9963-61645f706362,0.1*%
%TF.SameCoordinates,Original*%
%TF.FileFunction,Profile,NP*%
%FSLAX46Y46*%
G04 Gerber Fmt 4.6, Leading zero omitted, Abs format (unit mm)*
G04 Created by KiCad (PCBNEW 8.0.6) date 2025-01-09 22:44:34*
%MOMM*%
%LPD*%
G01*
G04 APERTURE LIST*
%TA.AperFunction,Profile*%
%ADD10C,0.150000*%
%TD*%
%TA.AperFunction,Profile*%
%ADD11C,0.120000*%
%TD*%
G04 APERTURE END LIST*
D10*
X116500000Y-141500000D02*
X101500000Y-141500000D01*
X178500000Y-96500000D02*
X193500000Y-96500000D01*
X120500000Y-160500000D02*
G75*
G02*
X118500000Y-158500000I0J2000000D01*
G01*
X281000000Y-100500000D02*
X281000000Y-155132033D01*
X263196158Y-198154930D02*
G75*
G02*
X260555603Y-199168528I-1827058J813430D01*
G01*
X101500000Y-141500000D02*
G75*
G02*
X99500000Y-139500000I0J2000000D01*
G01*
X244600279Y-192253996D02*
X187999864Y-192250136D01*
X135500000Y-160500000D02*
X120500000Y-160500000D01*
X260555594Y-199168548D02*
X245413616Y-192426905D01*
X244600279Y-192253996D02*
G75*
G02*
X245413623Y-192426889I-179J-2000404D01*
G01*
X186000000Y-190250136D02*
X186000000Y-181500000D01*
X279000000Y-98500000D02*
G75*
G02*
X281000000Y-100500000I0J-2000000D01*
G01*
X176500000Y-100500000D02*
X176500000Y-98500000D01*
X214500000Y-93500000D02*
X214500000Y-94500000D01*
X273994253Y-173894581D02*
G75*
G02*
X273952312Y-173996215I-1865053J710181D01*
G01*
X216500000Y-96500000D02*
X233500000Y-96500000D01*
X195500000Y-94500000D02*
X195500000Y-93500000D01*
X273952311Y-173996215D02*
X263196158Y-198154930D01*
X116500000Y-141500000D02*
G75*
G02*
X118500000Y-143500000I0J-2000000D01*
G01*
X212500000Y-91500000D02*
G75*
G02*
X214500000Y-93500000I0J-2000000D01*
G01*
X280869033Y-155843872D02*
X273994253Y-173894581D01*
X195500000Y-94500000D02*
G75*
G02*
X193500000Y-96500000I-2000000J0D01*
G01*
X195500000Y-93500000D02*
G75*
G02*
X197500000Y-91500000I2000000J0D01*
G01*
X176500000Y-100500000D02*
G75*
G02*
X174500000Y-102500000I-2000000J0D01*
G01*
X157500000Y-102500000D02*
X174500000Y-102500000D01*
X184000000Y-179500000D02*
G75*
G02*
X186000000Y-181500000I0J-2000000D01*
G01*
X184000000Y-179500000D02*
X139500000Y-179500000D01*
X281000000Y-155132033D02*
G75*
G02*
X280869041Y-155843875I-2000300J33D01*
G01*
X139500000Y-179500000D02*
G75*
G02*
X137500000Y-177500000I0J2000000D01*
G01*
X233500000Y-96500000D02*
X233500000Y-98500000D01*
X101500000Y-103500000D02*
X157500000Y-103500000D01*
X233500000Y-98500000D02*
X279000000Y-98500000D01*
X157500000Y-103500000D02*
X157500000Y-102500000D01*
X135500000Y-160500000D02*
G75*
G02*
X137500000Y-162500000I0J-2000000D01*
G01*
X118500000Y-158500000D02*
X118500000Y-143500000D01*
X216500000Y-96500000D02*
G75*
G02*
X214500000Y-94500000I0J2000000D01*
G01*
X197500000Y-91500000D02*
X212500000Y-91500000D01*
X137500000Y-177500000D02*
X137500000Y-162500000D01*
X176500000Y-98500000D02*
G75*
G02*
X178500000Y-96500000I2000000J0D01*
G01*
X99500000Y-139500000D02*
X99500000Y-105500000D01*
X187999864Y-192250136D02*
G75*
G02*
X186000064Y-190250136I136J1999936D01*
G01*
X99500000Y-105500000D02*
G75*
G02*
X101500000Y-103500000I2000000J0D01*
G01*
D11*
%TO.C,LED34*%
X265987462Y-184018059D02*
X264523211Y-187306823D01*
X261691220Y-186045939D01*
X263155471Y-182757175D01*
X265987462Y-184018059D01*
%TO.C,LED6*%
X146200000Y-173200000D02*
X149800000Y-173200000D01*
X149800000Y-176300000D01*
X146200000Y-176300000D01*
X146200000Y-173200000D01*
%TO.C,LED11*%
X184200000Y-147200000D02*
X187800000Y-147200000D01*
X187800000Y-150300000D01*
X184200000Y-150300000D01*
X184200000Y-147200000D01*
%TO.C,LED3*%
X127200000Y-154200000D02*
X130800000Y-154200000D01*
X130800000Y-157300000D01*
X127200000Y-157300000D01*
X127200000Y-154200000D01*
%TO.C,LED26*%
X206800000Y-145300000D02*
X203200000Y-145300000D01*
X203200000Y-142200000D01*
X206800000Y-142200000D01*
X206800000Y-145300000D01*
%TO.C,LED14*%
X222200000Y-166200000D02*
X225800000Y-166200000D01*
X225800000Y-169300000D01*
X222200000Y-169300000D01*
X222200000Y-166200000D01*
%TO.C,LED21*%
X168800000Y-175300000D02*
X165200000Y-175300000D01*
X165200000Y-172200000D01*
X168800000Y-172200000D01*
X168800000Y-175300000D01*
%TO.C,LED12*%
X184200000Y-128200000D02*
X187800000Y-128200000D01*
X187800000Y-131300000D01*
X184200000Y-131300000D01*
X184200000Y-128200000D01*
%TO.C,LED25*%
X206800000Y-164300000D02*
X203200000Y-164300000D01*
X203200000Y-161200000D01*
X206800000Y-161200000D01*
X206800000Y-164300000D01*
%TO.C,LED8*%
X146200000Y-135200000D02*
X149800000Y-135200000D01*
X149800000Y-138300000D01*
X146200000Y-138300000D01*
X146200000Y-135200000D01*
%TO.C,LED20*%
X260200000Y-158700000D02*
X263800000Y-158700000D01*
X263800000Y-161800000D01*
X260200000Y-161800000D01*
X260200000Y-158700000D01*
%TO.C,LED30*%
X244800000Y-152300000D02*
X241200000Y-152300000D01*
X241200000Y-149200000D01*
X244800000Y-149200000D01*
X244800000Y-152300000D01*
%TO.C,LED19*%
X231700000Y-187200000D02*
X235300000Y-187200000D01*
X235300000Y-190300000D01*
X231700000Y-190300000D01*
X231700000Y-187200000D01*
%TO.C,LED9*%
X146200000Y-116200000D02*
X149800000Y-116200000D01*
X149800000Y-119300000D01*
X146200000Y-119300000D01*
X146200000Y-116200000D01*
%TO.C,LED23*%
X168800000Y-137300000D02*
X165200000Y-137300000D01*
X165200000Y-134200000D01*
X168800000Y-134200000D01*
X168800000Y-137300000D01*
%TO.C,LED31*%
X244800000Y-133300000D02*
X241200000Y-133300000D01*
X241200000Y-130200000D01*
X244800000Y-130200000D01*
X244800000Y-133300000D01*
%TO.C,LED1*%
X108200000Y-135200000D02*
X111800000Y-135200000D01*
X111800000Y-138300000D01*
X108200000Y-138300000D01*
X108200000Y-135200000D01*
%TO.C,LED24*%
X168800000Y-118300000D02*
X165200000Y-118300000D01*
X165200000Y-115200000D01*
X168800000Y-115200000D01*
X168800000Y-118300000D01*
%TO.C,LED5*%
X127200000Y-116200000D02*
X130800000Y-116200000D01*
X130800000Y-119300000D01*
X127200000Y-119300000D01*
X127200000Y-116200000D01*
%TO.C,LED33*%
X216300000Y-188300000D02*
X212700000Y-188300000D01*
X212700000Y-185200000D01*
X216300000Y-185200000D01*
X216300000Y-188300000D01*
%TO.C,LED22*%
X168800000Y-156300000D02*
X165200000Y-156300000D01*
X165200000Y-153200000D01*
X168800000Y-153200000D01*
X168800000Y-156300000D01*
%TO.C,LED28*%
X206800000Y-107300000D02*
X203200000Y-107300000D01*
X203200000Y-104200000D01*
X206800000Y-104200000D01*
X206800000Y-107300000D01*
%TO.C,LED27*%
X206800000Y-126300000D02*
X203200000Y-126300000D01*
X203200000Y-123200000D01*
X206800000Y-123200000D01*
X206800000Y-126300000D01*
%TO.C,LED18*%
X193700000Y-185200000D02*
X197300000Y-185200000D01*
X197300000Y-188300000D01*
X193700000Y-188300000D01*
X193700000Y-185200000D01*
%TO.C,LED16*%
X222200000Y-128200000D02*
X225800000Y-128200000D01*
X225800000Y-131300000D01*
X222200000Y-131300000D01*
X222200000Y-128200000D01*
%TO.C,LED7*%
X146200000Y-154200000D02*
X149800000Y-154200000D01*
X149800000Y-157300000D01*
X146200000Y-157300000D01*
X146200000Y-154200000D01*
%TO.C,LED15*%
X222200000Y-147200000D02*
X225800000Y-147200000D01*
X225800000Y-150300000D01*
X222200000Y-150300000D01*
X222200000Y-147200000D01*
%TO.C,LED29*%
X244800000Y-171300000D02*
X241200000Y-171300000D01*
X241200000Y-168200000D01*
X244800000Y-168200000D01*
X244800000Y-171300000D01*
%TO.C,LED13*%
X184200000Y-109200000D02*
X187800000Y-109200000D01*
X187800000Y-112300000D01*
X184200000Y-112300000D01*
X184200000Y-109200000D01*
%TO.C,LED17*%
X222200000Y-109200000D02*
X225800000Y-109200000D01*
X225800000Y-112300000D01*
X222200000Y-112300000D01*
X222200000Y-109200000D01*
%TO.C,LED32*%
X244800000Y-114300000D02*
X241200000Y-114300000D01*
X241200000Y-111200000D01*
X244800000Y-111200000D01*
X244800000Y-114300000D01*
%TO.C,LED10*%
X184200000Y-166200000D02*
X187800000Y-166200000D01*
X187800000Y-169300000D01*
X184200000Y-169300000D01*
X184200000Y-166200000D01*
%TO.C,LED4*%
X127200000Y-135200000D02*
X130800000Y-135200000D01*
X130800000Y-138300000D01*
X127200000Y-138300000D01*
X127200000Y-135200000D01*
%TO.C,LED2*%
X108200000Y-116200000D02*
X111800000Y-116200000D01*
X111800000Y-119300000D01*
X108200000Y-119300000D01*
X108200000Y-116200000D01*
%TD*%
M02*
