M48
; DRILL file {KiCad 8.0.6} date 2025-01-09T22:44:29+0100
; FORMAT={-:-/ absolute / inch / decimal}
; #@! TF.CreationDate,2025-01-09T22:44:29+01:00
; #@! TF.GenerationSoftware,Kicad,Pcbnew,8.0.6
; #@! TF.FileFunction,NonPlated,1,2,NPTH
FMAT,2
INCH
; #@! TA.AperFunction,NonPlated,NPTH,ComponentDrill
T1C0.0354
; #@! TA.AperFunction,NonPlated,NPTH,ComponentDrill
T2C0.0748
; #@! TA.AperFunction,NonPlated,NPTH,ComponentDrill
T3C0.0866
; #@! TA.AperFunction,NonPlated,NPTH,ComponentDrill
T4C0.1181
; #@! TA.AperFunction,NonPlated,NPTH,ComponentDrill
T5C0.1614
%
G90
G05
T1
X10.9656Y-4.5866
X10.9656Y-4.7047
T2
X4.1307Y-4.4488
X4.1307Y-5.1969
X4.5307Y-4.4488
X4.5307Y-5.1969
X4.8787Y-4.4488
X4.8787Y-5.1969
X4.8787Y-5.9449
X5.2787Y-4.4488
X5.2787Y-5.1969
X5.2787Y-5.9449
X5.6268Y-4.4488
X5.6268Y-5.1969
X5.6268Y-5.9449
X5.6268Y-6.6929
X6.0268Y-4.4488
X6.0268Y-5.1969
X6.0268Y-5.9449
X6.0268Y-6.6929
X6.3748Y-4.4094
X6.3748Y-5.1575
X6.3748Y-5.9055
X6.3748Y-6.6535
X6.7748Y-4.4094
X6.7748Y-5.1575
X6.7748Y-5.9055
X6.7748Y-6.6535
X7.1228Y-4.1732
X7.1228Y-4.9213
X7.1228Y-5.6693
X7.1228Y-6.4173
X7.4969Y-7.1654
X7.5228Y-4.1732
X7.5228Y-4.9213
X7.5228Y-5.6693
X7.5228Y-6.4173
X7.8709Y-3.9764
X7.8709Y-4.7244
X7.8709Y-5.4724
X7.8709Y-6.2205
X7.8969Y-7.1654
X8.2449Y-7.1654
X8.2709Y-3.9764
X8.2709Y-4.7244
X8.2709Y-5.4724
X8.2709Y-6.2205
X8.6189Y-4.1732
X8.6189Y-4.9213
X8.6189Y-5.6693
X8.6189Y-6.4173
X8.6449Y-7.1654
X8.9929Y-7.2441
X9.0189Y-4.1732
X9.0189Y-4.9213
X9.0189Y-5.6693
X9.0189Y-6.4173
X9.3669Y-4.252
X9.3669Y-5.0
X9.3669Y-5.748
X9.3669Y-6.4961
X9.3929Y-7.2441
X9.7669Y-4.252
X9.7669Y-5.0
X9.7669Y-5.748
X9.7669Y-6.4961
X10.115Y-6.122
X10.1352Y-7.3914
X10.2979Y-7.026
X10.515Y-6.122
T3
X6.1811Y-4.7835
X6.1811Y-6.3583
X8.0709Y-5.1181
X9.2126Y-4.5866
X9.7667Y-7.3962
T4
X4.1807Y-4.3488
X4.1807Y-5.0969
X4.2307Y-4.2488
X4.2307Y-4.9969
X4.4307Y-4.2488
X4.4307Y-4.9969
X4.4807Y-4.3488
X4.4807Y-5.0969
X4.9287Y-4.3488
X4.9287Y-5.0969
X4.9287Y-5.8449
X4.9787Y-4.2488
X4.9787Y-4.9969
X4.9787Y-5.7449
X5.1787Y-4.2488
X5.1787Y-4.9969
X5.1787Y-5.7449
X5.2287Y-4.3488
X5.2287Y-5.0969
X5.2287Y-5.8449
X5.6768Y-4.3488
X5.6768Y-5.0969
X5.6768Y-5.8449
X5.6768Y-6.5929
X5.7268Y-4.2488
X5.7268Y-4.9969
X5.7268Y-5.7449
X5.7268Y-6.4929
X5.9268Y-4.2488
X5.9268Y-4.9969
X5.9268Y-5.7449
X5.9268Y-6.4929
X5.9768Y-4.3488
X5.9768Y-5.0969
X5.9768Y-5.8449
X5.9768Y-6.5929
X6.4248Y-4.3094
X6.4248Y-5.0575
X6.4248Y-5.8055
X6.4248Y-6.5535
X6.4748Y-4.2094
X6.4748Y-4.9575
X6.4748Y-5.7055
X6.4748Y-6.4535
X6.6748Y-4.2094
X6.6748Y-4.9575
X6.6748Y-5.7055
X6.6748Y-6.4535
X6.7248Y-4.3094
X6.7248Y-5.0575
X6.7248Y-5.8055
X6.7248Y-6.5535
X7.1728Y-4.0732
X7.1728Y-4.8213
X7.1728Y-5.5693
X7.1728Y-6.3173
X7.2228Y-3.9732
X7.2228Y-4.7213
X7.2228Y-5.4693
X7.2228Y-6.2173
X7.4228Y-3.9732
X7.4228Y-4.7213
X7.4228Y-5.4693
X7.4228Y-6.2173
X7.4728Y-4.0732
X7.4728Y-4.8213
X7.4728Y-5.5693
X7.4728Y-6.3173
X7.5469Y-7.0654
X7.5969Y-6.9654
X7.7969Y-6.9654
X7.8469Y-7.0654
X7.9209Y-3.8764
X7.9209Y-4.6244
X7.9209Y-5.3724
X7.9209Y-6.1205
X7.9709Y-3.7764
X7.9709Y-4.5244
X7.9709Y-5.2724
X7.9709Y-6.0205
X8.1709Y-3.7764
X8.1709Y-4.5244
X8.1709Y-5.2724
X8.1709Y-6.0205
X8.2209Y-3.8764
X8.2209Y-4.6244
X8.2209Y-5.3724
X8.2209Y-6.1205
X8.2949Y-7.0654
X8.3449Y-6.9654
X8.5449Y-6.9654
X8.5949Y-7.0654
X8.6689Y-4.0732
X8.6689Y-4.8213
X8.6689Y-5.5693
X8.6689Y-6.3173
X8.7189Y-3.9732
X8.7189Y-4.7213
X8.7189Y-5.4693
X8.7189Y-6.2173
X8.9189Y-3.9732
X8.9189Y-4.7213
X8.9189Y-5.4693
X8.9189Y-6.2173
X8.9689Y-4.0732
X8.9689Y-4.8213
X8.9689Y-5.5693
X8.9689Y-6.3173
X9.0429Y-7.1441
X9.0929Y-7.0441
X9.2929Y-7.0441
X9.3429Y-7.1441
X9.4169Y-4.152
X9.4169Y-4.9
X9.4169Y-5.648
X9.4169Y-6.3961
X9.4669Y-4.052
X9.4669Y-4.8
X9.4669Y-5.548
X9.4669Y-6.2961
X9.6669Y-4.052
X9.6669Y-4.8
X9.6669Y-5.548
X9.6669Y-6.2961
X9.7169Y-4.152
X9.7169Y-4.9
X9.7169Y-5.648
X9.7169Y-6.3961
X9.9932Y-7.2187
X10.0642Y-7.305
X10.0745Y-7.036
X10.165Y-6.022
X10.1862Y-7.031
X10.215Y-5.922
X10.415Y-5.922
X10.465Y-6.022
T5
X4.3307Y-4.4488
X4.3307Y-5.1969
X5.0787Y-4.4488
X5.0787Y-5.1969
X5.0787Y-5.9449
X5.8268Y-4.4488
X5.8268Y-5.1969
X5.8268Y-5.9449
X5.8268Y-6.6929
X6.5748Y-4.4094
X6.5748Y-5.1575
X6.5748Y-5.9055
X6.5748Y-6.6535
X7.3228Y-4.1732
X7.3228Y-4.9213
X7.3228Y-5.6693
X7.3228Y-6.4173
X7.6969Y-7.1654
X8.0709Y-3.9764
X8.0709Y-4.7244
X8.0709Y-5.4724
X8.0709Y-6.2205
X8.4449Y-7.1654
X8.8189Y-4.1732
X8.8189Y-4.9213
X8.8189Y-5.6693
X8.8189Y-6.4173
X9.1929Y-7.2441
X9.5669Y-4.252
X9.5669Y-5.0
X9.5669Y-5.748
X9.5669Y-6.4961
X10.2165Y-7.2087
X10.315Y-6.122
M30
