M48
; DRILL file {KiCad 8.0.6} date 2025-01-09T22:44:29+0100
; FORMAT={-:-/ absolute / inch / decimal}
; #@! TF.CreationDate,2025-01-09T22:44:29+01:00
; #@! TF.GenerationSoftware,Kicad,Pcbnew,8.0.6
; #@! TF.FileFunction,Plated,1,2,PTH
FMAT,2
INCH
; #@! TA.AperFunction,Plated,PTH,ViaDrill
T1C0.0118
; #@! TA.AperFunction,Plated,PTH,ComponentDrill
T2C0.0157
; #@! TA.AperFunction,Plated,PTH,ComponentDrill
T3C0.0295
; #@! TA.AperFunction,Plated,PTH,ComponentDrill
T4C0.0394
%
G90
G05
T1
X4.1358Y-4.6083
X4.1358Y-5.3563
X4.1709Y-4.6634
X4.1709Y-5.4114
X4.3307Y-4.1748
X4.3307Y-4.2154
X4.3307Y-4.9229
X4.3307Y-4.9634
X4.4906Y-4.6634
X4.4906Y-5.4114
X4.5256Y-4.6083
X4.5256Y-5.3563
X4.626Y-4.435
X4.626Y-4.6594
X4.626Y-5.1831
X4.626Y-5.4075
X4.7323Y-5.2756
X4.7323Y-5.3937
X4.8346Y-4.5591
X4.8839Y-4.6083
X4.8839Y-5.3563
X4.8839Y-6.1043
X4.9189Y-4.6634
X4.9189Y-5.4114
X4.9189Y-6.1594
X5.0787Y-4.1748
X5.0787Y-4.2154
X5.0787Y-4.9229
X5.0787Y-4.9634
X5.0787Y-5.6709
X5.0787Y-5.7114
X5.185Y-4.7441
X5.2386Y-4.6634
X5.2386Y-5.4114
X5.2386Y-6.1594
X5.2736Y-4.6083
X5.2736Y-5.3563
X5.2736Y-6.1043
X5.374Y-4.435
X5.374Y-4.6594
X5.374Y-5.1831
X5.374Y-5.4075
X5.374Y-5.9311
X5.374Y-6.1555
X5.4803Y-4.6535
X5.4803Y-4.7874
X5.6319Y-4.6083
X5.6319Y-5.3563
X5.6319Y-6.1043
X5.6319Y-6.8524
X5.6669Y-4.6634
X5.6669Y-5.4114
X5.6669Y-6.1594
X5.6669Y-6.9075
X5.8268Y-4.1748
X5.8268Y-4.2154
X5.8268Y-4.9229
X5.8268Y-4.9634
X5.8268Y-5.6709
X5.8268Y-5.7114
X5.8268Y-6.4189
X5.8268Y-6.4594
X5.9866Y-4.6634
X5.9866Y-5.4114
X5.9866Y-6.1594
X5.9866Y-6.9075
X6.0217Y-4.6083
X6.0217Y-5.3563
X6.0217Y-6.1043
X6.0217Y-6.8524
X6.122Y-4.435
X6.122Y-4.6594
X6.122Y-5.1831
X6.122Y-5.4075
X6.122Y-5.9311
X6.122Y-6.1555
X6.122Y-6.6791
X6.122Y-6.9035
X6.2283Y-5.2598
X6.3465Y-6.0551
X6.3543Y-5.2598
X6.3799Y-4.624
X6.3799Y-5.372
X6.3799Y-6.1201
X6.3799Y-6.8681
X6.415Y-4.5689
X6.415Y-5.3169
X6.415Y-6.065
X6.415Y-6.813
X6.5748Y-4.1355
X6.5748Y-4.176
X6.5748Y-4.8835
X6.5748Y-4.924
X6.5748Y-5.6315
X6.5748Y-5.672
X6.5748Y-6.3796
X6.5748Y-6.4201
X6.7346Y-4.5689
X6.7346Y-5.3169
X6.7346Y-6.065
X6.7346Y-6.813
X6.7697Y-4.624
X6.7697Y-5.372
X6.7697Y-6.1201
X6.7697Y-6.8681
X6.8701Y-4.3957
X6.8701Y-4.6201
X6.8701Y-5.1437
X6.8701Y-5.3681
X6.8701Y-5.8917
X6.8701Y-6.1161
X6.8701Y-6.6398
X6.8701Y-6.8642
X6.9685Y-4.3228
X6.9685Y-4.4646
X6.9843Y-5.3465
X7.128Y-4.3327
X7.128Y-5.0807
X7.128Y-5.8287
X7.128Y-6.5768
X7.163Y-4.3878
X7.163Y-5.1358
X7.163Y-5.8839
X7.163Y-6.6319
X7.3228Y-3.8993
X7.3228Y-3.9398
X7.3228Y-4.6473
X7.3228Y-4.6878
X7.3228Y-5.3953
X7.3228Y-5.4358
X7.3228Y-6.1433
X7.3228Y-6.1839
X7.4827Y-4.3878
X7.4827Y-5.1358
X7.4827Y-5.8839
X7.4827Y-6.6319
X7.502Y-7.3248
X7.5177Y-4.3327
X7.5177Y-5.0807
X7.5177Y-5.8287
X7.5177Y-6.5768
X7.537Y-7.3799
X7.6181Y-4.1594
X7.6181Y-4.3839
X7.6181Y-4.9075
X7.6181Y-5.1319
X7.6181Y-5.6555
X7.6181Y-5.8799
X7.6181Y-6.4035
X7.6181Y-6.628
X7.6299Y-5.3465
X7.6969Y-6.8914
X7.6969Y-6.9319
X7.7087Y-5.126
X7.7244Y-5.5748
X7.8567Y-7.3799
X7.8583Y-5.126
X7.8583Y-5.5748
X7.876Y-4.1909
X7.876Y-4.939
X7.876Y-5.687
X7.876Y-6.435
X7.8917Y-7.3248
X7.911Y-4.1358
X7.911Y-4.8839
X7.911Y-5.6319
X7.911Y-6.3799
X7.9921Y-7.1516
X7.9921Y-7.376
X8.0709Y-3.7024
X8.0709Y-3.7429
X8.0709Y-4.4504
X8.0709Y-4.4909
X8.0709Y-5.1985
X8.0709Y-5.239
X8.0709Y-5.9465
X8.0709Y-5.987
X8.2307Y-4.1358
X8.2307Y-4.8839
X8.2307Y-5.6319
X8.2307Y-6.3799
X8.25Y-7.3799
X8.2657Y-4.1909
X8.2657Y-4.939
X8.2657Y-5.687
X8.2657Y-6.435
X8.285Y-7.3248
X8.3661Y-3.9626
X8.3661Y-4.187
X8.3661Y-4.7106
X8.3661Y-4.935
X8.3661Y-5.4587
X8.3661Y-5.6831
X8.3661Y-6.2067
X8.3661Y-6.4311
X8.4173Y-4.0866
X8.4331Y-4.2047
X8.4449Y-6.8914
X8.4449Y-6.9319
X8.6047Y-7.3248
X8.624Y-4.3327
X8.624Y-5.0807
X8.624Y-5.8287
X8.624Y-6.5768
X8.6398Y-7.3799
X8.6591Y-4.3878
X8.6591Y-5.1358
X8.6591Y-5.8839
X8.6591Y-6.6319
X8.7248Y-5.2149
X8.7402Y-7.1516
X8.7402Y-7.376
X8.7559Y-6.7874
X8.8189Y-3.8993
X8.8189Y-3.9398
X8.8189Y-4.6473
X8.8189Y-4.6878
X8.8189Y-5.3953
X8.8189Y-5.4358
X8.8189Y-6.1433
X8.8189Y-6.1839
X8.9134Y-7.4567
X8.9606Y-5.3307
X8.9787Y-4.3878
X8.9787Y-5.1358
X8.9787Y-5.8839
X8.9787Y-6.6319
X8.998Y-7.4035
X9.0138Y-4.3327
X9.0138Y-5.0807
X9.0138Y-5.8287
X9.0138Y-6.5768
X9.0331Y-7.4587
X9.0945Y-5.2126
X9.1142Y-4.1594
X9.1142Y-4.3839
X9.1142Y-4.9075
X9.1142Y-5.1319
X9.1142Y-5.6555
X9.1142Y-5.8799
X9.1142Y-6.4035
X9.1142Y-6.628
X9.1929Y-6.9701
X9.1929Y-7.0106
X9.1969Y-5.2598
X9.2205Y-5.2913
X9.2205Y-6.0945
X9.2598Y-5.2126
X9.3528Y-7.4587
X9.372Y-4.4665
X9.372Y-5.2146
X9.372Y-5.9626
X9.372Y-6.7106
X9.3878Y-7.4035
X9.4016Y-6.0945
X9.4071Y-4.4114
X9.4071Y-5.1594
X9.4071Y-5.9075
X9.4071Y-6.6555
X9.4252Y-5.3622
X9.4803Y-4.7008
X9.4882Y-7.2303
X9.4882Y-7.4547
X9.5669Y-3.978
X9.5669Y-4.0185
X9.5669Y-4.726
X9.5669Y-4.7665
X9.5669Y-5.4741
X9.5669Y-5.5146
X9.5669Y-6.2221
X9.5669Y-6.2626
X9.6063Y-5.3622
X9.6063Y-6.0945
X9.7268Y-4.4114
X9.7268Y-5.1594
X9.7268Y-5.9075
X9.7268Y-6.6555
X9.7618Y-4.4665
X9.7618Y-5.2146
X9.7618Y-5.9626
X9.7618Y-6.7106
X9.8432Y-5.1109
X9.8622Y-4.2382
X9.8622Y-4.4626
X9.8622Y-4.9862
X9.8622Y-5.2106
X9.8622Y-5.7343
X9.8622Y-5.9587
X9.8622Y-6.4823
X9.8622Y-6.7067
X9.8898Y-6.1024
X9.9606Y-5.1772
X9.9662Y-7.0972
X10.0033Y-7.1137
X10.0787Y-4.7559
X10.088Y-4.1797
X10.1201Y-6.2815
X10.1551Y-6.3366
X10.2972Y-7.4195
X10.315Y-5.8481
X10.315Y-5.8886
X10.324Y-6.9333
X10.3333Y-7.474
X10.4272Y-7.1275
X10.4748Y-6.3366
X10.4803Y-3.937
X10.4882Y-5.3228
X10.4918Y-7.1179
X10.5098Y-6.2815
X10.5291Y-7.0246
X10.5354Y-5.3386
X10.5748Y-5.2598
X10.6102Y-6.1083
X10.6102Y-6.3327
X10.6299Y-4.5713
X10.7402Y-5.6614
X10.8858Y-4.3713
X10.9449Y-5.6614
X10.9658Y-4.643
X11.0177Y-4.252
T2
X10.3583Y-4.126
X10.3583Y-4.226
X10.3583Y-4.326
X10.3583Y-4.426
X10.3583Y-4.526
X10.3583Y-4.626
X10.3583Y-4.726
X10.3583Y-4.826
X10.3583Y-4.926
X10.3583Y-5.026
X10.3583Y-5.126
X10.3583Y-5.226
X10.626Y-4.126
X10.626Y-4.226
X10.626Y-4.326
X10.626Y-4.426
X10.626Y-4.526
X10.626Y-4.626
X10.626Y-4.726
X10.626Y-4.826
X10.626Y-4.926
X10.626Y-5.026
X10.626Y-5.126
X10.626Y-5.226
T3
X9.1969Y-5.4331
X9.2756Y-5.4331
T4
X10.1921Y-4.126
X10.1921Y-4.226
X10.1921Y-4.326
X10.1921Y-4.426
X10.1921Y-4.526
X10.1921Y-4.626
X10.1921Y-4.726
X10.1921Y-4.826
X10.1921Y-4.926
X10.1921Y-5.026
X10.1921Y-5.126
X10.1921Y-5.226
X10.2921Y-5.4016
X10.3921Y-5.4016
X10.4921Y-5.4016
X10.5921Y-5.4016
X10.6921Y-5.4016
X10.7921Y-4.126
X10.7921Y-4.226
X10.7921Y-4.326
X10.7921Y-4.426
X10.7921Y-4.526
X10.7921Y-4.626
X10.7921Y-4.726
X10.7921Y-4.826
X10.7921Y-4.926
X10.7921Y-5.026
X10.7921Y-5.126
X10.7921Y-5.226
M30
