%TF.GenerationSoftware,KiCad,Pcbnew,8.0.6*%
%TF.CreationDate,2025-01-09T22:44:34+01:00*%
%TF.ProjectId,deley,64656c65-792e-46b6-9963-61645f706362,0.1*%
%TF.SameCoordinates,Original*%
%TF.FileFunction,Soldermask,Bot*%
%TF.FilePolarity,Negative*%
%FSLAX46Y46*%
G04 Gerber Fmt 4.6, Leading zero omitted, Abs format (unit mm)*
G04 Created by KiCad (PCBNEW 8.0.6) date 2025-01-09 22:44:34*
%MOMM*%
%LPD*%
G01*
G04 APERTURE LIST*
G04 Aperture macros list*
%AMRoundRect*
0 Rectangle with rounded corners*
0 $1 Rounding radius*
0 $2 $3 $4 $5 $6 $7 $8 $9 X,Y pos of 4 corners*
0 Add a 4 corners polygon primitive as box body*
4,1,4,$2,$3,$4,$5,$6,$7,$8,$9,$2,$3,0*
0 Add four circle primitives for the rounded corners*
1,1,$1+$1,$2,$3*
1,1,$1+$1,$4,$5*
1,1,$1+$1,$6,$7*
1,1,$1+$1,$8,$9*
0 Add four rect primitives between the rounded corners*
20,1,$1+$1,$2,$3,$4,$5,0*
20,1,$1+$1,$4,$5,$6,$7,0*
20,1,$1+$1,$6,$7,$8,$9,0*
20,1,$1+$1,$8,$9,$2,$3,0*%
%AMFreePoly0*
4,1,16,0.535355,0.660355,0.550000,0.625000,0.550000,-0.625000,0.535355,-0.660355,0.500000,-0.675000,-0.650000,-0.675000,-0.685355,-0.660355,-0.700000,-0.625000,-0.689043,-0.593765,-0.214031,0.000000,-0.689043,0.593765,-0.699694,0.630522,-0.681235,0.664043,-0.650000,0.675000,0.500000,0.675000,0.535355,0.660355,0.535355,0.660355,$1*%
%AMFreePoly1*
4,1,16,-0.214645,0.660355,-0.210957,0.656235,0.289043,0.031235,0.299694,-0.005522,0.289043,-0.031235,-0.210957,-0.656235,-0.244478,-0.674694,-0.250000,-0.675000,-0.500000,-0.675000,-0.535355,-0.660355,-0.550000,-0.625000,-0.550000,0.625000,-0.535355,0.660355,-0.500000,0.675000,-0.250000,0.675000,-0.214645,0.660355,-0.214645,0.660355,$1*%
%AMFreePoly2*
4,1,14,1.310355,1.285355,1.325000,1.250000,1.325000,-1.250000,1.310355,-1.285355,1.275000,-1.300000,-0.775000,-1.300000,-0.810355,-1.285355,-1.310355,-0.785355,-1.325000,-0.750000,-1.325000,1.250000,-1.310355,1.285355,-1.275000,1.300000,1.275000,1.300000,1.310355,1.285355,1.310355,1.285355,$1*%
%AMFreePoly3*
4,1,14,0.035355,0.435355,0.635355,-0.164645,0.650000,-0.200000,0.650000,-0.400000,0.635355,-0.435355,0.600000,-0.450000,-0.600000,-0.450000,-0.635355,-0.435355,-0.650000,-0.400000,-0.650000,-0.200000,-0.635355,-0.164645,-0.035355,0.435355,0.000000,0.450000,0.035355,0.435355,0.035355,0.435355,$1*%
%AMFreePoly4*
4,1,16,0.635355,0.285355,0.650000,0.250000,0.650000,-1.000000,0.635355,-1.035355,0.600000,-1.050000,0.564645,-1.035355,0.000000,-0.470710,-0.564645,-1.035355,-0.600000,-1.050000,-0.635355,-1.035355,-0.650000,-1.000000,-0.650000,0.250000,-0.635355,0.285355,-0.600000,0.300000,0.600000,0.300000,0.635355,0.285355,0.635355,0.285355,$1*%
G04 Aperture macros list end*
%ADD10RoundRect,0.050000X0.600000X-0.450000X0.600000X0.450000X-0.600000X0.450000X-0.600000X-0.450000X0*%
%ADD11RoundRect,0.050000X0.655137X0.365096X-0.167053X0.731159X-0.655137X-0.365096X0.167053X-0.731159X0*%
%ADD12FreePoly0,180.000000*%
%ADD13C,0.900000*%
%ADD14FreePoly0,0.000000*%
%ADD15FreePoly1,0.000000*%
%ADD16C,1.800000*%
%ADD17FreePoly1,180.000000*%
%ADD18C,2.300000*%
%ADD19RoundRect,0.050000X-0.750000X0.350000X-0.750000X-0.350000X0.750000X-0.350000X0.750000X0.350000X0*%
%ADD20RoundRect,0.050000X-0.400000X0.500000X-0.400000X-0.500000X0.400000X-0.500000X0.400000X0.500000X0*%
%ADD21C,1.000000*%
%ADD22RoundRect,0.050000X0.500000X-0.775000X0.500000X0.775000X-0.500000X0.775000X-0.500000X-0.775000X0*%
%ADD23RoundRect,0.050000X-0.600000X0.300000X-0.600000X-0.300000X0.600000X-0.300000X0.600000X0.300000X0*%
%ADD24O,1.800000X1.800000*%
%ADD25RoundRect,0.050000X-0.172057X0.842850X-0.741488X-0.436113X0.172057X-0.842850X0.741488X0.436113X0*%
%ADD26RoundRect,0.050000X-0.700000X-0.500000X0.700000X-0.500000X0.700000X0.500000X-0.700000X0.500000X0*%
%ADD27FreePoly2,0.000000*%
%ADD28RoundRect,0.050000X-1.275000X-1.250000X1.275000X-1.250000X1.275000X1.250000X-1.275000X1.250000X0*%
%ADD29C,2.000000*%
%ADD30C,3.100000*%
%ADD31C,4.200000*%
%ADD32FreePoly3,0.000000*%
%ADD33O,1.300000X1.850000*%
%ADD34FreePoly4,0.000000*%
%ADD35RoundRect,0.050000X0.700000X0.500000X-0.700000X0.500000X-0.700000X-0.500000X0.700000X-0.500000X0*%
%ADD36FreePoly2,66.000000*%
%ADD37RoundRect,0.050000X0.623343X-1.673191X1.660521X0.656350X-0.623343X1.673191X-1.660521X-0.656350X0*%
G04 APERTURE END LIST*
D10*
%TO.C,D22*%
X231500000Y-163850000D03*
X231500000Y-167150000D03*
%TD*%
D11*
%TO.C,D33*%
X263327039Y-176594136D03*
X266341739Y-177936366D03*
%TD*%
D12*
%TO.C,MCU1*%
X271275000Y-104800000D03*
D13*
X263100000Y-104800000D03*
D12*
X271275000Y-107340000D03*
D13*
X263100000Y-107340000D03*
D12*
X271275000Y-109880000D03*
D13*
X263100000Y-109880000D03*
D12*
X271275000Y-112420000D03*
D13*
X263100000Y-112420000D03*
D12*
X271275000Y-114960000D03*
D13*
X263100000Y-114960000D03*
D12*
X271275000Y-117500000D03*
D13*
X263100000Y-117500000D03*
D12*
X271275000Y-120040000D03*
D13*
X263100000Y-120040000D03*
D12*
X271275000Y-122580000D03*
D13*
X263100000Y-122580000D03*
D12*
X271275000Y-125120000D03*
D13*
X263100000Y-125120000D03*
D12*
X271275000Y-127660000D03*
D13*
X263100000Y-127660000D03*
D12*
X271275000Y-130200000D03*
D13*
X263100000Y-130200000D03*
D12*
X271275000Y-132740000D03*
D13*
X263100000Y-132740000D03*
X269900000Y-132740000D03*
D14*
X261725000Y-132740000D03*
D13*
X269900000Y-130200000D03*
D14*
X261725000Y-130200000D03*
D13*
X269900000Y-127660000D03*
D14*
X261725000Y-127660000D03*
D13*
X269900000Y-125120000D03*
D14*
X261725000Y-125120000D03*
D13*
X269900000Y-122580000D03*
D14*
X261725000Y-122580000D03*
D13*
X269900000Y-120040000D03*
D14*
X261725000Y-120040000D03*
D13*
X269900000Y-117500000D03*
D14*
X261725000Y-117500000D03*
D13*
X269900000Y-114960000D03*
D14*
X261725000Y-114960000D03*
D13*
X269900000Y-112420000D03*
D14*
X261725000Y-112420000D03*
D13*
X269900000Y-109880000D03*
D14*
X261725000Y-109880000D03*
D13*
X269900000Y-107340000D03*
D14*
X261725000Y-107340000D03*
D13*
X269900000Y-104800000D03*
D14*
X261725000Y-104800000D03*
D15*
X261000000Y-104800000D03*
D16*
X258880000Y-104800000D03*
D15*
X261000000Y-107340000D03*
D16*
X258880000Y-107340000D03*
D15*
X261000000Y-109880000D03*
D16*
X258880000Y-109880000D03*
D15*
X261000000Y-112420000D03*
D16*
X258880000Y-112420000D03*
D15*
X261000000Y-114960000D03*
D16*
X258880000Y-114960000D03*
D15*
X261000000Y-117500000D03*
D16*
X258880000Y-117500000D03*
D15*
X261000000Y-120040000D03*
D16*
X258880000Y-120040000D03*
D15*
X261000000Y-122580000D03*
D16*
X258880000Y-122580000D03*
D15*
X261000000Y-125120000D03*
D16*
X258880000Y-125120000D03*
D15*
X261000000Y-127660000D03*
D16*
X258880000Y-127660000D03*
D15*
X261000000Y-130200000D03*
D16*
X258880000Y-130200000D03*
D15*
X261000000Y-132740000D03*
D16*
X258880000Y-132740000D03*
X274120000Y-132740000D03*
D17*
X272000000Y-132740000D03*
D16*
X274120000Y-130200000D03*
D17*
X272000000Y-130200000D03*
D16*
X274120000Y-127660000D03*
D17*
X272000000Y-127660000D03*
D16*
X274120000Y-125120000D03*
D17*
X272000000Y-125120000D03*
D16*
X274120000Y-122580000D03*
D17*
X272000000Y-122580000D03*
D16*
X274120000Y-120040000D03*
D17*
X272000000Y-120040000D03*
D16*
X274120000Y-117500000D03*
D17*
X272000000Y-117500000D03*
D16*
X274120000Y-114960000D03*
D17*
X272000000Y-114960000D03*
D16*
X274120000Y-112420000D03*
D17*
X272000000Y-112420000D03*
D16*
X274120000Y-109880000D03*
D17*
X272000000Y-109880000D03*
D16*
X274120000Y-107340000D03*
D17*
X272000000Y-107340000D03*
D16*
X274120000Y-104800000D03*
D17*
X272000000Y-104800000D03*
%TD*%
D10*
%TO.C,D14*%
X193500000Y-163850000D03*
X193500000Y-167150000D03*
%TD*%
D18*
%TO.C,MH5*%
X205000000Y-130000000D03*
%TD*%
D10*
%TO.C,D17*%
X193500000Y-106850000D03*
X193500000Y-110150000D03*
%TD*%
%TO.C,D7*%
X155500000Y-151850000D03*
X155500000Y-155150000D03*
%TD*%
%TO.C,D2*%
X117500000Y-113850000D03*
X117500000Y-117150000D03*
%TD*%
%TO.C,D16*%
X193500000Y-125850000D03*
X193500000Y-129150000D03*
%TD*%
%TO.C,D21*%
X212500000Y-101850000D03*
X212500000Y-105150000D03*
%TD*%
%TO.C,D9*%
X155500000Y-113850000D03*
X155500000Y-117150000D03*
%TD*%
%TO.C,D15*%
X193500000Y-144850000D03*
X193500000Y-148150000D03*
%TD*%
D18*
%TO.C,MH2*%
X157000000Y-161500000D03*
%TD*%
D10*
%TO.C,D24*%
X231500000Y-125850000D03*
X231500000Y-129150000D03*
%TD*%
%TO.C,D18*%
X212500000Y-158850000D03*
X212500000Y-162150000D03*
%TD*%
%TO.C,D32*%
X241000000Y-184850000D03*
X241000000Y-188150000D03*
%TD*%
D19*
%TO.C,PWR1*%
X276765000Y-120250000D03*
X276765000Y-118750000D03*
X276765000Y-115750000D03*
D20*
X279625000Y-121650000D03*
X279625000Y-114350000D03*
D21*
X278525000Y-119500000D03*
X278525000Y-116500000D03*
D20*
X277415000Y-121650000D03*
X277415000Y-114350000D03*
%TD*%
D10*
%TO.C,D23*%
X231500000Y-144850000D03*
X231500000Y-148150000D03*
%TD*%
%TO.C,D28*%
X250500000Y-127850000D03*
X250500000Y-131150000D03*
%TD*%
%TO.C,D13*%
X174500000Y-112850000D03*
X174500000Y-116150000D03*
%TD*%
%TO.C,D10*%
X174500000Y-169850000D03*
X174500000Y-173150000D03*
%TD*%
D18*
%TO.C,MH4*%
X234000000Y-116500000D03*
%TD*%
D10*
%TO.C,D27*%
X250500000Y-146850000D03*
X250500000Y-150150000D03*
%TD*%
D18*
%TO.C,MH3*%
X157000000Y-121500000D03*
%TD*%
D10*
%TO.C,D20*%
X212500000Y-120850000D03*
X212500000Y-124150000D03*
%TD*%
%TO.C,D4*%
X136500000Y-132850000D03*
X136500000Y-136150000D03*
%TD*%
%TO.C,D31*%
X222000000Y-182850000D03*
X222000000Y-186150000D03*
%TD*%
%TO.C,D19*%
X212500000Y-139850000D03*
X212500000Y-143150000D03*
%TD*%
D22*
%TO.C,RST1*%
X278150000Y-110625000D03*
X279850000Y-110625000D03*
X278150000Y-105375000D03*
X279850000Y-105375000D03*
%TD*%
D10*
%TO.C,D30*%
X203000000Y-182850000D03*
X203000000Y-186150000D03*
%TD*%
D18*
%TO.C,MH1*%
X248074234Y-187864648D03*
%TD*%
D10*
%TO.C,D6*%
X155500000Y-170850000D03*
X155500000Y-174150000D03*
%TD*%
%TO.C,D12*%
X174500000Y-131850000D03*
X174500000Y-135150000D03*
%TD*%
%TO.C,D3*%
X136500000Y-151850000D03*
X136500000Y-155150000D03*
%TD*%
%TO.C,D34*%
X269500000Y-156350000D03*
X269500000Y-159650000D03*
%TD*%
%TO.C,D8*%
X155500000Y-132850000D03*
X155500000Y-136150000D03*
%TD*%
%TO.C,D29*%
X250500000Y-108850000D03*
X250500000Y-112150000D03*
%TD*%
%TO.C,D26*%
X250500000Y-165850000D03*
X250500000Y-169150000D03*
%TD*%
%TO.C,D25*%
X231500000Y-106850000D03*
X231500000Y-110150000D03*
%TD*%
%TO.C,D11*%
X174500000Y-150850000D03*
X174500000Y-154150000D03*
%TD*%
D23*
%TO.C,DISP1*%
X261420000Y-134550000D03*
X263960000Y-134550000D03*
X269040000Y-134550000D03*
X271580000Y-134550000D03*
X261420000Y-135450000D03*
X263960000Y-135450000D03*
X269040000Y-135450000D03*
X271580000Y-135450000D03*
D16*
X271580000Y-137200000D03*
D24*
X269040000Y-137200000D03*
X266500000Y-137200000D03*
X263960000Y-137200000D03*
X261420000Y-137200000D03*
%TD*%
D10*
%TO.C,D5*%
X136500000Y-113850000D03*
X136500000Y-117150000D03*
%TD*%
%TO.C,D1*%
X117500000Y-132850000D03*
X117500000Y-136150000D03*
%TD*%
D25*
%TO.C,LED34*%
X264298048Y-182280711D03*
X265577012Y-182850142D03*
X263380634Y-187783287D03*
X262101670Y-187213856D03*
%TD*%
D26*
%TO.C,LED6*%
X145300000Y-175450000D03*
X145300000Y-174050000D03*
X150700000Y-174050000D03*
X150700000Y-175450000D03*
%TD*%
%TO.C,LED11*%
X183300000Y-149450000D03*
X183300000Y-148050000D03*
X188700000Y-148050000D03*
X188700000Y-149450000D03*
%TD*%
D27*
%TO.C,S30*%
X201342000Y-176920000D03*
D28*
X188415000Y-179460000D03*
D29*
X200580000Y-182000000D03*
D30*
X199310000Y-179460000D03*
X198040000Y-176920000D03*
D31*
X195500000Y-182000000D03*
D30*
X192960000Y-176920000D03*
X191690000Y-179460000D03*
D29*
X190420000Y-182000000D03*
%TD*%
D32*
%TO.C,JST1*%
X233600000Y-136200000D03*
X235600000Y-136200000D03*
D33*
X233600000Y-138000000D03*
X235600000Y-138000000D03*
D34*
X235600000Y-135184000D03*
X233600000Y-135184000D03*
%TD*%
D26*
%TO.C,LED3*%
X126300000Y-156450000D03*
X126300000Y-155050000D03*
X131700000Y-155050000D03*
X131700000Y-156450000D03*
%TD*%
D27*
%TO.C,S16*%
X191842000Y-119920000D03*
D28*
X178915000Y-122460000D03*
D29*
X191080000Y-125000000D03*
D30*
X189810000Y-122460000D03*
X188540000Y-119920000D03*
D31*
X186000000Y-125000000D03*
D30*
X183460000Y-119920000D03*
X182190000Y-122460000D03*
D29*
X180920000Y-125000000D03*
%TD*%
D35*
%TO.C,LED26*%
X207700000Y-143050000D03*
X207700000Y-144450000D03*
X202300000Y-144450000D03*
X202300000Y-143050000D03*
%TD*%
D27*
%TO.C,S14*%
X191842000Y-157920000D03*
D28*
X178915000Y-160460000D03*
D29*
X191080000Y-163000000D03*
D30*
X189810000Y-160460000D03*
X188540000Y-157920000D03*
D31*
X186000000Y-163000000D03*
D30*
X183460000Y-157920000D03*
X182190000Y-160460000D03*
D29*
X180920000Y-163000000D03*
%TD*%
D26*
%TO.C,LED14*%
X221300000Y-168450000D03*
X221300000Y-167050000D03*
X226700000Y-167050000D03*
X226700000Y-168450000D03*
%TD*%
D27*
%TO.C,S25*%
X229842000Y-100920000D03*
D28*
X216915000Y-103460000D03*
D29*
X229080000Y-106000000D03*
D30*
X227810000Y-103460000D03*
X226540000Y-100920000D03*
D31*
X224000000Y-106000000D03*
D30*
X221460000Y-100920000D03*
X220190000Y-103460000D03*
D29*
X218920000Y-106000000D03*
%TD*%
D27*
%TO.C,S28*%
X248842000Y-121920000D03*
D28*
X235915000Y-124460000D03*
D29*
X248080000Y-127000000D03*
D30*
X246810000Y-124460000D03*
X245540000Y-121920000D03*
D31*
X243000000Y-127000000D03*
D30*
X240460000Y-121920000D03*
X239190000Y-124460000D03*
D29*
X237920000Y-127000000D03*
%TD*%
D35*
%TO.C,LED21*%
X169700000Y-173050000D03*
X169700000Y-174450000D03*
X164300000Y-174450000D03*
X164300000Y-173050000D03*
%TD*%
D26*
%TO.C,LED12*%
X183300000Y-130450000D03*
X183300000Y-129050000D03*
X188700000Y-129050000D03*
X188700000Y-130450000D03*
%TD*%
D35*
%TO.C,LED25*%
X207700000Y-162050000D03*
X207700000Y-163450000D03*
X202300000Y-163450000D03*
X202300000Y-162050000D03*
%TD*%
D26*
%TO.C,LED8*%
X145300000Y-137450000D03*
X145300000Y-136050000D03*
X150700000Y-136050000D03*
X150700000Y-137450000D03*
%TD*%
%TO.C,LED20*%
X259300000Y-160950000D03*
X259300000Y-159550000D03*
X264700000Y-159550000D03*
X264700000Y-160950000D03*
%TD*%
D27*
%TO.C,S31*%
X220342000Y-176920000D03*
D28*
X207415000Y-179460000D03*
D29*
X219580000Y-182000000D03*
D30*
X218310000Y-179460000D03*
X217040000Y-176920000D03*
D31*
X214500000Y-182000000D03*
D30*
X211960000Y-176920000D03*
X210690000Y-179460000D03*
D29*
X209420000Y-182000000D03*
%TD*%
D27*
%TO.C,S24*%
X229842000Y-119920000D03*
D28*
X216915000Y-122460000D03*
D29*
X229080000Y-125000000D03*
D30*
X227810000Y-122460000D03*
X226540000Y-119920000D03*
D31*
X224000000Y-125000000D03*
D30*
X221460000Y-119920000D03*
X220190000Y-122460000D03*
D29*
X218920000Y-125000000D03*
%TD*%
D35*
%TO.C,LED30*%
X245700000Y-150050000D03*
X245700000Y-151450000D03*
X240300000Y-151450000D03*
X240300000Y-150050000D03*
%TD*%
D26*
%TO.C,LED19*%
X230800000Y-189450000D03*
X230800000Y-188050000D03*
X236200000Y-188050000D03*
X236200000Y-189450000D03*
%TD*%
%TO.C,LED9*%
X145300000Y-118450000D03*
X145300000Y-117050000D03*
X150700000Y-117050000D03*
X150700000Y-118450000D03*
%TD*%
D27*
%TO.C,S21*%
X210842000Y-95920000D03*
D28*
X197915000Y-98460000D03*
D29*
X210080000Y-101000000D03*
D30*
X208810000Y-98460000D03*
X207540000Y-95920000D03*
D31*
X205000000Y-101000000D03*
D30*
X202460000Y-95920000D03*
X201190000Y-98460000D03*
D29*
X199920000Y-101000000D03*
%TD*%
D27*
%TO.C,S13*%
X172842000Y-106920000D03*
D28*
X159915000Y-109460000D03*
D29*
X172080000Y-112000000D03*
D30*
X170810000Y-109460000D03*
X169540000Y-106920000D03*
D31*
X167000000Y-112000000D03*
D30*
X164460000Y-106920000D03*
X163190000Y-109460000D03*
D29*
X161920000Y-112000000D03*
%TD*%
D35*
%TO.C,LED23*%
X169700000Y-135050000D03*
X169700000Y-136450000D03*
X164300000Y-136450000D03*
X164300000Y-135050000D03*
%TD*%
%TO.C,LED31*%
X245700000Y-131050000D03*
X245700000Y-132450000D03*
X240300000Y-132450000D03*
X240300000Y-131050000D03*
%TD*%
D26*
%TO.C,LED1*%
X107300000Y-137450000D03*
X107300000Y-136050000D03*
X112700000Y-136050000D03*
X112700000Y-137450000D03*
%TD*%
D35*
%TO.C,LED24*%
X169700000Y-116050000D03*
X169700000Y-117450000D03*
X164300000Y-117450000D03*
X164300000Y-116050000D03*
%TD*%
D27*
%TO.C,S27*%
X248842000Y-140920000D03*
D28*
X235915000Y-143460000D03*
D29*
X248080000Y-146000000D03*
D30*
X246810000Y-143460000D03*
X245540000Y-140920000D03*
D31*
X243000000Y-146000000D03*
D30*
X240460000Y-140920000D03*
X239190000Y-143460000D03*
D29*
X237920000Y-146000000D03*
%TD*%
D27*
%TO.C,S32*%
X239342000Y-178920000D03*
D28*
X226415000Y-181460000D03*
D29*
X238580000Y-184000000D03*
D30*
X237310000Y-181460000D03*
X236040000Y-178920000D03*
D31*
X233500000Y-184000000D03*
D30*
X230960000Y-178920000D03*
X229690000Y-181460000D03*
D29*
X228420000Y-184000000D03*
%TD*%
D26*
%TO.C,LED5*%
X126300000Y-118450000D03*
X126300000Y-117050000D03*
X131700000Y-117050000D03*
X131700000Y-118450000D03*
%TD*%
D27*
%TO.C,S11*%
X172842000Y-144920000D03*
D28*
X159915000Y-147460000D03*
D29*
X172080000Y-150000000D03*
D30*
X170810000Y-147460000D03*
X169540000Y-144920000D03*
D31*
X167000000Y-150000000D03*
D30*
X164460000Y-144920000D03*
X163190000Y-147460000D03*
D29*
X161920000Y-150000000D03*
%TD*%
D27*
%TO.C,S3*%
X134842000Y-145920000D03*
D28*
X121915000Y-148460000D03*
D29*
X134080000Y-151000000D03*
D30*
X132810000Y-148460000D03*
X131540000Y-145920000D03*
D31*
X129000000Y-151000000D03*
D30*
X126460000Y-145920000D03*
X125190000Y-148460000D03*
D29*
X123920000Y-151000000D03*
%TD*%
D27*
%TO.C,S10*%
X172842000Y-163920000D03*
D28*
X159915000Y-166460000D03*
D29*
X172080000Y-169000000D03*
D30*
X170810000Y-166460000D03*
X169540000Y-163920000D03*
D31*
X167000000Y-169000000D03*
D30*
X164460000Y-163920000D03*
X163190000Y-166460000D03*
D29*
X161920000Y-169000000D03*
%TD*%
D35*
%TO.C,LED33*%
X217200000Y-186050000D03*
X217200000Y-187450000D03*
X211800000Y-187450000D03*
X211800000Y-186050000D03*
%TD*%
D27*
%TO.C,S7*%
X153842000Y-145920000D03*
D28*
X140915000Y-148460000D03*
D29*
X153080000Y-151000000D03*
D30*
X151810000Y-148460000D03*
X150540000Y-145920000D03*
D31*
X148000000Y-151000000D03*
D30*
X145460000Y-145920000D03*
X144190000Y-148460000D03*
D29*
X142920000Y-151000000D03*
%TD*%
D35*
%TO.C,LED22*%
X169700000Y-154050000D03*
X169700000Y-155450000D03*
X164300000Y-155450000D03*
X164300000Y-154050000D03*
%TD*%
%TO.C,LED28*%
X207700000Y-105050000D03*
X207700000Y-106450000D03*
X202300000Y-106450000D03*
X202300000Y-105050000D03*
%TD*%
D27*
%TO.C,S8*%
X153842000Y-126920000D03*
D28*
X140915000Y-129460000D03*
D29*
X153080000Y-132000000D03*
D30*
X151810000Y-129460000D03*
X150540000Y-126920000D03*
D31*
X148000000Y-132000000D03*
D30*
X145460000Y-126920000D03*
X144190000Y-129460000D03*
D29*
X142920000Y-132000000D03*
%TD*%
D27*
%TO.C,S18*%
X210842000Y-152920000D03*
D28*
X197915000Y-155460000D03*
D29*
X210080000Y-158000000D03*
D30*
X208810000Y-155460000D03*
X207540000Y-152920000D03*
D31*
X205000000Y-158000000D03*
D30*
X202460000Y-152920000D03*
X201190000Y-155460000D03*
D29*
X199920000Y-158000000D03*
%TD*%
D27*
%TO.C,S23*%
X229842000Y-138920000D03*
D28*
X216915000Y-141460000D03*
D29*
X229080000Y-144000000D03*
D30*
X227810000Y-141460000D03*
X226540000Y-138920000D03*
D31*
X224000000Y-144000000D03*
D30*
X221460000Y-138920000D03*
X220190000Y-141460000D03*
D29*
X218920000Y-144000000D03*
%TD*%
D27*
%TO.C,S1*%
X115842000Y-126920000D03*
D28*
X102915000Y-129460000D03*
D29*
X115080000Y-132000000D03*
D30*
X113810000Y-129460000D03*
X112540000Y-126920000D03*
D31*
X110000000Y-132000000D03*
D30*
X107460000Y-126920000D03*
X106190000Y-129460000D03*
D29*
X104920000Y-132000000D03*
%TD*%
D35*
%TO.C,LED27*%
X207700000Y-124050000D03*
X207700000Y-125450000D03*
X202300000Y-125450000D03*
X202300000Y-124050000D03*
%TD*%
D26*
%TO.C,LED18*%
X192800000Y-187450000D03*
X192800000Y-186050000D03*
X198200000Y-186050000D03*
X198200000Y-187450000D03*
%TD*%
%TO.C,LED16*%
X221300000Y-130450000D03*
X221300000Y-129050000D03*
X226700000Y-129050000D03*
X226700000Y-130450000D03*
%TD*%
%TO.C,LED7*%
X145300000Y-156450000D03*
X145300000Y-155050000D03*
X150700000Y-155050000D03*
X150700000Y-156450000D03*
%TD*%
D27*
%TO.C,S4*%
X134842000Y-126920000D03*
D28*
X121915000Y-129460000D03*
D29*
X134080000Y-132000000D03*
D30*
X132810000Y-129460000D03*
X131540000Y-126920000D03*
D31*
X129000000Y-132000000D03*
D30*
X126460000Y-126920000D03*
X125190000Y-129460000D03*
D29*
X123920000Y-132000000D03*
%TD*%
D27*
%TO.C,S29*%
X248842000Y-102920000D03*
D28*
X235915000Y-105460000D03*
D29*
X248080000Y-108000000D03*
D30*
X246810000Y-105460000D03*
X245540000Y-102920000D03*
D31*
X243000000Y-108000000D03*
D30*
X240460000Y-102920000D03*
X239190000Y-105460000D03*
D29*
X237920000Y-108000000D03*
%TD*%
D27*
%TO.C,S2*%
X115842000Y-107920000D03*
D28*
X102915000Y-110460000D03*
D29*
X115080000Y-113000000D03*
D30*
X113810000Y-110460000D03*
X112540000Y-107920000D03*
D31*
X110000000Y-113000000D03*
D30*
X107460000Y-107920000D03*
X106190000Y-110460000D03*
D29*
X104920000Y-113000000D03*
%TD*%
D26*
%TO.C,LED15*%
X221300000Y-149450000D03*
X221300000Y-148050000D03*
X226700000Y-148050000D03*
X226700000Y-149450000D03*
%TD*%
D35*
%TO.C,LED29*%
X245700000Y-169050000D03*
X245700000Y-170450000D03*
X240300000Y-170450000D03*
X240300000Y-169050000D03*
%TD*%
D27*
%TO.C,S26*%
X248842000Y-159920000D03*
D28*
X235915000Y-162460000D03*
D29*
X248080000Y-165000000D03*
D30*
X246810000Y-162460000D03*
X245540000Y-159920000D03*
D31*
X243000000Y-165000000D03*
D30*
X240460000Y-159920000D03*
X239190000Y-162460000D03*
D29*
X237920000Y-165000000D03*
%TD*%
D26*
%TO.C,LED13*%
X183300000Y-111450000D03*
X183300000Y-110050000D03*
X188700000Y-110050000D03*
X188700000Y-111450000D03*
%TD*%
D36*
%TO.C,S33*%
X257235345Y-175696845D03*
D37*
X254297865Y-188539358D03*
D29*
X261566222Y-178459189D03*
D30*
X258729261Y-178586281D03*
X255892300Y-178713372D03*
D31*
X259500000Y-183100000D03*
D30*
X253826078Y-183354183D03*
X255629928Y-185547497D03*
D29*
X257433778Y-187740811D03*
%TD*%
D27*
%TO.C,S6*%
X153842000Y-164920000D03*
D28*
X140915000Y-167460000D03*
D29*
X153080000Y-170000000D03*
D30*
X151810000Y-167460000D03*
X150540000Y-164920000D03*
D31*
X148000000Y-170000000D03*
D30*
X145460000Y-164920000D03*
X144190000Y-167460000D03*
D29*
X142920000Y-170000000D03*
%TD*%
D27*
%TO.C,S34*%
X267842000Y-150420000D03*
D28*
X254915000Y-152960000D03*
D29*
X267080000Y-155500000D03*
D30*
X265810000Y-152960000D03*
X264540000Y-150420000D03*
D31*
X262000000Y-155500000D03*
D30*
X259460000Y-150420000D03*
X258190000Y-152960000D03*
D29*
X256920000Y-155500000D03*
%TD*%
D27*
%TO.C,S19*%
X210842000Y-133920000D03*
D28*
X197915000Y-136460000D03*
D29*
X210080000Y-139000000D03*
D30*
X208810000Y-136460000D03*
X207540000Y-133920000D03*
D31*
X205000000Y-139000000D03*
D30*
X202460000Y-133920000D03*
X201190000Y-136460000D03*
D29*
X199920000Y-139000000D03*
%TD*%
D27*
%TO.C,S15*%
X191842000Y-138920000D03*
D28*
X178915000Y-141460000D03*
D29*
X191080000Y-144000000D03*
D30*
X189810000Y-141460000D03*
X188540000Y-138920000D03*
D31*
X186000000Y-144000000D03*
D30*
X183460000Y-138920000D03*
X182190000Y-141460000D03*
D29*
X180920000Y-144000000D03*
%TD*%
D27*
%TO.C,S20*%
X210842000Y-114920000D03*
D28*
X197915000Y-117460000D03*
D29*
X210080000Y-120000000D03*
D30*
X208810000Y-117460000D03*
X207540000Y-114920000D03*
D31*
X205000000Y-120000000D03*
D30*
X202460000Y-114920000D03*
X201190000Y-117460000D03*
D29*
X199920000Y-120000000D03*
%TD*%
D26*
%TO.C,LED17*%
X221300000Y-111450000D03*
X221300000Y-110050000D03*
X226700000Y-110050000D03*
X226700000Y-111450000D03*
%TD*%
D35*
%TO.C,LED32*%
X245700000Y-112050000D03*
X245700000Y-113450000D03*
X240300000Y-113450000D03*
X240300000Y-112050000D03*
%TD*%
D27*
%TO.C,S22*%
X229842000Y-157920000D03*
D28*
X216915000Y-160460000D03*
D29*
X229080000Y-163000000D03*
D30*
X227810000Y-160460000D03*
X226540000Y-157920000D03*
D31*
X224000000Y-163000000D03*
D30*
X221460000Y-157920000D03*
X220190000Y-160460000D03*
D29*
X218920000Y-163000000D03*
%TD*%
D27*
%TO.C,S5*%
X134842000Y-107920000D03*
D28*
X121915000Y-110460000D03*
D29*
X134080000Y-113000000D03*
D30*
X132810000Y-110460000D03*
X131540000Y-107920000D03*
D31*
X129000000Y-113000000D03*
D30*
X126460000Y-107920000D03*
X125190000Y-110460000D03*
D29*
X123920000Y-113000000D03*
%TD*%
D26*
%TO.C,LED10*%
X183300000Y-168450000D03*
X183300000Y-167050000D03*
X188700000Y-167050000D03*
X188700000Y-168450000D03*
%TD*%
%TO.C,LED4*%
X126300000Y-137450000D03*
X126300000Y-136050000D03*
X131700000Y-136050000D03*
X131700000Y-137450000D03*
%TD*%
D27*
%TO.C,S12*%
X172842000Y-125920000D03*
D28*
X159915000Y-128460000D03*
D29*
X172080000Y-131000000D03*
D30*
X170810000Y-128460000D03*
X169540000Y-125920000D03*
D31*
X167000000Y-131000000D03*
D30*
X164460000Y-125920000D03*
X163190000Y-128460000D03*
D29*
X161920000Y-131000000D03*
%TD*%
D26*
%TO.C,LED2*%
X107300000Y-118450000D03*
X107300000Y-117050000D03*
X112700000Y-117050000D03*
X112700000Y-118450000D03*
%TD*%
D27*
%TO.C,S9*%
X153842000Y-107920000D03*
D28*
X140915000Y-110460000D03*
D29*
X153080000Y-113000000D03*
D30*
X151810000Y-110460000D03*
X150540000Y-107920000D03*
D31*
X148000000Y-113000000D03*
D30*
X145460000Y-107920000D03*
X144190000Y-110460000D03*
D29*
X142920000Y-113000000D03*
%TD*%
D27*
%TO.C,S17*%
X191842000Y-100920000D03*
D28*
X178915000Y-103460000D03*
D29*
X191080000Y-106000000D03*
D30*
X189810000Y-103460000D03*
X188540000Y-100920000D03*
D31*
X186000000Y-106000000D03*
D30*
X183460000Y-100920000D03*
X182190000Y-103460000D03*
D29*
X180920000Y-106000000D03*
%TD*%
M02*
