%TF.GenerationSoftware,KiCad,Pcbnew,8.0.5*%
%TF.CreationDate,2024-11-30T23:52:13+01:00*%
%TF.ProjectId,left_finished,6c656674-5f66-4696-9e69-736865642e6b,v1.0.0*%
%TF.SameCoordinates,Original*%
%TF.FileFunction,Legend,Bot*%
%TF.FilePolarity,Positive*%
%FSLAX46Y46*%
G04 Gerber Fmt 4.6, Leading zero omitted, Abs format (unit mm)*
G04 Created by KiCad (PCBNEW 8.0.5) date 2024-11-30 23:52:13*
%MOMM*%
%LPD*%
G01*
G04 APERTURE LIST*
%ADD10C,0.150000*%
%ADD11C,0.100000*%
%ADD12C,0.120000*%
G04 APERTURE END LIST*
D10*
X269071427Y-142480057D02*
X269071427Y-144622914D01*
X269071427Y-144622914D02*
X269214284Y-145051485D01*
X269214284Y-145051485D02*
X269499998Y-145337200D01*
X269499998Y-145337200D02*
X269928570Y-145480057D01*
X269928570Y-145480057D02*
X270214284Y-145480057D01*
X267214284Y-145480057D02*
X267499999Y-145337200D01*
X267499999Y-145337200D02*
X267642856Y-145194342D01*
X267642856Y-145194342D02*
X267785713Y-144908628D01*
X267785713Y-144908628D02*
X267785713Y-144051485D01*
X267785713Y-144051485D02*
X267642856Y-143765771D01*
X267642856Y-143765771D02*
X267499999Y-143622914D01*
X267499999Y-143622914D02*
X267214284Y-143480057D01*
X267214284Y-143480057D02*
X266785713Y-143480057D01*
X266785713Y-143480057D02*
X266499999Y-143622914D01*
X266499999Y-143622914D02*
X266357142Y-143765771D01*
X266357142Y-143765771D02*
X266214284Y-144051485D01*
X266214284Y-144051485D02*
X266214284Y-144908628D01*
X266214284Y-144908628D02*
X266357142Y-145194342D01*
X266357142Y-145194342D02*
X266499999Y-145337200D01*
X266499999Y-145337200D02*
X266785713Y-145480057D01*
X266785713Y-145480057D02*
X267214284Y-145480057D01*
X264928570Y-145480057D02*
X264928570Y-142480057D01*
X264642856Y-144337200D02*
X263785713Y-145480057D01*
X263785713Y-143480057D02*
X264928570Y-144622914D01*
X262499999Y-145480057D02*
X262499999Y-142480057D01*
X262214285Y-144337200D02*
X261357142Y-145480057D01*
X261357142Y-143480057D02*
X262499999Y-144622914D01*
X258928571Y-145337200D02*
X259214285Y-145480057D01*
X259214285Y-145480057D02*
X259785714Y-145480057D01*
X259785714Y-145480057D02*
X260071428Y-145337200D01*
X260071428Y-145337200D02*
X260214285Y-145051485D01*
X260214285Y-145051485D02*
X260214285Y-143908628D01*
X260214285Y-143908628D02*
X260071428Y-143622914D01*
X260071428Y-143622914D02*
X259785714Y-143480057D01*
X259785714Y-143480057D02*
X259214285Y-143480057D01*
X259214285Y-143480057D02*
X258928571Y-143622914D01*
X258928571Y-143622914D02*
X258785714Y-143908628D01*
X258785714Y-143908628D02*
X258785714Y-144194342D01*
X258785714Y-144194342D02*
X260214285Y-144480057D01*
X257642856Y-145337200D02*
X257357142Y-145480057D01*
X257357142Y-145480057D02*
X256785713Y-145480057D01*
X256785713Y-145480057D02*
X256499999Y-145337200D01*
X256499999Y-145337200D02*
X256357142Y-145051485D01*
X256357142Y-145051485D02*
X256357142Y-144908628D01*
X256357142Y-144908628D02*
X256499999Y-144622914D01*
X256499999Y-144622914D02*
X256785713Y-144480057D01*
X256785713Y-144480057D02*
X257214285Y-144480057D01*
X257214285Y-144480057D02*
X257499999Y-144337200D01*
X257499999Y-144337200D02*
X257642856Y-144051485D01*
X257642856Y-144051485D02*
X257642856Y-143908628D01*
X257642856Y-143908628D02*
X257499999Y-143622914D01*
X257499999Y-143622914D02*
X257214285Y-143480057D01*
X257214285Y-143480057D02*
X256785713Y-143480057D01*
X256785713Y-143480057D02*
X256499999Y-143622914D01*
X255214285Y-145337200D02*
X254928571Y-145480057D01*
X254928571Y-145480057D02*
X254357142Y-145480057D01*
X254357142Y-145480057D02*
X254071428Y-145337200D01*
X254071428Y-145337200D02*
X253928571Y-145051485D01*
X253928571Y-145051485D02*
X253928571Y-144908628D01*
X253928571Y-144908628D02*
X254071428Y-144622914D01*
X254071428Y-144622914D02*
X254357142Y-144480057D01*
X254357142Y-144480057D02*
X254785714Y-144480057D01*
X254785714Y-144480057D02*
X255071428Y-144337200D01*
X255071428Y-144337200D02*
X255214285Y-144051485D01*
X255214285Y-144051485D02*
X255214285Y-143908628D01*
X255214285Y-143908628D02*
X255071428Y-143622914D01*
X255071428Y-143622914D02*
X254785714Y-143480057D01*
X254785714Y-143480057D02*
X254357142Y-143480057D01*
X254357142Y-143480057D02*
X254071428Y-143622914D01*
X265571427Y-109380057D02*
X266999999Y-109380057D01*
X266999999Y-109380057D02*
X266999999Y-106380057D01*
D11*
%TO.C,D6*%
X166250000Y-155000000D02*
X166650000Y-155000000D01*
X166650000Y-155000000D02*
X166650000Y-154450000D01*
X166650000Y-155000000D02*
X166650000Y-155550000D01*
X166650000Y-155000000D02*
X167250000Y-154600000D01*
X167250000Y-154600000D02*
X167250000Y-155400000D01*
X167250000Y-155000000D02*
X167750000Y-155000000D01*
X167250000Y-155400000D02*
X166650000Y-155000000D01*
%TO.C,D13*%
X204250000Y-163000000D02*
X204650000Y-163000000D01*
X204650000Y-163000000D02*
X204650000Y-162450000D01*
X204650000Y-163000000D02*
X204650000Y-163550000D01*
X204650000Y-163000000D02*
X205250000Y-162600000D01*
X205250000Y-162600000D02*
X205250000Y-163400000D01*
X205250000Y-163000000D02*
X205750000Y-163000000D01*
X205250000Y-163400000D02*
X204650000Y-163000000D01*
%TO.C,D16*%
X204250000Y-106000000D02*
X204650000Y-106000000D01*
X204650000Y-106000000D02*
X204650000Y-105450000D01*
X204650000Y-106000000D02*
X204650000Y-106550000D01*
X204650000Y-106000000D02*
X205250000Y-105600000D01*
X205250000Y-105600000D02*
X205250000Y-106400000D01*
X205250000Y-106000000D02*
X205750000Y-106000000D01*
X205250000Y-106400000D02*
X204650000Y-106000000D01*
%TO.C,D23*%
X242250000Y-132000000D02*
X242650000Y-132000000D01*
X242650000Y-132000000D02*
X242650000Y-131450000D01*
X242650000Y-132000000D02*
X242650000Y-132550000D01*
X242650000Y-132000000D02*
X243250000Y-131600000D01*
X243250000Y-131600000D02*
X243250000Y-132400000D01*
X243250000Y-132000000D02*
X243750000Y-132000000D01*
X243250000Y-132400000D02*
X242650000Y-132000000D01*
%TO.C,D2*%
X147250000Y-156000000D02*
X147650000Y-156000000D01*
X147650000Y-156000000D02*
X147650000Y-155450000D01*
X147650000Y-156000000D02*
X147650000Y-156550000D01*
X147650000Y-156000000D02*
X148250000Y-155600000D01*
X148250000Y-155600000D02*
X148250000Y-156400000D01*
X148250000Y-156000000D02*
X148750000Y-156000000D01*
X148250000Y-156400000D02*
X147650000Y-156000000D01*
%TO.C,D29*%
X261250000Y-160500000D02*
X261650000Y-160500000D01*
X261650000Y-160500000D02*
X261650000Y-159950000D01*
X261650000Y-160500000D02*
X261650000Y-161050000D01*
X261650000Y-160500000D02*
X262250000Y-160100000D01*
X262250000Y-160100000D02*
X262250000Y-160900000D01*
X262250000Y-160500000D02*
X262750000Y-160500000D01*
X262250000Y-160900000D02*
X261650000Y-160500000D01*
%TO.C,D14*%
X204250000Y-144000000D02*
X204650000Y-144000000D01*
X204650000Y-144000000D02*
X204650000Y-143450000D01*
X204650000Y-144000000D02*
X204650000Y-144550000D01*
X204650000Y-144000000D02*
X205250000Y-143600000D01*
X205250000Y-143600000D02*
X205250000Y-144400000D01*
X205250000Y-144000000D02*
X205750000Y-144000000D01*
X205250000Y-144400000D02*
X204650000Y-144000000D01*
%TO.C,D8*%
X166250000Y-117000000D02*
X166650000Y-117000000D01*
X166650000Y-117000000D02*
X166650000Y-116450000D01*
X166650000Y-117000000D02*
X166650000Y-117550000D01*
X166650000Y-117000000D02*
X167250000Y-116600000D01*
X167250000Y-116600000D02*
X167250000Y-117400000D01*
X167250000Y-117000000D02*
X167750000Y-117000000D01*
X167250000Y-117400000D02*
X166650000Y-117000000D01*
%TO.C,D11*%
X185250000Y-130000000D02*
X185650000Y-130000000D01*
X185650000Y-130000000D02*
X185650000Y-129450000D01*
X185650000Y-130000000D02*
X185650000Y-130550000D01*
X185650000Y-130000000D02*
X186250000Y-129600000D01*
X186250000Y-129600000D02*
X186250000Y-130400000D01*
X186250000Y-130000000D02*
X186750000Y-130000000D01*
X186250000Y-130400000D02*
X185650000Y-130000000D01*
%TO.C,D3*%
X147250000Y-137000000D02*
X147650000Y-137000000D01*
X147650000Y-137000000D02*
X147650000Y-136450000D01*
X147650000Y-137000000D02*
X147650000Y-137550000D01*
X147650000Y-137000000D02*
X148250000Y-136600000D01*
X148250000Y-136600000D02*
X148250000Y-137400000D01*
X148250000Y-137000000D02*
X148750000Y-137000000D01*
X148250000Y-137400000D02*
X147650000Y-137000000D01*
%TO.C,D10*%
X185250000Y-149000000D02*
X185650000Y-149000000D01*
X185650000Y-149000000D02*
X185650000Y-148450000D01*
X185650000Y-149000000D02*
X185650000Y-149550000D01*
X185650000Y-149000000D02*
X186250000Y-148600000D01*
X186250000Y-148600000D02*
X186250000Y-149400000D01*
X186250000Y-149000000D02*
X186750000Y-149000000D01*
X186250000Y-149400000D02*
X185650000Y-149000000D01*
%TO.C,D18*%
X223250000Y-149000000D02*
X223650000Y-149000000D01*
X223650000Y-149000000D02*
X223650000Y-148450000D01*
X223650000Y-149000000D02*
X223650000Y-149550000D01*
X223650000Y-149000000D02*
X224250000Y-148600000D01*
X224250000Y-148600000D02*
X224250000Y-149400000D01*
X224250000Y-149000000D02*
X224750000Y-149000000D01*
X224250000Y-149400000D02*
X223650000Y-149000000D01*
%TO.C,D28*%
X263762675Y-185818842D02*
X263925369Y-185453424D01*
X263803993Y-184742602D02*
X264534829Y-185067991D01*
X263925369Y-185453424D02*
X263422919Y-185229719D01*
X263925369Y-185453424D02*
X263803993Y-184742602D01*
X263925369Y-185453424D02*
X264427819Y-185677129D01*
X264169411Y-184905297D02*
X264372779Y-184448524D01*
X264534829Y-185067991D02*
X263925369Y-185453424D01*
%TO.C,D17*%
X223250000Y-168000000D02*
X223650000Y-168000000D01*
X223650000Y-168000000D02*
X223650000Y-167450000D01*
X223650000Y-168000000D02*
X223650000Y-168550000D01*
X223650000Y-168000000D02*
X224250000Y-167600000D01*
X224250000Y-167600000D02*
X224250000Y-168400000D01*
X224250000Y-168000000D02*
X224750000Y-168000000D01*
X224250000Y-168400000D02*
X223650000Y-168000000D01*
%TO.C,D27*%
X232750000Y-189000000D02*
X233150000Y-189000000D01*
X233150000Y-189000000D02*
X233150000Y-188450000D01*
X233150000Y-189000000D02*
X233150000Y-189550000D01*
X233150000Y-189000000D02*
X233750000Y-188600000D01*
X233750000Y-188600000D02*
X233750000Y-189400000D01*
X233750000Y-189000000D02*
X234250000Y-189000000D01*
X233750000Y-189400000D02*
X233150000Y-189000000D01*
%TO.C,D25*%
X194750000Y-187000000D02*
X195150000Y-187000000D01*
X195150000Y-187000000D02*
X195150000Y-186450000D01*
X195150000Y-187000000D02*
X195150000Y-187550000D01*
X195150000Y-187000000D02*
X195750000Y-186600000D01*
X195750000Y-186600000D02*
X195750000Y-187400000D01*
X195750000Y-187000000D02*
X196250000Y-187000000D01*
X195750000Y-187400000D02*
X195150000Y-187000000D01*
%TO.C,D26*%
X213750000Y-187000000D02*
X214150000Y-187000000D01*
X214150000Y-187000000D02*
X214150000Y-186450000D01*
X214150000Y-187000000D02*
X214150000Y-187550000D01*
X214150000Y-187000000D02*
X214750000Y-186600000D01*
X214750000Y-186600000D02*
X214750000Y-187400000D01*
X214750000Y-187000000D02*
X215250000Y-187000000D01*
X214750000Y-187400000D02*
X214150000Y-187000000D01*
%TO.C,D9*%
X185250000Y-168000000D02*
X185650000Y-168000000D01*
X185650000Y-168000000D02*
X185650000Y-167450000D01*
X185650000Y-168000000D02*
X185650000Y-168550000D01*
X185650000Y-168000000D02*
X186250000Y-167600000D01*
X186250000Y-167600000D02*
X186250000Y-168400000D01*
X186250000Y-168000000D02*
X186750000Y-168000000D01*
X186250000Y-168400000D02*
X185650000Y-168000000D01*
%TO.C,D7*%
X166250000Y-136000000D02*
X166650000Y-136000000D01*
X166650000Y-136000000D02*
X166650000Y-135450000D01*
X166650000Y-136000000D02*
X166650000Y-136550000D01*
X166650000Y-136000000D02*
X167250000Y-135600000D01*
X167250000Y-135600000D02*
X167250000Y-136400000D01*
X167250000Y-136000000D02*
X167750000Y-136000000D01*
X167250000Y-136400000D02*
X166650000Y-136000000D01*
%TO.C,D1*%
X147250000Y-175000000D02*
X147650000Y-175000000D01*
X147650000Y-175000000D02*
X147650000Y-174450000D01*
X147650000Y-175000000D02*
X147650000Y-175550000D01*
X147650000Y-175000000D02*
X148250000Y-174600000D01*
X148250000Y-174600000D02*
X148250000Y-175400000D01*
X148250000Y-175000000D02*
X148750000Y-175000000D01*
X148250000Y-175400000D02*
X147650000Y-175000000D01*
%TO.C,D19*%
X223250000Y-130000000D02*
X223650000Y-130000000D01*
X223650000Y-130000000D02*
X223650000Y-129450000D01*
X223650000Y-130000000D02*
X223650000Y-130550000D01*
X223650000Y-130000000D02*
X224250000Y-129600000D01*
X224250000Y-129600000D02*
X224250000Y-130400000D01*
X224250000Y-130000000D02*
X224750000Y-130000000D01*
X224250000Y-130400000D02*
X223650000Y-130000000D01*
%TO.C,D21*%
X242250000Y-170000000D02*
X242650000Y-170000000D01*
X242650000Y-170000000D02*
X242650000Y-169450000D01*
X242650000Y-170000000D02*
X242650000Y-170550000D01*
X242650000Y-170000000D02*
X243250000Y-169600000D01*
X243250000Y-169600000D02*
X243250000Y-170400000D01*
X243250000Y-170000000D02*
X243750000Y-170000000D01*
X243250000Y-170400000D02*
X242650000Y-170000000D01*
%TO.C,D24*%
X242250000Y-113000000D02*
X242650000Y-113000000D01*
X242650000Y-113000000D02*
X242650000Y-112450000D01*
X242650000Y-113000000D02*
X242650000Y-113550000D01*
X242650000Y-113000000D02*
X243250000Y-112600000D01*
X243250000Y-112600000D02*
X243250000Y-113400000D01*
X243250000Y-113000000D02*
X243750000Y-113000000D01*
X243250000Y-113400000D02*
X242650000Y-113000000D01*
%TO.C,D15*%
X204250000Y-125000000D02*
X204650000Y-125000000D01*
X204650000Y-125000000D02*
X204650000Y-124450000D01*
X204650000Y-125000000D02*
X204650000Y-125550000D01*
X204650000Y-125000000D02*
X205250000Y-124600000D01*
X205250000Y-124600000D02*
X205250000Y-125400000D01*
X205250000Y-125000000D02*
X205750000Y-125000000D01*
X205250000Y-125400000D02*
X204650000Y-125000000D01*
%TO.C,D4*%
X147250000Y-118000000D02*
X147650000Y-118000000D01*
X147650000Y-118000000D02*
X147650000Y-117450000D01*
X147650000Y-118000000D02*
X147650000Y-118550000D01*
X147650000Y-118000000D02*
X148250000Y-117600000D01*
X148250000Y-117600000D02*
X148250000Y-118400000D01*
X148250000Y-118000000D02*
X148750000Y-118000000D01*
X148250000Y-118400000D02*
X147650000Y-118000000D01*
%TO.C,D12*%
X185250000Y-111000000D02*
X185650000Y-111000000D01*
X185650000Y-111000000D02*
X185650000Y-110450000D01*
X185650000Y-111000000D02*
X185650000Y-111550000D01*
X185650000Y-111000000D02*
X186250000Y-110600000D01*
X186250000Y-110600000D02*
X186250000Y-111400000D01*
X186250000Y-111000000D02*
X186750000Y-111000000D01*
X186250000Y-111400000D02*
X185650000Y-111000000D01*
%TO.C,D20*%
X223250000Y-111000000D02*
X223650000Y-111000000D01*
X223650000Y-111000000D02*
X223650000Y-110450000D01*
X223650000Y-111000000D02*
X223650000Y-111550000D01*
X223650000Y-111000000D02*
X224250000Y-110600000D01*
X224250000Y-110600000D02*
X224250000Y-111400000D01*
X224250000Y-111000000D02*
X224750000Y-111000000D01*
X224250000Y-111400000D02*
X223650000Y-111000000D01*
%TO.C,D22*%
X242250000Y-151000000D02*
X242650000Y-151000000D01*
X242650000Y-151000000D02*
X242650000Y-150450000D01*
X242650000Y-151000000D02*
X242650000Y-151550000D01*
X242650000Y-151000000D02*
X243250000Y-150600000D01*
X243250000Y-150600000D02*
X243250000Y-151400000D01*
X243250000Y-151000000D02*
X243750000Y-151000000D01*
X243250000Y-151400000D02*
X242650000Y-151000000D01*
%TO.C,D5*%
X166250000Y-174000000D02*
X166650000Y-174000000D01*
X166650000Y-174000000D02*
X166650000Y-173450000D01*
X166650000Y-174000000D02*
X166650000Y-174550000D01*
X166650000Y-174000000D02*
X167250000Y-173600000D01*
X167250000Y-173600000D02*
X167250000Y-174400000D01*
X167250000Y-174000000D02*
X167750000Y-174000000D01*
X167250000Y-174400000D02*
X166650000Y-174000000D01*
D12*
%TO.C,JST1*%
X229940000Y-147140000D02*
X229940000Y-148140000D01*
X229940000Y-154960000D02*
X229940000Y-153960000D01*
X230860000Y-147140000D02*
X229940000Y-147140000D01*
X230860000Y-154960000D02*
X229940000Y-154960000D01*
D11*
X231500000Y-146100000D02*
X232500000Y-146100000D01*
X234000000Y-146600000D02*
X234000000Y-145600000D01*
X234500000Y-146100000D02*
X233500000Y-146100000D01*
D12*
X235060000Y-154960000D02*
X236060000Y-154960000D01*
X235140000Y-147140000D02*
X236060000Y-147140000D01*
X236060000Y-147140000D02*
X236060000Y-148140000D01*
X236060000Y-154960000D02*
X236060000Y-153960000D01*
%TD*%
M02*
