%TF.GenerationSoftware,KiCad,Pcbnew,8.0.5*%
%TF.CreationDate,2024-11-30T23:52:13+01:00*%
%TF.ProjectId,left_finished,6c656674-5f66-4696-9e69-736865642e6b,v1.0.0*%
%TF.SameCoordinates,Original*%
%TF.FileFunction,Profile,NP*%
%FSLAX46Y46*%
G04 Gerber Fmt 4.6, Leading zero omitted, Abs format (unit mm)*
G04 Created by KiCad (PCBNEW 8.0.5) date 2024-11-30 23:52:13*
%MOMM*%
%LPD*%
G01*
G04 APERTURE LIST*
%TA.AperFunction,Profile*%
%ADD10C,0.150000*%
%TD*%
G04 APERTURE END LIST*
D10*
X184000000Y-179500000D02*
G75*
G02*
X186000000Y-181500000I0J-2000000D01*
G01*
X273952311Y-173996215D02*
X263196158Y-198154930D01*
X157500000Y-103500000D02*
X157500000Y-102500000D01*
X157500000Y-102500000D02*
X174500000Y-102500000D01*
X138500000Y-177500000D02*
X138500000Y-105500000D01*
X140500000Y-103500000D02*
X157500000Y-103500000D01*
X260555594Y-199168548D02*
X245413616Y-192426905D01*
X233500000Y-96500000D02*
X233500000Y-98500000D01*
X244600279Y-192253996D02*
G75*
G02*
X245413609Y-192426921I-179J-2000004D01*
G01*
X178500000Y-96500000D02*
X193500000Y-96500000D01*
X280869033Y-155843872D02*
X273994253Y-173894581D01*
X212500000Y-91500000D02*
G75*
G02*
X214500000Y-93500000I0J-2000000D01*
G01*
X214500000Y-93500000D02*
X214500000Y-94500000D01*
X195500000Y-94500000D02*
G75*
G02*
X193500000Y-96500000I-2000000J0D01*
G01*
X195500000Y-93500000D02*
G75*
G02*
X197500000Y-91500000I2000000J0D01*
G01*
X176500000Y-100500000D02*
X176500000Y-98500000D01*
X279000000Y-98500000D02*
G75*
G02*
X281000000Y-100500000I0J-2000000D01*
G01*
X195500000Y-94500000D02*
X195500000Y-93500000D01*
X281000000Y-155132033D02*
G75*
G02*
X280869022Y-155843868I-2000000J33D01*
G01*
X273994253Y-173894581D02*
G75*
G02*
X273952308Y-173996214I-1870453J712481D01*
G01*
X184000000Y-179500000D02*
X140500000Y-179500000D01*
X233500000Y-98500000D02*
X279000000Y-98500000D01*
X281000000Y-100500000D02*
X281000000Y-155132033D01*
X187999864Y-192250136D02*
G75*
G02*
X185999964Y-190250136I136J2000036D01*
G01*
X216500000Y-96500000D02*
X233500000Y-96500000D01*
X176500000Y-100500000D02*
G75*
G02*
X174500000Y-102500000I-2000000J0D01*
G01*
X176500000Y-98500000D02*
G75*
G02*
X178500000Y-96500000I2000000J0D01*
G01*
X186000000Y-190250136D02*
X186000000Y-181500000D01*
X197500000Y-91500000D02*
X212500000Y-91500000D01*
X140500000Y-179500000D02*
G75*
G02*
X138500000Y-177500000I0J2000000D01*
G01*
X216500000Y-96500000D02*
G75*
G02*
X214500000Y-94500000I0J2000000D01*
G01*
X263196158Y-198154930D02*
G75*
G02*
X260555603Y-199168528I-1827058J813430D01*
G01*
X138500000Y-105500000D02*
G75*
G02*
X140500000Y-103500000I2000000J0D01*
G01*
X244600279Y-192253996D02*
X187999864Y-192250136D01*
M02*
