%TF.GenerationSoftware,KiCad,Pcbnew,8.0.5*%
%TF.CreationDate,2024-11-30T23:52:13+01:00*%
%TF.ProjectId,left_finished,6c656674-5f66-4696-9e69-736865642e6b,v1.0.0*%
%TF.SameCoordinates,Original*%
%TF.FileFunction,Copper,L2,Bot*%
%TF.FilePolarity,Positive*%
%FSLAX46Y46*%
G04 Gerber Fmt 4.6, Leading zero omitted, Abs format (unit mm)*
G04 Created by KiCad (PCBNEW 8.0.5) date 2024-11-30 23:52:13*
%MOMM*%
%LPD*%
G01*
G04 APERTURE LIST*
G04 Aperture macros list*
%AMRoundRect*
0 Rectangle with rounded corners*
0 $1 Rounding radius*
0 $2 $3 $4 $5 $6 $7 $8 $9 X,Y pos of 4 corners*
0 Add a 4 corners polygon primitive as box body*
4,1,4,$2,$3,$4,$5,$6,$7,$8,$9,$2,$3,0*
0 Add four circle primitives for the rounded corners*
1,1,$1+$1,$2,$3*
1,1,$1+$1,$4,$5*
1,1,$1+$1,$6,$7*
1,1,$1+$1,$8,$9*
0 Add four rect primitives between the rounded corners*
20,1,$1+$1,$2,$3,$4,$5,0*
20,1,$1+$1,$4,$5,$6,$7,0*
20,1,$1+$1,$6,$7,$8,$9,0*
20,1,$1+$1,$8,$9,$2,$3,0*%
%AMRotRect*
0 Rectangle, with rotation*
0 The origin of the aperture is its center*
0 $1 length*
0 $2 width*
0 $3 Rotation angle, in degrees counterclockwise*
0 Add horizontal line*
21,1,$1,$2,0,0,$3*%
G04 Aperture macros list end*
%TA.AperFunction,SMDPad,CuDef*%
%ADD10R,2.600000X2.600000*%
%TD*%
%TA.AperFunction,ComponentPad*%
%ADD11R,1.778000X1.778000*%
%TD*%
%TA.AperFunction,SMDPad,CuDef*%
%ADD12R,0.900000X1.200000*%
%TD*%
%TA.AperFunction,ComponentPad*%
%ADD13C,1.905000*%
%TD*%
%TA.AperFunction,ComponentPad*%
%ADD14C,1.700000*%
%TD*%
%TA.AperFunction,SMDPad,CuDef*%
%ADD15RotRect,2.600000X2.600000X66.000000*%
%TD*%
%TA.AperFunction,ComponentPad*%
%ADD16RotRect,1.778000X1.778000X66.000000*%
%TD*%
%TA.AperFunction,SMDPad,CuDef*%
%ADD17RotRect,0.900000X1.200000X66.000000*%
%TD*%
%TA.AperFunction,ComponentPad*%
%ADD18O,1.700000X1.700000*%
%TD*%
%TA.AperFunction,ComponentPad*%
%ADD19RoundRect,0.240000X0.360000X0.635000X-0.360000X0.635000X-0.360000X-0.635000X0.360000X-0.635000X0*%
%TD*%
%TA.AperFunction,ComponentPad*%
%ADD20O,1.200000X1.750000*%
%TD*%
%TA.AperFunction,ViaPad*%
%ADD21C,0.800000*%
%TD*%
%TA.AperFunction,Conductor*%
%ADD22C,0.250000*%
%TD*%
%TA.AperFunction,Conductor*%
%ADD23C,0.200000*%
%TD*%
G04 APERTURE END LIST*
D10*
%TO.P,S18,1*%
%TO.N,P4*%
X220725000Y-138050000D03*
%TO.P,S18,2*%
%TO.N,index_home*%
X232275000Y-140250000D03*
%TD*%
D11*
%TO.P,D6,1*%
%TO.N,P16*%
X163190000Y-155000000D03*
D12*
X165350000Y-155000000D03*
%TO.P,D6,2*%
%TO.N,pinky_home*%
X168650000Y-155000000D03*
D13*
X170810000Y-155000000D03*
%TD*%
D11*
%TO.P,D13,1*%
%TO.N,P10*%
X201190000Y-163000000D03*
D12*
X203350000Y-163000000D03*
%TO.P,D13,2*%
%TO.N,middle_bottom*%
X206650000Y-163000000D03*
D13*
X208810000Y-163000000D03*
%TD*%
D11*
%TO.P,D16,1*%
%TO.N,P21*%
X201190000Y-106000000D03*
D12*
X203350000Y-106000000D03*
%TO.P,D16,2*%
%TO.N,middle_number*%
X206650000Y-106000000D03*
D13*
X208810000Y-106000000D03*
%TD*%
D11*
%TO.P,D23,1*%
%TO.N,P19*%
X239190000Y-132000000D03*
D12*
X241350000Y-132000000D03*
%TO.P,D23,2*%
%TO.N,inner_top*%
X244650000Y-132000000D03*
D13*
X246810000Y-132000000D03*
%TD*%
D11*
%TO.P,D2,1*%
%TO.N,P16*%
X144190000Y-156000000D03*
D12*
X146350000Y-156000000D03*
%TO.P,D2,2*%
%TO.N,outer_home*%
X149650000Y-156000000D03*
D13*
X151810000Y-156000000D03*
%TD*%
D10*
%TO.P,S9,1*%
%TO.N,P2*%
X182725000Y-157050000D03*
%TO.P,S9,2*%
%TO.N,ring_bottom*%
X194275000Y-159250000D03*
%TD*%
D11*
%TO.P,D29,1*%
%TO.N,P9*%
X258190000Y-160500000D03*
D12*
X260350000Y-160500000D03*
%TO.P,D29,2*%
%TO.N,main_main*%
X263650000Y-160500000D03*
D13*
X265810000Y-160500000D03*
%TD*%
D11*
%TO.P,D14,1*%
%TO.N,P16*%
X201190000Y-144000000D03*
D12*
X203350000Y-144000000D03*
%TO.P,D14,2*%
%TO.N,middle_home*%
X206650000Y-144000000D03*
D13*
X208810000Y-144000000D03*
%TD*%
D10*
%TO.P,S27,1*%
%TO.N,P3*%
X230225000Y-178050000D03*
%TO.P,S27,2*%
%TO.N,far_bottom*%
X241775000Y-180250000D03*
%TD*%
%TO.P,S14,1*%
%TO.N,P3*%
X201725000Y-133050000D03*
%TO.P,S14,2*%
%TO.N,middle_home*%
X213275000Y-135250000D03*
%TD*%
D14*
%TO.P,MCU1,1*%
%TO.N,P1*%
X274120000Y-104800000D03*
%TO.P,MCU1,2*%
%TO.N,P0*%
X274120000Y-107340000D03*
%TO.P,MCU1,3*%
%TO.N,GND*%
X274120000Y-109880000D03*
%TO.P,MCU1,4*%
X274120000Y-112420000D03*
%TO.P,MCU1,5*%
%TO.N,P2*%
X274120000Y-114960000D03*
%TO.P,MCU1,6*%
%TO.N,P3*%
X274120000Y-117500000D03*
%TO.P,MCU1,7*%
%TO.N,P4*%
X274120000Y-120040000D03*
%TO.P,MCU1,8*%
%TO.N,P5*%
X274120000Y-122580000D03*
%TO.P,MCU1,9*%
%TO.N,P6*%
X274120000Y-125120000D03*
%TO.P,MCU1,10*%
%TO.N,P7*%
X274120000Y-127660000D03*
%TO.P,MCU1,11*%
%TO.N,P8*%
X274120000Y-130200000D03*
%TO.P,MCU1,12*%
%TO.N,P9*%
X274120000Y-132740000D03*
%TO.P,MCU1,13*%
%TO.N,P10*%
X258880000Y-132740000D03*
%TO.P,MCU1,14*%
%TO.N,P16*%
X258880000Y-130200000D03*
%TO.P,MCU1,15*%
%TO.N,P14*%
X258880000Y-127660000D03*
%TO.P,MCU1,16*%
%TO.N,P15*%
X258880000Y-125120000D03*
%TO.P,MCU1,17*%
%TO.N,P18*%
X258880000Y-122580000D03*
%TO.P,MCU1,18*%
%TO.N,P19*%
X258880000Y-120040000D03*
%TO.P,MCU1,19*%
%TO.N,P20*%
X258880000Y-117500000D03*
%TO.P,MCU1,20*%
%TO.N,P21*%
X258880000Y-114960000D03*
%TO.P,MCU1,21*%
%TO.N,VCC*%
X258880000Y-112420000D03*
%TO.P,MCU1,22*%
%TO.N,RST*%
X258880000Y-109880000D03*
%TO.P,MCU1,23*%
%TO.N,GND*%
X258880000Y-107340000D03*
%TO.P,MCU1,24*%
%TO.N,RAW*%
X258880000Y-104800000D03*
%TD*%
D11*
%TO.P,D8,1*%
%TO.N,P21*%
X163190000Y-117000000D03*
D12*
X165350000Y-117000000D03*
%TO.P,D8,2*%
%TO.N,pinky_number*%
X168650000Y-117000000D03*
D13*
X170810000Y-117000000D03*
%TD*%
D10*
%TO.P,S21,1*%
%TO.N,P20*%
X239725000Y-159050000D03*
%TO.P,S21,2*%
%TO.N,inner_bottom*%
X251275000Y-161250000D03*
%TD*%
%TO.P,S23,1*%
%TO.N,P20*%
X239725000Y-121050000D03*
%TO.P,S23,2*%
%TO.N,inner_top*%
X251275000Y-123250000D03*
%TD*%
D11*
%TO.P,D11,1*%
%TO.N,P19*%
X182190000Y-130000000D03*
D12*
X184350000Y-130000000D03*
%TO.P,D11,2*%
%TO.N,ring_top*%
X187650000Y-130000000D03*
D13*
X189810000Y-130000000D03*
%TD*%
D11*
%TO.P,D3,1*%
%TO.N,P19*%
X144190000Y-137000000D03*
D12*
X146350000Y-137000000D03*
%TO.P,D3,2*%
%TO.N,outer_top*%
X149650000Y-137000000D03*
D13*
X151810000Y-137000000D03*
%TD*%
D10*
%TO.P,S6,1*%
%TO.N,P0*%
X163725000Y-144050000D03*
%TO.P,S6,2*%
%TO.N,pinky_home*%
X175275000Y-146250000D03*
%TD*%
D11*
%TO.P,D10,1*%
%TO.N,P16*%
X182190000Y-149000000D03*
D12*
X184350000Y-149000000D03*
%TO.P,D10,2*%
%TO.N,ring_home*%
X187650000Y-149000000D03*
D13*
X189810000Y-149000000D03*
%TD*%
D11*
%TO.P,D18,1*%
%TO.N,P16*%
X220190000Y-149000000D03*
D12*
X222350000Y-149000000D03*
%TO.P,D18,2*%
%TO.N,index_home*%
X225650000Y-149000000D03*
D13*
X227810000Y-149000000D03*
%TD*%
D15*
%TO.P,S28,1*%
%TO.N,P4*%
X252732342Y-183671778D03*
%TO.P,S28,2*%
%TO.N,double_bottom*%
X259439950Y-174015149D03*
%TD*%
D10*
%TO.P,S8,1*%
%TO.N,P0*%
X163725000Y-106050000D03*
%TO.P,S8,2*%
%TO.N,pinky_number*%
X175275000Y-108250000D03*
%TD*%
%TO.P,S12,1*%
%TO.N,P2*%
X182725000Y-100050000D03*
%TO.P,S12,2*%
%TO.N,ring_number*%
X194275000Y-102250000D03*
%TD*%
D16*
%TO.P,D28,1*%
%TO.N,P9*%
X262518060Y-188614291D03*
D17*
X263396612Y-186641033D03*
%TO.P,D28,2*%
%TO.N,double_bottom*%
X264738842Y-183626333D03*
D13*
X265617394Y-181653075D03*
%TD*%
D10*
%TO.P,S7,1*%
%TO.N,P0*%
X163725000Y-125050000D03*
%TO.P,S7,2*%
%TO.N,pinky_top*%
X175275000Y-127250000D03*
%TD*%
D11*
%TO.P,D17,1*%
%TO.N,P10*%
X220190000Y-168000000D03*
D12*
X222350000Y-168000000D03*
%TO.P,D17,2*%
%TO.N,index_bottom*%
X225650000Y-168000000D03*
D13*
X227810000Y-168000000D03*
%TD*%
D10*
%TO.P,S4,1*%
%TO.N,P1*%
X144725000Y-107050000D03*
%TO.P,S4,2*%
%TO.N,outer_number*%
X156275000Y-109250000D03*
%TD*%
%TO.P,S3,1*%
%TO.N,P1*%
X144725000Y-126050000D03*
%TO.P,S3,2*%
%TO.N,outer_top*%
X156275000Y-128250000D03*
%TD*%
D11*
%TO.P,D27,1*%
%TO.N,P9*%
X229690000Y-189000000D03*
D12*
X231850000Y-189000000D03*
%TO.P,D27,2*%
%TO.N,far_bottom*%
X235150000Y-189000000D03*
D13*
X237310000Y-189000000D03*
%TD*%
D10*
%TO.P,S26,1*%
%TO.N,P2*%
X211225000Y-176050000D03*
%TO.P,S26,2*%
%TO.N,home_bottom*%
X222775000Y-178250000D03*
%TD*%
%TO.P,S2,1*%
%TO.N,P1*%
X144725000Y-145050000D03*
%TO.P,S2,2*%
%TO.N,outer_home*%
X156275000Y-147250000D03*
%TD*%
D11*
%TO.P,D25,1*%
%TO.N,P9*%
X191690000Y-187000000D03*
D12*
X193850000Y-187000000D03*
%TO.P,D25,2*%
%TO.N,near_bottom*%
X197150000Y-187000000D03*
D13*
X199310000Y-187000000D03*
%TD*%
D10*
%TO.P,S17,1*%
%TO.N,P4*%
X220725000Y-157050000D03*
%TO.P,S17,2*%
%TO.N,index_bottom*%
X232275000Y-159250000D03*
%TD*%
D11*
%TO.P,D26,1*%
%TO.N,P9*%
X210690000Y-187000000D03*
D12*
X212850000Y-187000000D03*
%TO.P,D26,2*%
%TO.N,home_bottom*%
X216150000Y-187000000D03*
D13*
X218310000Y-187000000D03*
%TD*%
D11*
%TO.P,D9,1*%
%TO.N,P10*%
X182190000Y-168000000D03*
D12*
X184350000Y-168000000D03*
%TO.P,D9,2*%
%TO.N,ring_bottom*%
X187650000Y-168000000D03*
D13*
X189810000Y-168000000D03*
%TD*%
D10*
%TO.P,S25,1*%
%TO.N,P0*%
X192225000Y-176050000D03*
%TO.P,S25,2*%
%TO.N,near_bottom*%
X203775000Y-178250000D03*
%TD*%
%TO.P,S29,1*%
%TO.N,P20*%
X258725000Y-149550000D03*
%TO.P,S29,2*%
%TO.N,main_main*%
X270275000Y-151750000D03*
%TD*%
%TO.P,S16,1*%
%TO.N,P3*%
X201725000Y-95050000D03*
%TO.P,S16,2*%
%TO.N,middle_number*%
X213275000Y-97250000D03*
%TD*%
%TO.P,S5,1*%
%TO.N,P0*%
X163725000Y-163050000D03*
%TO.P,S5,2*%
%TO.N,pinky_bottom*%
X175275000Y-165250000D03*
%TD*%
D11*
%TO.P,D7,1*%
%TO.N,P19*%
X163190000Y-136000000D03*
D12*
X165350000Y-136000000D03*
%TO.P,D7,2*%
%TO.N,pinky_top*%
X168650000Y-136000000D03*
D13*
X170810000Y-136000000D03*
%TD*%
D10*
%TO.P,S10,1*%
%TO.N,P2*%
X182725000Y-138050000D03*
%TO.P,S10,2*%
%TO.N,ring_home*%
X194275000Y-140250000D03*
%TD*%
D11*
%TO.P,D1,1*%
%TO.N,P10*%
X144190000Y-175000000D03*
D12*
X146350000Y-175000000D03*
%TO.P,D1,2*%
%TO.N,outer_bottom*%
X149650000Y-175000000D03*
D13*
X151810000Y-175000000D03*
%TD*%
D11*
%TO.P,D19,1*%
%TO.N,P19*%
X220190000Y-130000000D03*
D12*
X222350000Y-130000000D03*
%TO.P,D19,2*%
%TO.N,index_top*%
X225650000Y-130000000D03*
D13*
X227810000Y-130000000D03*
%TD*%
D11*
%TO.P,D21,1*%
%TO.N,P10*%
X239190000Y-170000000D03*
D12*
X241350000Y-170000000D03*
%TO.P,D21,2*%
%TO.N,inner_bottom*%
X244650000Y-170000000D03*
D13*
X246810000Y-170000000D03*
%TD*%
D11*
%TO.P,D24,1*%
%TO.N,P21*%
X239190000Y-113000000D03*
D12*
X241350000Y-113000000D03*
%TO.P,D24,2*%
%TO.N,inner_number*%
X244650000Y-113000000D03*
D13*
X246810000Y-113000000D03*
%TD*%
D11*
%TO.P,D15,1*%
%TO.N,P19*%
X201190000Y-125000000D03*
D12*
X203350000Y-125000000D03*
%TO.P,D15,2*%
%TO.N,middle_top*%
X206650000Y-125000000D03*
D13*
X208810000Y-125000000D03*
%TD*%
D11*
%TO.P,D4,1*%
%TO.N,P21*%
X144190000Y-118000000D03*
D12*
X146350000Y-118000000D03*
%TO.P,D4,2*%
%TO.N,outer_number*%
X149650000Y-118000000D03*
D13*
X151810000Y-118000000D03*
%TD*%
D10*
%TO.P,S22,1*%
%TO.N,P20*%
X239725000Y-140050000D03*
%TO.P,S22,2*%
%TO.N,inner_home*%
X251275000Y-142250000D03*
%TD*%
%TO.P,S19,1*%
%TO.N,P4*%
X220725000Y-119050000D03*
%TO.P,S19,2*%
%TO.N,index_top*%
X232275000Y-121250000D03*
%TD*%
D18*
%TO.P,DISP1,1*%
%TO.N,P5*%
X261420000Y-137200000D03*
%TO.P,DISP1,2*%
%TO.N,P6*%
X263960000Y-137200000D03*
%TO.P,DISP1,3*%
%TO.N,VCC*%
X266500000Y-137200000D03*
%TO.P,DISP1,4*%
%TO.N,GND*%
X269040000Y-137200000D03*
D14*
%TO.P,DISP1,5*%
%TO.N,P7*%
X271580000Y-137200000D03*
%TD*%
D11*
%TO.P,D12,1*%
%TO.N,P21*%
X182190000Y-111000000D03*
D12*
X184350000Y-111000000D03*
%TO.P,D12,2*%
%TO.N,ring_number*%
X187650000Y-111000000D03*
D13*
X189810000Y-111000000D03*
%TD*%
D11*
%TO.P,D20,1*%
%TO.N,P21*%
X220190000Y-111000000D03*
D12*
X222350000Y-111000000D03*
%TO.P,D20,2*%
%TO.N,index_number*%
X225650000Y-111000000D03*
D13*
X227810000Y-111000000D03*
%TD*%
D11*
%TO.P,D22,1*%
%TO.N,P16*%
X239190000Y-151000000D03*
D12*
X241350000Y-151000000D03*
%TO.P,D22,2*%
%TO.N,inner_home*%
X244650000Y-151000000D03*
D13*
X246810000Y-151000000D03*
%TD*%
D10*
%TO.P,S24,1*%
%TO.N,P20*%
X239725000Y-102050000D03*
%TO.P,S24,2*%
%TO.N,inner_number*%
X251275000Y-104250000D03*
%TD*%
%TO.P,S20,1*%
%TO.N,P4*%
X220725000Y-100050000D03*
%TO.P,S20,2*%
%TO.N,index_number*%
X232275000Y-102250000D03*
%TD*%
%TO.P,S11,1*%
%TO.N,P2*%
X182725000Y-119050000D03*
%TO.P,S11,2*%
%TO.N,ring_top*%
X194275000Y-121250000D03*
%TD*%
D11*
%TO.P,D5,1*%
%TO.N,P10*%
X163190000Y-174000000D03*
D12*
X165350000Y-174000000D03*
%TO.P,D5,2*%
%TO.N,pinky_bottom*%
X168650000Y-174000000D03*
D13*
X170810000Y-174000000D03*
%TD*%
D10*
%TO.P,S1,1*%
%TO.N,P1*%
X144725000Y-164050000D03*
%TO.P,S1,2*%
%TO.N,outer_bottom*%
X156275000Y-166250000D03*
%TD*%
%TO.P,S13,1*%
%TO.N,P3*%
X201725000Y-152050000D03*
%TO.P,S13,2*%
%TO.N,middle_bottom*%
X213275000Y-154250000D03*
%TD*%
%TO.P,S15,1*%
%TO.N,P3*%
X201725000Y-114050000D03*
%TO.P,S15,2*%
%TO.N,middle_top*%
X213275000Y-116250000D03*
%TD*%
D19*
%TO.P,JST1,1*%
%TO.N,GND*%
X232000000Y-153500000D03*
D20*
%TO.P,JST1,2*%
%TO.N,pos*%
X234000000Y-153500000D03*
%TD*%
D21*
%TO.N,P1*%
X147500000Y-104500000D03*
%TO.N,P0*%
X165000000Y-104000000D03*
%TO.N,P2*%
X186000000Y-116000000D03*
%TO.N,P3*%
X204500000Y-111500000D03*
%TO.N,P4*%
X223500000Y-135000000D03*
%TD*%
D22*
%TO.N,P1*%
X144725000Y-145050000D02*
X144725000Y-153037000D01*
X142976000Y-124301000D02*
X144725000Y-126050000D01*
X144725000Y-115037000D02*
X142976000Y-116786000D01*
X142500000Y-161825000D02*
X144725000Y-164050000D01*
X142976000Y-143301000D02*
X144725000Y-145050000D01*
X144725000Y-107050000D02*
X144950000Y-107050000D01*
X144725000Y-126050000D02*
X144725000Y-134037000D01*
X144950000Y-107050000D02*
X147500000Y-104500000D01*
X144725000Y-134037000D02*
X142976000Y-135786000D01*
X144725000Y-153037000D02*
X142500000Y-155262000D01*
X142500000Y-155262000D02*
X142500000Y-161825000D01*
X144725000Y-107050000D02*
X144725000Y-115037000D01*
X142976000Y-116786000D02*
X142976000Y-124301000D01*
X142976000Y-135786000D02*
X142976000Y-143301000D01*
%TO.N,outer_bottom*%
X151810000Y-175000000D02*
X149650000Y-175000000D01*
X156275000Y-166250000D02*
X156275000Y-170535000D01*
X156275000Y-170535000D02*
X151810000Y-175000000D01*
%TO.N,outer_home*%
X151810000Y-156000000D02*
X149650000Y-156000000D01*
X156275000Y-151535000D02*
X151810000Y-156000000D01*
X156275000Y-147250000D02*
X156275000Y-151535000D01*
%TO.N,outer_top*%
X156275000Y-132535000D02*
X151810000Y-137000000D01*
X149650000Y-137000000D02*
X151810000Y-137000000D01*
X156275000Y-128250000D02*
X156275000Y-132535000D01*
%TO.N,outer_number*%
X156275000Y-113535000D02*
X151810000Y-118000000D01*
X156275000Y-109250000D02*
X156275000Y-113535000D01*
X151810000Y-118000000D02*
X149650000Y-118000000D01*
%TO.N,P0*%
X169000000Y-176050000D02*
X192225000Y-176050000D01*
X163725000Y-163050000D02*
X163725000Y-170775000D01*
X161976000Y-153786000D02*
X161976000Y-161301000D01*
X161976000Y-142301000D02*
X163725000Y-144050000D01*
X161976000Y-134786000D02*
X161976000Y-142301000D01*
X163725000Y-114037000D02*
X161976000Y-115786000D01*
X163725000Y-133037000D02*
X161976000Y-134786000D01*
X163725000Y-144050000D02*
X163725000Y-152037000D01*
X163725000Y-105275000D02*
X163725000Y-106050000D01*
X163725000Y-152037000D02*
X161976000Y-153786000D01*
X165000000Y-104000000D02*
X163725000Y-105275000D01*
X161976000Y-123301000D02*
X163725000Y-125050000D01*
X163725000Y-170775000D02*
X169000000Y-176050000D01*
X163725000Y-106050000D02*
X163725000Y-114037000D01*
X161976000Y-115786000D02*
X161976000Y-123301000D01*
X163725000Y-125050000D02*
X163725000Y-133037000D01*
X161976000Y-161301000D02*
X163725000Y-163050000D01*
%TO.N,pinky_bottom*%
X175275000Y-165250000D02*
X175275000Y-169535000D01*
X175275000Y-169535000D02*
X170810000Y-174000000D01*
X170810000Y-174000000D02*
X168650000Y-174000000D01*
%TO.N,pinky_home*%
X175275000Y-150535000D02*
X170810000Y-155000000D01*
X175275000Y-146250000D02*
X175275000Y-150535000D01*
X170810000Y-155000000D02*
X168650000Y-155000000D01*
%TO.N,pinky_top*%
X175275000Y-131535000D02*
X170810000Y-136000000D01*
X175275000Y-127250000D02*
X175275000Y-131535000D01*
X168650000Y-136000000D02*
X170810000Y-136000000D01*
%TO.N,pinky_number*%
X175275000Y-112535000D02*
X170810000Y-117000000D01*
X170810000Y-117000000D02*
X168650000Y-117000000D01*
X175275000Y-108250000D02*
X175275000Y-112535000D01*
%TO.N,P2*%
X182725000Y-119050000D02*
X182725000Y-127037000D01*
X182725000Y-108561000D02*
X181500000Y-109786000D01*
X180500000Y-135825000D02*
X182725000Y-138050000D01*
X182725000Y-127037000D02*
X180500000Y-129262000D01*
X180976000Y-155301000D02*
X182725000Y-157050000D01*
X180500000Y-129262000D02*
X180500000Y-135825000D01*
X185775000Y-116000000D02*
X186000000Y-116000000D01*
X180976000Y-109786000D02*
X180976000Y-117301000D01*
X182725000Y-157050000D02*
X182725000Y-164775000D01*
X182725000Y-138050000D02*
X182725000Y-146037000D01*
X182725000Y-100050000D02*
X182725000Y-108561000D01*
X209350000Y-174175000D02*
X211225000Y-176050000D01*
X180976000Y-147786000D02*
X180976000Y-155301000D01*
X182725000Y-146037000D02*
X180976000Y-147786000D01*
X180976000Y-117301000D02*
X182725000Y-119050000D01*
X182725000Y-119050000D02*
X185775000Y-116000000D01*
X182725000Y-164775000D02*
X192125000Y-174175000D01*
X181500000Y-109786000D02*
X180976000Y-109786000D01*
X192125000Y-174175000D02*
X209350000Y-174175000D01*
%TO.N,ring_bottom*%
X189810000Y-168000000D02*
X187650000Y-168000000D01*
X194275000Y-163535000D02*
X189810000Y-168000000D01*
X194275000Y-159250000D02*
X194275000Y-163535000D01*
%TO.N,ring_home*%
X189810000Y-149000000D02*
X187650000Y-149000000D01*
X194275000Y-140250000D02*
X194275000Y-144535000D01*
X194275000Y-144535000D02*
X189810000Y-149000000D01*
%TO.N,ring_top*%
X194275000Y-125535000D02*
X189810000Y-130000000D01*
X187650000Y-130000000D02*
X189810000Y-130000000D01*
X194275000Y-121250000D02*
X194275000Y-125535000D01*
%TO.N,ring_number*%
X194275000Y-106535000D02*
X189810000Y-111000000D01*
X194275000Y-102250000D02*
X194275000Y-106535000D01*
X189810000Y-111000000D02*
X187650000Y-111000000D01*
%TO.N,P3*%
X199976000Y-104786000D02*
X199976000Y-112301000D01*
X201725000Y-114050000D02*
X201725000Y-122037000D01*
X199976000Y-131301000D02*
X201725000Y-133050000D01*
X201725000Y-122037000D02*
X199976000Y-123786000D01*
X199976000Y-150301000D02*
X201725000Y-152050000D01*
X218325000Y-176375000D02*
X228550000Y-176375000D01*
X201725000Y-103037000D02*
X199976000Y-104786000D01*
X201725000Y-114050000D02*
X201950000Y-114050000D01*
X199976000Y-142786000D02*
X199976000Y-150301000D01*
X201725000Y-95050000D02*
X201725000Y-103037000D01*
X201725000Y-141037000D02*
X199976000Y-142786000D01*
X199976000Y-112301000D02*
X201725000Y-114050000D01*
X201950000Y-114050000D02*
X204500000Y-111500000D01*
X201725000Y-159775000D02*
X218325000Y-176375000D01*
X228550000Y-176375000D02*
X230225000Y-178050000D01*
X199976000Y-123786000D02*
X199976000Y-131301000D01*
X201725000Y-152050000D02*
X201725000Y-159775000D01*
X201725000Y-133050000D02*
X201725000Y-141037000D01*
%TO.N,middle_bottom*%
X213275000Y-158535000D02*
X208810000Y-163000000D01*
X208810000Y-163000000D02*
X206650000Y-163000000D01*
X213275000Y-154250000D02*
X213275000Y-158535000D01*
%TO.N,middle_home*%
X213275000Y-139535000D02*
X208810000Y-144000000D01*
X208810000Y-144000000D02*
X206650000Y-144000000D01*
X213275000Y-135250000D02*
X213275000Y-139535000D01*
%TO.N,middle_top*%
X213275000Y-116250000D02*
X213275000Y-120535000D01*
X213275000Y-120535000D02*
X208810000Y-125000000D01*
X206650000Y-125000000D02*
X208810000Y-125000000D01*
%TO.N,middle_number*%
X208810000Y-106000000D02*
X206650000Y-106000000D01*
X213275000Y-101535000D02*
X208810000Y-106000000D01*
X213275000Y-97250000D02*
X213275000Y-101535000D01*
%TO.N,P4*%
X232125000Y-176175000D02*
X245235564Y-176175000D01*
X220725000Y-157050000D02*
X220725000Y-164775000D01*
X220725000Y-119050000D02*
X220725000Y-127037000D01*
X245235564Y-176175000D02*
X252732342Y-183671778D01*
X220725000Y-100050000D02*
X220725000Y-108037000D01*
X218976000Y-128786000D02*
X218976000Y-136301000D01*
X218976000Y-155301000D02*
X220725000Y-157050000D01*
X218976000Y-147786000D02*
X218976000Y-155301000D01*
X220725000Y-108037000D02*
X218500000Y-110262000D01*
X220725000Y-138050000D02*
X220725000Y-137775000D01*
X220725000Y-138050000D02*
X220725000Y-146037000D01*
X220725000Y-164775000D02*
X232125000Y-176175000D01*
X218500000Y-110262000D02*
X218500000Y-116825000D01*
X220725000Y-137775000D02*
X223500000Y-135000000D01*
X220725000Y-146037000D02*
X218976000Y-147786000D01*
X218976000Y-136301000D02*
X220725000Y-138050000D01*
X218500000Y-116825000D02*
X220725000Y-119050000D01*
X220725000Y-127037000D02*
X218976000Y-128786000D01*
%TO.N,index_bottom*%
X232275000Y-159250000D02*
X232275000Y-163535000D01*
X232275000Y-163535000D02*
X227810000Y-168000000D01*
X227810000Y-168000000D02*
X225650000Y-168000000D01*
%TO.N,index_home*%
X227810000Y-149000000D02*
X225650000Y-149000000D01*
X232275000Y-140250000D02*
X232275000Y-144535000D01*
X232275000Y-144535000D02*
X227810000Y-149000000D01*
%TO.N,index_top*%
X225650000Y-130000000D02*
X227810000Y-130000000D01*
X232275000Y-121250000D02*
X232275000Y-125535000D01*
X232275000Y-125535000D02*
X227810000Y-130000000D01*
%TO.N,index_number*%
X232275000Y-102250000D02*
X232275000Y-106535000D01*
X227810000Y-111000000D02*
X225650000Y-111000000D01*
X232275000Y-106535000D02*
X227810000Y-111000000D01*
%TO.N,P20*%
X239725000Y-148037000D02*
X237500000Y-150262000D01*
X239725000Y-159050000D02*
X246497500Y-152277500D01*
X255997500Y-152277500D02*
X258725000Y-149550000D01*
X239725000Y-110037000D02*
X237976000Y-111786000D01*
X237500000Y-150262000D02*
X237500000Y-156825000D01*
X246497500Y-152277500D02*
X255997500Y-152277500D01*
X237500000Y-156825000D02*
X239725000Y-159050000D01*
X239725000Y-129037000D02*
X237976000Y-130786000D01*
X237976000Y-111786000D02*
X237976000Y-119301000D01*
X237976000Y-138301000D02*
X239725000Y-140050000D01*
X239725000Y-121050000D02*
X239725000Y-129037000D01*
X237976000Y-130786000D02*
X237976000Y-138301000D01*
X239725000Y-140050000D02*
X239725000Y-148037000D01*
X243275000Y-117500000D02*
X258880000Y-117500000D01*
X239725000Y-121050000D02*
X243275000Y-117500000D01*
X239725000Y-102050000D02*
X239725000Y-110037000D01*
X237976000Y-119301000D02*
X239725000Y-121050000D01*
%TO.N,inner_bottom*%
X246810000Y-170000000D02*
X244650000Y-170000000D01*
X251275000Y-161250000D02*
X251275000Y-165535000D01*
X251275000Y-165535000D02*
X246810000Y-170000000D01*
%TO.N,inner_home*%
X251275000Y-146535000D02*
X246810000Y-151000000D01*
X246810000Y-151000000D02*
X244650000Y-151000000D01*
X251275000Y-142250000D02*
X251275000Y-146535000D01*
%TO.N,inner_top*%
X251275000Y-127535000D02*
X246810000Y-132000000D01*
X244650000Y-132000000D02*
X246810000Y-132000000D01*
X251275000Y-123250000D02*
X251275000Y-127535000D01*
%TO.N,inner_number*%
X251275000Y-104250000D02*
X251275000Y-108535000D01*
X251275000Y-108535000D02*
X246810000Y-113000000D01*
X246810000Y-113000000D02*
X244650000Y-113000000D01*
%TO.N,near_bottom*%
X197150000Y-187000000D02*
X199310000Y-187000000D01*
X203775000Y-178250000D02*
X203775000Y-182535000D01*
X203775000Y-182535000D02*
X199310000Y-187000000D01*
%TO.N,home_bottom*%
X216150000Y-187000000D02*
X218310000Y-187000000D01*
X222775000Y-182535000D02*
X218310000Y-187000000D01*
X222775000Y-178250000D02*
X222775000Y-182535000D01*
%TO.N,far_bottom*%
X241775000Y-180250000D02*
X241775000Y-184535000D01*
X235150000Y-189000000D02*
X237310000Y-189000000D01*
X241775000Y-184535000D02*
X237310000Y-189000000D01*
%TO.N,double_bottom*%
X259439950Y-174015149D02*
X265617394Y-180192593D01*
X265617394Y-181653075D02*
X265617394Y-182747781D01*
X265617394Y-182747781D02*
X264738842Y-183626333D01*
X265617394Y-180192593D02*
X265617394Y-181653075D01*
%TO.N,main_main*%
X270275000Y-156035000D02*
X265810000Y-160500000D01*
X270275000Y-151750000D02*
X270275000Y-156035000D01*
X265810000Y-160500000D02*
X263650000Y-160500000D01*
%TO.N,GND*%
X238350000Y-160925000D02*
X243776650Y-160925000D01*
X269040000Y-137200000D02*
X269040000Y-117500000D01*
X260055000Y-106165000D02*
X270405000Y-106165000D01*
X232000000Y-154575000D02*
X238350000Y-160925000D01*
X251974150Y-152727500D02*
X261772500Y-152727500D01*
X261772500Y-152727500D02*
X268500000Y-146000000D01*
X232000000Y-153500000D02*
X232000000Y-154575000D01*
X258880000Y-107340000D02*
X260055000Y-106165000D01*
D23*
X274120000Y-112420000D02*
X274120000Y-109880000D01*
D22*
X269040000Y-117500000D02*
X274120000Y-112420000D01*
X268500000Y-137740000D02*
X269040000Y-137200000D01*
X243776650Y-160925000D02*
X251974150Y-152727500D01*
X270405000Y-106165000D02*
X274120000Y-109880000D01*
X268500000Y-146000000D02*
X268500000Y-137740000D01*
%TO.N,VCC*%
X266500000Y-120040000D02*
X258880000Y-112420000D01*
X266500000Y-137200000D02*
X266500000Y-120040000D01*
%TO.N,P21*%
X203350000Y-106000000D02*
X201190000Y-106000000D01*
X184350000Y-111000000D02*
X182190000Y-111000000D01*
X165350000Y-117000000D02*
X163190000Y-117000000D01*
X222350000Y-111000000D02*
X220190000Y-111000000D01*
X146350000Y-118000000D02*
X144190000Y-118000000D01*
X241350000Y-113000000D02*
X239190000Y-113000000D01*
%TO.N,P19*%
X144190000Y-137000000D02*
X146350000Y-137000000D01*
X182190000Y-130000000D02*
X184350000Y-130000000D01*
X239190000Y-132000000D02*
X241350000Y-132000000D01*
X201190000Y-125000000D02*
X203350000Y-125000000D01*
X163190000Y-136000000D02*
X165350000Y-136000000D01*
X220190000Y-130000000D02*
X222350000Y-130000000D01*
%TO.N,P16*%
X165350000Y-155000000D02*
X163190000Y-155000000D01*
X222350000Y-149000000D02*
X220190000Y-149000000D01*
X241350000Y-151000000D02*
X239190000Y-151000000D01*
X203350000Y-144000000D02*
X201190000Y-144000000D01*
X184350000Y-149000000D02*
X182190000Y-149000000D01*
X146350000Y-156000000D02*
X144190000Y-156000000D01*
%TO.N,P10*%
X146350000Y-175000000D02*
X144190000Y-175000000D01*
X222350000Y-168000000D02*
X220190000Y-168000000D01*
X203350000Y-163000000D02*
X201190000Y-163000000D01*
X184350000Y-168000000D02*
X182190000Y-168000000D01*
X165350000Y-174000000D02*
X163190000Y-174000000D01*
X241350000Y-170000000D02*
X239190000Y-170000000D01*
%TO.N,P9*%
X262518060Y-188614291D02*
X262518060Y-187519585D01*
X262518060Y-187519585D02*
X263396612Y-186641033D01*
X260350000Y-160500000D02*
X258190000Y-160500000D01*
X191690000Y-187000000D02*
X193850000Y-187000000D01*
X210690000Y-187000000D02*
X212850000Y-187000000D01*
X229690000Y-189000000D02*
X231850000Y-189000000D01*
%TD*%
M02*
