%TF.GenerationSoftware,KiCad,Pcbnew,8.0.6*%
%TF.CreationDate,2024-12-22T09:15:40+01:00*%
%TF.ProjectId,left_finished,6c656674-5f66-4696-9e69-736865642e6b,0.1*%
%TF.SameCoordinates,Original*%
%TF.FileFunction,Paste,Bot*%
%TF.FilePolarity,Positive*%
%FSLAX46Y46*%
G04 Gerber Fmt 4.6, Leading zero omitted, Abs format (unit mm)*
G04 Created by KiCad (PCBNEW 8.0.6) date 2024-12-22 09:15:40*
%MOMM*%
%LPD*%
G01*
G04 APERTURE LIST*
G04 Aperture macros list*
%AMRotRect*
0 Rectangle, with rotation*
0 The origin of the aperture is its center*
0 $1 length*
0 $2 width*
0 $3 Rotation angle, in degrees counterclockwise*
0 Add horizontal line*
21,1,$1,$2,0,0,$3*%
G04 Aperture macros list end*
%ADD10R,2.550000X2.500000*%
%ADD11R,1.200000X0.900000*%
%ADD12R,1.400000X1.000000*%
%ADD13RotRect,0.900000X1.200000X156.000000*%
%ADD14RotRect,1.400000X1.000000X246.000000*%
%ADD15RotRect,2.550000X2.500000X66.000000*%
G04 APERTURE END LIST*
D10*
%TO.C,S22*%
X235915000Y-143460000D03*
X248842000Y-140920000D03*
%TD*%
D11*
%TO.C,D12*%
X193500000Y-109150000D03*
X193500000Y-105850000D03*
%TD*%
D10*
%TO.C,S20*%
X216915000Y-103460000D03*
X229842000Y-100920000D03*
%TD*%
D11*
%TO.C,D8*%
X174500000Y-115150000D03*
X174500000Y-111850000D03*
%TD*%
D10*
%TO.C,S11*%
X178915000Y-122460000D03*
X191842000Y-119920000D03*
%TD*%
D11*
%TO.C,D9*%
X193500000Y-166150000D03*
X193500000Y-162850000D03*
%TD*%
%TO.C,D13*%
X212500000Y-161150000D03*
X212500000Y-157850000D03*
%TD*%
D12*
%TO.C,LED12*%
X183300000Y-110050000D03*
X183300000Y-111450000D03*
X188700000Y-111450000D03*
X188700000Y-110050000D03*
%TD*%
D11*
%TO.C,D22*%
X250500000Y-149150000D03*
X250500000Y-145850000D03*
%TD*%
D10*
%TO.C,S13*%
X197915000Y-155460000D03*
X210842000Y-152920000D03*
%TD*%
%TO.C,S10*%
X178915000Y-141460000D03*
X191842000Y-138920000D03*
%TD*%
D12*
%TO.C,LED27*%
X230800000Y-188050000D03*
X230800000Y-189450000D03*
X236200000Y-189450000D03*
X236200000Y-188050000D03*
%TD*%
%TO.C,LED25*%
X192800000Y-186050000D03*
X192800000Y-187450000D03*
X198200000Y-187450000D03*
X198200000Y-186050000D03*
%TD*%
%TO.C,LED22*%
X240300000Y-150050000D03*
X240300000Y-151450000D03*
X245700000Y-151450000D03*
X245700000Y-150050000D03*
%TD*%
D10*
%TO.C,S2*%
X140915000Y-148460000D03*
X153842000Y-145920000D03*
%TD*%
D12*
%TO.C,LED18*%
X221300000Y-148050000D03*
X221300000Y-149450000D03*
X226700000Y-149450000D03*
X226700000Y-148050000D03*
%TD*%
%TO.C,LED3*%
X145300000Y-136050000D03*
X145300000Y-137450000D03*
X150700000Y-137450000D03*
X150700000Y-136050000D03*
%TD*%
%TO.C,LED13*%
X202300000Y-162050000D03*
X202300000Y-163450000D03*
X207700000Y-163450000D03*
X207700000Y-162050000D03*
%TD*%
%TO.C,LED19*%
X221300000Y-129050000D03*
X221300000Y-130450000D03*
X226700000Y-130450000D03*
X226700000Y-129050000D03*
%TD*%
D10*
%TO.C,S25*%
X188415000Y-179460000D03*
X201342000Y-176920000D03*
%TD*%
D12*
%TO.C,LED24*%
X240300000Y-112050000D03*
X240300000Y-113450000D03*
X245700000Y-113450000D03*
X245700000Y-112050000D03*
%TD*%
D11*
%TO.C,D18*%
X231500000Y-147150000D03*
X231500000Y-143850000D03*
%TD*%
D10*
%TO.C,S9*%
X178915000Y-160460000D03*
X191842000Y-157920000D03*
%TD*%
D13*
%TO.C,D28*%
X265428193Y-177529629D03*
X262413493Y-176187399D03*
%TD*%
D10*
%TO.C,S5*%
X159915000Y-166460000D03*
X172842000Y-163920000D03*
%TD*%
D12*
%TO.C,LED14*%
X202300000Y-143050000D03*
X202300000Y-144450000D03*
X207700000Y-144450000D03*
X207700000Y-143050000D03*
%TD*%
D10*
%TO.C,S27*%
X226415000Y-181460000D03*
X239342000Y-178920000D03*
%TD*%
%TO.C,S23*%
X235915000Y-124460000D03*
X248842000Y-121920000D03*
%TD*%
%TO.C,S18*%
X216915000Y-141460000D03*
X229842000Y-138920000D03*
%TD*%
D12*
%TO.C,LED23*%
X240300000Y-131050000D03*
X240300000Y-132450000D03*
X245700000Y-132450000D03*
X245700000Y-131050000D03*
%TD*%
%TO.C,LED20*%
X221300000Y-110050000D03*
X221300000Y-111450000D03*
X226700000Y-111450000D03*
X226700000Y-110050000D03*
%TD*%
%TO.C,LED11*%
X183300000Y-129050000D03*
X183300000Y-130450000D03*
X188700000Y-130450000D03*
X188700000Y-129050000D03*
%TD*%
D10*
%TO.C,S6*%
X159915000Y-147460000D03*
X172842000Y-144920000D03*
%TD*%
%TO.C,S14*%
X197915000Y-136460000D03*
X210842000Y-133920000D03*
%TD*%
%TO.C,S16*%
X197915000Y-98460000D03*
X210842000Y-95920000D03*
%TD*%
D11*
%TO.C,D15*%
X212500000Y-123150000D03*
X212500000Y-119850000D03*
%TD*%
D10*
%TO.C,S24*%
X235915000Y-105460000D03*
X248842000Y-102920000D03*
%TD*%
D11*
%TO.C,D27*%
X241000000Y-187150000D03*
X241000000Y-183850000D03*
%TD*%
D10*
%TO.C,S1*%
X140915000Y-167460000D03*
X153842000Y-164920000D03*
%TD*%
D11*
%TO.C,D29*%
X269500000Y-158650000D03*
X269500000Y-155350000D03*
%TD*%
%TO.C,D21*%
X250500000Y-168150000D03*
X250500000Y-164850000D03*
%TD*%
D12*
%TO.C,LED6*%
X164300000Y-154050000D03*
X164300000Y-155450000D03*
X169700000Y-155450000D03*
X169700000Y-154050000D03*
%TD*%
D10*
%TO.C,S17*%
X216915000Y-160460000D03*
X229842000Y-157920000D03*
%TD*%
D12*
%TO.C,LED9*%
X183300000Y-167050000D03*
X183300000Y-168450000D03*
X188700000Y-168450000D03*
X188700000Y-167050000D03*
%TD*%
D14*
%TO.C,LED28*%
X262101670Y-187213856D03*
X263380634Y-187783287D03*
X265577012Y-182850142D03*
X264298048Y-182280711D03*
%TD*%
D12*
%TO.C,LED21*%
X240300000Y-169050000D03*
X240300000Y-170450000D03*
X245700000Y-170450000D03*
X245700000Y-169050000D03*
%TD*%
D11*
%TO.C,D17*%
X231500000Y-166150000D03*
X231500000Y-162850000D03*
%TD*%
D12*
%TO.C,LED1*%
X145300000Y-174050000D03*
X145300000Y-175450000D03*
X150700000Y-175450000D03*
X150700000Y-174050000D03*
%TD*%
%TO.C,LED4*%
X145300000Y-117050000D03*
X145300000Y-118450000D03*
X150700000Y-118450000D03*
X150700000Y-117050000D03*
%TD*%
%TO.C,LED16*%
X202300000Y-105050000D03*
X202300000Y-106450000D03*
X207700000Y-106450000D03*
X207700000Y-105050000D03*
%TD*%
D11*
%TO.C,D26*%
X222000000Y-185150000D03*
X222000000Y-181850000D03*
%TD*%
D12*
%TO.C,LED15*%
X202300000Y-124050000D03*
X202300000Y-125450000D03*
X207700000Y-125450000D03*
X207700000Y-124050000D03*
%TD*%
%TO.C,LED8*%
X164300000Y-116050000D03*
X164300000Y-117450000D03*
X169700000Y-117450000D03*
X169700000Y-116050000D03*
%TD*%
D11*
%TO.C,D24*%
X250500000Y-111150000D03*
X250500000Y-107850000D03*
%TD*%
D12*
%TO.C,LED26*%
X211800000Y-186050000D03*
X211800000Y-187450000D03*
X217200000Y-187450000D03*
X217200000Y-186050000D03*
%TD*%
D10*
%TO.C,S21*%
X235915000Y-162460000D03*
X248842000Y-159920000D03*
%TD*%
D12*
%TO.C,LED10*%
X183300000Y-148050000D03*
X183300000Y-149450000D03*
X188700000Y-149450000D03*
X188700000Y-148050000D03*
%TD*%
D11*
%TO.C,D23*%
X250500000Y-130150000D03*
X250500000Y-126850000D03*
%TD*%
%TO.C,D1*%
X155500000Y-173150000D03*
X155500000Y-169850000D03*
%TD*%
%TO.C,D16*%
X212500000Y-104150000D03*
X212500000Y-100850000D03*
%TD*%
D10*
%TO.C,S3*%
X140915000Y-129460000D03*
X153842000Y-126920000D03*
%TD*%
D11*
%TO.C,D10*%
X193500000Y-147150000D03*
X193500000Y-143850000D03*
%TD*%
%TO.C,D2*%
X155500000Y-154150000D03*
X155500000Y-150850000D03*
%TD*%
%TO.C,D5*%
X174500000Y-172150000D03*
X174500000Y-168850000D03*
%TD*%
D10*
%TO.C,S19*%
X216915000Y-122460000D03*
X229842000Y-119920000D03*
%TD*%
D12*
%TO.C,LED17*%
X221300000Y-167050000D03*
X221300000Y-168450000D03*
X226700000Y-168450000D03*
X226700000Y-167050000D03*
%TD*%
D11*
%TO.C,D11*%
X193500000Y-128150000D03*
X193500000Y-124850000D03*
%TD*%
D12*
%TO.C,LED5*%
X164300000Y-173050000D03*
X164300000Y-174450000D03*
X169700000Y-174450000D03*
X169700000Y-173050000D03*
%TD*%
D11*
%TO.C,D6*%
X174500000Y-153150000D03*
X174500000Y-149850000D03*
%TD*%
%TO.C,D19*%
X231500000Y-128150000D03*
X231500000Y-124850000D03*
%TD*%
D12*
%TO.C,LED29*%
X259300000Y-159550000D03*
X259300000Y-160950000D03*
X264700000Y-160950000D03*
X264700000Y-159550000D03*
%TD*%
D10*
%TO.C,S4*%
X140915000Y-110460000D03*
X153842000Y-107920000D03*
%TD*%
%TO.C,S29*%
X254915000Y-152960000D03*
X267842000Y-150420000D03*
%TD*%
D15*
%TO.C,S28*%
X254297865Y-188539358D03*
X257235345Y-175696845D03*
%TD*%
D10*
%TO.C,S15*%
X197915000Y-117460000D03*
X210842000Y-114920000D03*
%TD*%
%TO.C,S26*%
X207415000Y-179460000D03*
X220342000Y-176920000D03*
%TD*%
D11*
%TO.C,D3*%
X155500000Y-135150000D03*
X155500000Y-131850000D03*
%TD*%
D10*
%TO.C,S7*%
X159915000Y-128460000D03*
X172842000Y-125920000D03*
%TD*%
D11*
%TO.C,D20*%
X231500000Y-109150000D03*
X231500000Y-105850000D03*
%TD*%
D12*
%TO.C,LED7*%
X164300000Y-135050000D03*
X164300000Y-136450000D03*
X169700000Y-136450000D03*
X169700000Y-135050000D03*
%TD*%
D10*
%TO.C,S8*%
X159915000Y-109460000D03*
X172842000Y-106920000D03*
%TD*%
%TO.C,S12*%
X178915000Y-103460000D03*
X191842000Y-100920000D03*
%TD*%
D12*
%TO.C,LED2*%
X145300000Y-155050000D03*
X145300000Y-156450000D03*
X150700000Y-156450000D03*
X150700000Y-155050000D03*
%TD*%
D11*
%TO.C,D25*%
X203000000Y-185150000D03*
X203000000Y-181850000D03*
%TD*%
%TO.C,D4*%
X155500000Y-116150000D03*
X155500000Y-112850000D03*
%TD*%
%TO.C,D7*%
X174500000Y-134150000D03*
X174500000Y-130850000D03*
%TD*%
%TO.C,D14*%
X212500000Y-142150000D03*
X212500000Y-138850000D03*
%TD*%
M02*
