M48
; DRILL file {KiCad 8.0.6} date 2024-12-27T20:41:00+0100
; FORMAT={-:-/ absolute / inch / decimal}
; #@! TF.CreationDate,2024-12-27T20:41:00+01:00
; #@! TF.GenerationSoftware,Kicad,Pcbnew,8.0.6
; #@! TF.FileFunction,Plated,1,2,PTH
FMAT,2
INCH
; #@! TA.AperFunction,Plated,PTH,ViaDrill
T1C0.0118
; #@! TA.AperFunction,Plated,PTH,ComponentDrill
T2C0.0295
; #@! TA.AperFunction,Plated,PTH,ComponentDrill
T3C0.0394
%
G90
G05
T1
X5.6496Y-4.6083
X5.6496Y-5.3563
X5.6496Y-6.1043
X5.6496Y-6.8524
X5.8465Y-7.0079
X6.122Y-4.626
X6.122Y-5.374
X6.122Y-6.122
X6.122Y-6.8701
X6.3583Y-4.1535
X6.3799Y-6.8681
X6.752Y-4.624
X6.752Y-5.372
X6.752Y-6.1201
X6.752Y-6.8681
X6.7913Y-4.5079
X6.8701Y-4.5866
X6.8701Y-5.3346
X6.8701Y-6.0827
X6.8701Y-6.8307
X7.0866Y-4.4685
X7.1063Y-3.9567
X7.1457Y-4.3327
X7.1457Y-5.0807
X7.1457Y-5.8287
X7.1457Y-6.5768
X7.4409Y-6.7717
X7.5197Y-7.3248
X7.6181Y-4.3504
X7.6181Y-5.0984
X7.6181Y-5.8465
X7.6181Y-6.5945
X7.6378Y-6.9685
X7.7919Y-4.4685
X7.9921Y-7.3425
X8.1299Y-6.6142
X8.248Y-4.1909
X8.248Y-4.939
X8.248Y-5.687
X8.248Y-6.435
X8.3661Y-4.1535
X8.3661Y-4.9016
X8.3661Y-5.6496
X8.3661Y-6.3976
X8.4055Y-6.9488
X8.54Y-4.6457
X8.622Y-7.3799
X8.6417Y-4.3327
X8.6417Y-5.0807
X8.6417Y-5.8287
X8.6417Y-6.5768
X8.7402Y-7.3425
X8.937Y-6.8504
X9.0157Y-7.4035
X9.1142Y-4.3504
X9.1142Y-5.0984
X9.1142Y-5.8465
X9.1142Y-6.5945
X9.1339Y-7.0472
X9.288Y-4.626
X9.4882Y-6.1024
X9.4882Y-7.4213
X9.5669Y-6.1811
X9.7441Y-4.4665
X9.7441Y-5.2146
X9.7441Y-5.9626
X9.7441Y-6.7106
X9.8622Y-4.4291
X9.8622Y-5.1772
X9.8622Y-5.9252
X9.8622Y-6.6732
X10.1378Y-6.2815
X10.4846Y-7.1341
X10.4921Y-4.4291
X10.4985Y-7.011
X10.6102Y-6.2992
T2
X9.25Y-5.4488
X9.3287Y-5.4488
T3
X10.1921Y-4.126
X10.1921Y-4.226
X10.1921Y-4.326
X10.1921Y-4.426
X10.1921Y-4.526
X10.1921Y-4.626
X10.1921Y-4.726
X10.1921Y-4.826
X10.1921Y-4.926
X10.1921Y-5.026
X10.1921Y-5.126
X10.1921Y-5.226
X10.2921Y-5.4016
X10.3921Y-5.4016
X10.4921Y-5.4016
X10.5921Y-5.4016
X10.6921Y-5.4016
X10.7921Y-4.126
X10.7921Y-4.226
X10.7921Y-4.326
X10.7921Y-4.426
X10.7921Y-4.526
X10.7921Y-4.626
X10.7921Y-4.726
X10.7921Y-4.826
X10.7921Y-4.926
X10.7921Y-5.026
X10.7921Y-5.126
X10.7921Y-5.226
M30
