%TF.GenerationSoftware,KiCad,Pcbnew,8.0.6*%
%TF.CreationDate,2024-12-22T09:15:40+01:00*%
%TF.ProjectId,left_finished,6c656674-5f66-4696-9e69-736865642e6b,0.1*%
%TF.SameCoordinates,Original*%
%TF.FileFunction,Legend,Top*%
%TF.FilePolarity,Positive*%
%FSLAX46Y46*%
G04 Gerber Fmt 4.6, Leading zero omitted, Abs format (unit mm)*
G04 Created by KiCad (PCBNEW 8.0.6) date 2024-12-22 09:15:40*
%MOMM*%
%LPD*%
G01*
G04 APERTURE LIST*
%ADD10C,0.150000*%
%ADD11C,0.120000*%
%ADD12C,0.100000*%
G04 APERTURE END LIST*
D10*
X267428572Y-109380057D02*
X266000000Y-109380057D01*
X266000000Y-109380057D02*
X266000000Y-106380057D01*
X279780057Y-131042857D02*
X276780057Y-131042857D01*
X276780057Y-131042857D02*
X276780057Y-130328571D01*
X276780057Y-130328571D02*
X276922914Y-129900000D01*
X276922914Y-129900000D02*
X277208628Y-129614285D01*
X277208628Y-129614285D02*
X277494342Y-129471428D01*
X277494342Y-129471428D02*
X278065771Y-129328571D01*
X278065771Y-129328571D02*
X278494342Y-129328571D01*
X278494342Y-129328571D02*
X279065771Y-129471428D01*
X279065771Y-129471428D02*
X279351485Y-129614285D01*
X279351485Y-129614285D02*
X279637200Y-129900000D01*
X279637200Y-129900000D02*
X279780057Y-130328571D01*
X279780057Y-130328571D02*
X279780057Y-131042857D01*
X278208628Y-128042857D02*
X278208628Y-127042857D01*
X279780057Y-126614285D02*
X279780057Y-128042857D01*
X279780057Y-128042857D02*
X276780057Y-128042857D01*
X276780057Y-128042857D02*
X276780057Y-126614285D01*
X277880952Y-112454819D02*
X278071428Y-112454819D01*
X278071428Y-112454819D02*
X278166666Y-112502438D01*
X278166666Y-112502438D02*
X278261904Y-112597676D01*
X278261904Y-112597676D02*
X278309523Y-112788152D01*
X278309523Y-112788152D02*
X278309523Y-113121485D01*
X278309523Y-113121485D02*
X278261904Y-113311961D01*
X278261904Y-113311961D02*
X278166666Y-113407200D01*
X278166666Y-113407200D02*
X278071428Y-113454819D01*
X278071428Y-113454819D02*
X277880952Y-113454819D01*
X277880952Y-113454819D02*
X277785714Y-113407200D01*
X277785714Y-113407200D02*
X277690476Y-113311961D01*
X277690476Y-113311961D02*
X277642857Y-113121485D01*
X277642857Y-113121485D02*
X277642857Y-112788152D01*
X277642857Y-112788152D02*
X277690476Y-112597676D01*
X277690476Y-112597676D02*
X277785714Y-112502438D01*
X277785714Y-112502438D02*
X277880952Y-112454819D01*
X278738095Y-113454819D02*
X278738095Y-112454819D01*
X278738095Y-112454819D02*
X279309523Y-113454819D01*
X279309523Y-113454819D02*
X279309523Y-112454819D01*
X277547619Y-122454819D02*
X277738095Y-122454819D01*
X277738095Y-122454819D02*
X277833333Y-122502438D01*
X277833333Y-122502438D02*
X277928571Y-122597676D01*
X277928571Y-122597676D02*
X277976190Y-122788152D01*
X277976190Y-122788152D02*
X277976190Y-123121485D01*
X277976190Y-123121485D02*
X277928571Y-123311961D01*
X277928571Y-123311961D02*
X277833333Y-123407200D01*
X277833333Y-123407200D02*
X277738095Y-123454819D01*
X277738095Y-123454819D02*
X277547619Y-123454819D01*
X277547619Y-123454819D02*
X277452381Y-123407200D01*
X277452381Y-123407200D02*
X277357143Y-123311961D01*
X277357143Y-123311961D02*
X277309524Y-123121485D01*
X277309524Y-123121485D02*
X277309524Y-122788152D01*
X277309524Y-122788152D02*
X277357143Y-122597676D01*
X277357143Y-122597676D02*
X277452381Y-122502438D01*
X277452381Y-122502438D02*
X277547619Y-122454819D01*
X278738095Y-122931009D02*
X278404762Y-122931009D01*
X278404762Y-123454819D02*
X278404762Y-122454819D01*
X278404762Y-122454819D02*
X278880952Y-122454819D01*
X279595238Y-122931009D02*
X279261905Y-122931009D01*
X279261905Y-123454819D02*
X279261905Y-122454819D01*
X279261905Y-122454819D02*
X279738095Y-122454819D01*
X270231905Y-130654819D02*
X270231905Y-129654819D01*
X270231905Y-129654819D02*
X270612857Y-129654819D01*
X270612857Y-129654819D02*
X270708095Y-129702438D01*
X270708095Y-129702438D02*
X270755714Y-129750057D01*
X270755714Y-129750057D02*
X270803333Y-129845295D01*
X270803333Y-129845295D02*
X270803333Y-129988152D01*
X270803333Y-129988152D02*
X270755714Y-130083390D01*
X270755714Y-130083390D02*
X270708095Y-130131009D01*
X270708095Y-130131009D02*
X270612857Y-130178628D01*
X270612857Y-130178628D02*
X270231905Y-130178628D01*
X271374762Y-130083390D02*
X271279524Y-130035771D01*
X271279524Y-130035771D02*
X271231905Y-129988152D01*
X271231905Y-129988152D02*
X271184286Y-129892914D01*
X271184286Y-129892914D02*
X271184286Y-129845295D01*
X271184286Y-129845295D02*
X271231905Y-129750057D01*
X271231905Y-129750057D02*
X271279524Y-129702438D01*
X271279524Y-129702438D02*
X271374762Y-129654819D01*
X271374762Y-129654819D02*
X271565238Y-129654819D01*
X271565238Y-129654819D02*
X271660476Y-129702438D01*
X271660476Y-129702438D02*
X271708095Y-129750057D01*
X271708095Y-129750057D02*
X271755714Y-129845295D01*
X271755714Y-129845295D02*
X271755714Y-129892914D01*
X271755714Y-129892914D02*
X271708095Y-129988152D01*
X271708095Y-129988152D02*
X271660476Y-130035771D01*
X271660476Y-130035771D02*
X271565238Y-130083390D01*
X271565238Y-130083390D02*
X271374762Y-130083390D01*
X271374762Y-130083390D02*
X271279524Y-130131009D01*
X271279524Y-130131009D02*
X271231905Y-130178628D01*
X271231905Y-130178628D02*
X271184286Y-130273866D01*
X271184286Y-130273866D02*
X271184286Y-130464342D01*
X271184286Y-130464342D02*
X271231905Y-130559580D01*
X271231905Y-130559580D02*
X271279524Y-130607200D01*
X271279524Y-130607200D02*
X271374762Y-130654819D01*
X271374762Y-130654819D02*
X271565238Y-130654819D01*
X271565238Y-130654819D02*
X271660476Y-130607200D01*
X271660476Y-130607200D02*
X271708095Y-130559580D01*
X271708095Y-130559580D02*
X271755714Y-130464342D01*
X271755714Y-130464342D02*
X271755714Y-130273866D01*
X271755714Y-130273866D02*
X271708095Y-130178628D01*
X271708095Y-130178628D02*
X271660476Y-130131009D01*
X271660476Y-130131009D02*
X271565238Y-130083390D01*
X270231905Y-125574819D02*
X270231905Y-124574819D01*
X270231905Y-124574819D02*
X270612857Y-124574819D01*
X270612857Y-124574819D02*
X270708095Y-124622438D01*
X270708095Y-124622438D02*
X270755714Y-124670057D01*
X270755714Y-124670057D02*
X270803333Y-124765295D01*
X270803333Y-124765295D02*
X270803333Y-124908152D01*
X270803333Y-124908152D02*
X270755714Y-125003390D01*
X270755714Y-125003390D02*
X270708095Y-125051009D01*
X270708095Y-125051009D02*
X270612857Y-125098628D01*
X270612857Y-125098628D02*
X270231905Y-125098628D01*
X271660476Y-124574819D02*
X271470000Y-124574819D01*
X271470000Y-124574819D02*
X271374762Y-124622438D01*
X271374762Y-124622438D02*
X271327143Y-124670057D01*
X271327143Y-124670057D02*
X271231905Y-124812914D01*
X271231905Y-124812914D02*
X271184286Y-125003390D01*
X271184286Y-125003390D02*
X271184286Y-125384342D01*
X271184286Y-125384342D02*
X271231905Y-125479580D01*
X271231905Y-125479580D02*
X271279524Y-125527200D01*
X271279524Y-125527200D02*
X271374762Y-125574819D01*
X271374762Y-125574819D02*
X271565238Y-125574819D01*
X271565238Y-125574819D02*
X271660476Y-125527200D01*
X271660476Y-125527200D02*
X271708095Y-125479580D01*
X271708095Y-125479580D02*
X271755714Y-125384342D01*
X271755714Y-125384342D02*
X271755714Y-125146247D01*
X271755714Y-125146247D02*
X271708095Y-125051009D01*
X271708095Y-125051009D02*
X271660476Y-125003390D01*
X271660476Y-125003390D02*
X271565238Y-124955771D01*
X271565238Y-124955771D02*
X271374762Y-124955771D01*
X271374762Y-124955771D02*
X271279524Y-125003390D01*
X271279524Y-125003390D02*
X271231905Y-125051009D01*
X271231905Y-125051009D02*
X271184286Y-125146247D01*
X270231905Y-128114819D02*
X270231905Y-127114819D01*
X270231905Y-127114819D02*
X270612857Y-127114819D01*
X270612857Y-127114819D02*
X270708095Y-127162438D01*
X270708095Y-127162438D02*
X270755714Y-127210057D01*
X270755714Y-127210057D02*
X270803333Y-127305295D01*
X270803333Y-127305295D02*
X270803333Y-127448152D01*
X270803333Y-127448152D02*
X270755714Y-127543390D01*
X270755714Y-127543390D02*
X270708095Y-127591009D01*
X270708095Y-127591009D02*
X270612857Y-127638628D01*
X270612857Y-127638628D02*
X270231905Y-127638628D01*
X271136667Y-127114819D02*
X271803333Y-127114819D01*
X271803333Y-127114819D02*
X271374762Y-128114819D01*
X270231905Y-115414819D02*
X270231905Y-114414819D01*
X270231905Y-114414819D02*
X270612857Y-114414819D01*
X270612857Y-114414819D02*
X270708095Y-114462438D01*
X270708095Y-114462438D02*
X270755714Y-114510057D01*
X270755714Y-114510057D02*
X270803333Y-114605295D01*
X270803333Y-114605295D02*
X270803333Y-114748152D01*
X270803333Y-114748152D02*
X270755714Y-114843390D01*
X270755714Y-114843390D02*
X270708095Y-114891009D01*
X270708095Y-114891009D02*
X270612857Y-114938628D01*
X270612857Y-114938628D02*
X270231905Y-114938628D01*
X271184286Y-114510057D02*
X271231905Y-114462438D01*
X271231905Y-114462438D02*
X271327143Y-114414819D01*
X271327143Y-114414819D02*
X271565238Y-114414819D01*
X271565238Y-114414819D02*
X271660476Y-114462438D01*
X271660476Y-114462438D02*
X271708095Y-114510057D01*
X271708095Y-114510057D02*
X271755714Y-114605295D01*
X271755714Y-114605295D02*
X271755714Y-114700533D01*
X271755714Y-114700533D02*
X271708095Y-114843390D01*
X271708095Y-114843390D02*
X271136667Y-115414819D01*
X271136667Y-115414819D02*
X271755714Y-115414819D01*
X261482380Y-110334819D02*
X261149047Y-109858628D01*
X260910952Y-110334819D02*
X260910952Y-109334819D01*
X260910952Y-109334819D02*
X261291904Y-109334819D01*
X261291904Y-109334819D02*
X261387142Y-109382438D01*
X261387142Y-109382438D02*
X261434761Y-109430057D01*
X261434761Y-109430057D02*
X261482380Y-109525295D01*
X261482380Y-109525295D02*
X261482380Y-109668152D01*
X261482380Y-109668152D02*
X261434761Y-109763390D01*
X261434761Y-109763390D02*
X261387142Y-109811009D01*
X261387142Y-109811009D02*
X261291904Y-109858628D01*
X261291904Y-109858628D02*
X260910952Y-109858628D01*
X261863333Y-110287200D02*
X262006190Y-110334819D01*
X262006190Y-110334819D02*
X262244285Y-110334819D01*
X262244285Y-110334819D02*
X262339523Y-110287200D01*
X262339523Y-110287200D02*
X262387142Y-110239580D01*
X262387142Y-110239580D02*
X262434761Y-110144342D01*
X262434761Y-110144342D02*
X262434761Y-110049104D01*
X262434761Y-110049104D02*
X262387142Y-109953866D01*
X262387142Y-109953866D02*
X262339523Y-109906247D01*
X262339523Y-109906247D02*
X262244285Y-109858628D01*
X262244285Y-109858628D02*
X262053809Y-109811009D01*
X262053809Y-109811009D02*
X261958571Y-109763390D01*
X261958571Y-109763390D02*
X261910952Y-109715771D01*
X261910952Y-109715771D02*
X261863333Y-109620533D01*
X261863333Y-109620533D02*
X261863333Y-109525295D01*
X261863333Y-109525295D02*
X261910952Y-109430057D01*
X261910952Y-109430057D02*
X261958571Y-109382438D01*
X261958571Y-109382438D02*
X262053809Y-109334819D01*
X262053809Y-109334819D02*
X262291904Y-109334819D01*
X262291904Y-109334819D02*
X262434761Y-109382438D01*
X262720476Y-109334819D02*
X263291904Y-109334819D01*
X263006190Y-110334819D02*
X263006190Y-109334819D01*
X270231905Y-105254819D02*
X270231905Y-104254819D01*
X270231905Y-104254819D02*
X270612857Y-104254819D01*
X270612857Y-104254819D02*
X270708095Y-104302438D01*
X270708095Y-104302438D02*
X270755714Y-104350057D01*
X270755714Y-104350057D02*
X270803333Y-104445295D01*
X270803333Y-104445295D02*
X270803333Y-104588152D01*
X270803333Y-104588152D02*
X270755714Y-104683390D01*
X270755714Y-104683390D02*
X270708095Y-104731009D01*
X270708095Y-104731009D02*
X270612857Y-104778628D01*
X270612857Y-104778628D02*
X270231905Y-104778628D01*
X271755714Y-105254819D02*
X271184286Y-105254819D01*
X271470000Y-105254819D02*
X271470000Y-104254819D01*
X271470000Y-104254819D02*
X271374762Y-104397676D01*
X271374762Y-104397676D02*
X271279524Y-104492914D01*
X271279524Y-104492914D02*
X271184286Y-104540533D01*
X260815714Y-123034819D02*
X260815714Y-122034819D01*
X260815714Y-122034819D02*
X261196666Y-122034819D01*
X261196666Y-122034819D02*
X261291904Y-122082438D01*
X261291904Y-122082438D02*
X261339523Y-122130057D01*
X261339523Y-122130057D02*
X261387142Y-122225295D01*
X261387142Y-122225295D02*
X261387142Y-122368152D01*
X261387142Y-122368152D02*
X261339523Y-122463390D01*
X261339523Y-122463390D02*
X261291904Y-122511009D01*
X261291904Y-122511009D02*
X261196666Y-122558628D01*
X261196666Y-122558628D02*
X260815714Y-122558628D01*
X262339523Y-123034819D02*
X261768095Y-123034819D01*
X262053809Y-123034819D02*
X262053809Y-122034819D01*
X262053809Y-122034819D02*
X261958571Y-122177676D01*
X261958571Y-122177676D02*
X261863333Y-122272914D01*
X261863333Y-122272914D02*
X261768095Y-122320533D01*
X262910952Y-122463390D02*
X262815714Y-122415771D01*
X262815714Y-122415771D02*
X262768095Y-122368152D01*
X262768095Y-122368152D02*
X262720476Y-122272914D01*
X262720476Y-122272914D02*
X262720476Y-122225295D01*
X262720476Y-122225295D02*
X262768095Y-122130057D01*
X262768095Y-122130057D02*
X262815714Y-122082438D01*
X262815714Y-122082438D02*
X262910952Y-122034819D01*
X262910952Y-122034819D02*
X263101428Y-122034819D01*
X263101428Y-122034819D02*
X263196666Y-122082438D01*
X263196666Y-122082438D02*
X263244285Y-122130057D01*
X263244285Y-122130057D02*
X263291904Y-122225295D01*
X263291904Y-122225295D02*
X263291904Y-122272914D01*
X263291904Y-122272914D02*
X263244285Y-122368152D01*
X263244285Y-122368152D02*
X263196666Y-122415771D01*
X263196666Y-122415771D02*
X263101428Y-122463390D01*
X263101428Y-122463390D02*
X262910952Y-122463390D01*
X262910952Y-122463390D02*
X262815714Y-122511009D01*
X262815714Y-122511009D02*
X262768095Y-122558628D01*
X262768095Y-122558628D02*
X262720476Y-122653866D01*
X262720476Y-122653866D02*
X262720476Y-122844342D01*
X262720476Y-122844342D02*
X262768095Y-122939580D01*
X262768095Y-122939580D02*
X262815714Y-122987200D01*
X262815714Y-122987200D02*
X262910952Y-123034819D01*
X262910952Y-123034819D02*
X263101428Y-123034819D01*
X263101428Y-123034819D02*
X263196666Y-122987200D01*
X263196666Y-122987200D02*
X263244285Y-122939580D01*
X263244285Y-122939580D02*
X263291904Y-122844342D01*
X263291904Y-122844342D02*
X263291904Y-122653866D01*
X263291904Y-122653866D02*
X263244285Y-122558628D01*
X263244285Y-122558628D02*
X263196666Y-122511009D01*
X263196666Y-122511009D02*
X263101428Y-122463390D01*
X270231905Y-107794819D02*
X270231905Y-106794819D01*
X270231905Y-106794819D02*
X270612857Y-106794819D01*
X270612857Y-106794819D02*
X270708095Y-106842438D01*
X270708095Y-106842438D02*
X270755714Y-106890057D01*
X270755714Y-106890057D02*
X270803333Y-106985295D01*
X270803333Y-106985295D02*
X270803333Y-107128152D01*
X270803333Y-107128152D02*
X270755714Y-107223390D01*
X270755714Y-107223390D02*
X270708095Y-107271009D01*
X270708095Y-107271009D02*
X270612857Y-107318628D01*
X270612857Y-107318628D02*
X270231905Y-107318628D01*
X271422381Y-106794819D02*
X271517619Y-106794819D01*
X271517619Y-106794819D02*
X271612857Y-106842438D01*
X271612857Y-106842438D02*
X271660476Y-106890057D01*
X271660476Y-106890057D02*
X271708095Y-106985295D01*
X271708095Y-106985295D02*
X271755714Y-107175771D01*
X271755714Y-107175771D02*
X271755714Y-107413866D01*
X271755714Y-107413866D02*
X271708095Y-107604342D01*
X271708095Y-107604342D02*
X271660476Y-107699580D01*
X271660476Y-107699580D02*
X271612857Y-107747200D01*
X271612857Y-107747200D02*
X271517619Y-107794819D01*
X271517619Y-107794819D02*
X271422381Y-107794819D01*
X271422381Y-107794819D02*
X271327143Y-107747200D01*
X271327143Y-107747200D02*
X271279524Y-107699580D01*
X271279524Y-107699580D02*
X271231905Y-107604342D01*
X271231905Y-107604342D02*
X271184286Y-107413866D01*
X271184286Y-107413866D02*
X271184286Y-107175771D01*
X271184286Y-107175771D02*
X271231905Y-106985295D01*
X271231905Y-106985295D02*
X271279524Y-106890057D01*
X271279524Y-106890057D02*
X271327143Y-106842438D01*
X271327143Y-106842438D02*
X271422381Y-106794819D01*
X260815714Y-115414819D02*
X260815714Y-114414819D01*
X260815714Y-114414819D02*
X261196666Y-114414819D01*
X261196666Y-114414819D02*
X261291904Y-114462438D01*
X261291904Y-114462438D02*
X261339523Y-114510057D01*
X261339523Y-114510057D02*
X261387142Y-114605295D01*
X261387142Y-114605295D02*
X261387142Y-114748152D01*
X261387142Y-114748152D02*
X261339523Y-114843390D01*
X261339523Y-114843390D02*
X261291904Y-114891009D01*
X261291904Y-114891009D02*
X261196666Y-114938628D01*
X261196666Y-114938628D02*
X260815714Y-114938628D01*
X261768095Y-114510057D02*
X261815714Y-114462438D01*
X261815714Y-114462438D02*
X261910952Y-114414819D01*
X261910952Y-114414819D02*
X262149047Y-114414819D01*
X262149047Y-114414819D02*
X262244285Y-114462438D01*
X262244285Y-114462438D02*
X262291904Y-114510057D01*
X262291904Y-114510057D02*
X262339523Y-114605295D01*
X262339523Y-114605295D02*
X262339523Y-114700533D01*
X262339523Y-114700533D02*
X262291904Y-114843390D01*
X262291904Y-114843390D02*
X261720476Y-115414819D01*
X261720476Y-115414819D02*
X262339523Y-115414819D01*
X263291904Y-115414819D02*
X262720476Y-115414819D01*
X263006190Y-115414819D02*
X263006190Y-114414819D01*
X263006190Y-114414819D02*
X262910952Y-114557676D01*
X262910952Y-114557676D02*
X262815714Y-114652914D01*
X262815714Y-114652914D02*
X262720476Y-114700533D01*
X270231905Y-120494819D02*
X270231905Y-119494819D01*
X270231905Y-119494819D02*
X270612857Y-119494819D01*
X270612857Y-119494819D02*
X270708095Y-119542438D01*
X270708095Y-119542438D02*
X270755714Y-119590057D01*
X270755714Y-119590057D02*
X270803333Y-119685295D01*
X270803333Y-119685295D02*
X270803333Y-119828152D01*
X270803333Y-119828152D02*
X270755714Y-119923390D01*
X270755714Y-119923390D02*
X270708095Y-119971009D01*
X270708095Y-119971009D02*
X270612857Y-120018628D01*
X270612857Y-120018628D02*
X270231905Y-120018628D01*
X271660476Y-119828152D02*
X271660476Y-120494819D01*
X271422381Y-119447200D02*
X271184286Y-120161485D01*
X271184286Y-120161485D02*
X271803333Y-120161485D01*
X260815714Y-133194819D02*
X260815714Y-132194819D01*
X260815714Y-132194819D02*
X261196666Y-132194819D01*
X261196666Y-132194819D02*
X261291904Y-132242438D01*
X261291904Y-132242438D02*
X261339523Y-132290057D01*
X261339523Y-132290057D02*
X261387142Y-132385295D01*
X261387142Y-132385295D02*
X261387142Y-132528152D01*
X261387142Y-132528152D02*
X261339523Y-132623390D01*
X261339523Y-132623390D02*
X261291904Y-132671009D01*
X261291904Y-132671009D02*
X261196666Y-132718628D01*
X261196666Y-132718628D02*
X260815714Y-132718628D01*
X262339523Y-133194819D02*
X261768095Y-133194819D01*
X262053809Y-133194819D02*
X262053809Y-132194819D01*
X262053809Y-132194819D02*
X261958571Y-132337676D01*
X261958571Y-132337676D02*
X261863333Y-132432914D01*
X261863333Y-132432914D02*
X261768095Y-132480533D01*
X262958571Y-132194819D02*
X263053809Y-132194819D01*
X263053809Y-132194819D02*
X263149047Y-132242438D01*
X263149047Y-132242438D02*
X263196666Y-132290057D01*
X263196666Y-132290057D02*
X263244285Y-132385295D01*
X263244285Y-132385295D02*
X263291904Y-132575771D01*
X263291904Y-132575771D02*
X263291904Y-132813866D01*
X263291904Y-132813866D02*
X263244285Y-133004342D01*
X263244285Y-133004342D02*
X263196666Y-133099580D01*
X263196666Y-133099580D02*
X263149047Y-133147200D01*
X263149047Y-133147200D02*
X263053809Y-133194819D01*
X263053809Y-133194819D02*
X262958571Y-133194819D01*
X262958571Y-133194819D02*
X262863333Y-133147200D01*
X262863333Y-133147200D02*
X262815714Y-133099580D01*
X262815714Y-133099580D02*
X262768095Y-133004342D01*
X262768095Y-133004342D02*
X262720476Y-132813866D01*
X262720476Y-132813866D02*
X262720476Y-132575771D01*
X262720476Y-132575771D02*
X262768095Y-132385295D01*
X262768095Y-132385295D02*
X262815714Y-132290057D01*
X262815714Y-132290057D02*
X262863333Y-132242438D01*
X262863333Y-132242438D02*
X262958571Y-132194819D01*
X270231905Y-123034819D02*
X270231905Y-122034819D01*
X270231905Y-122034819D02*
X270612857Y-122034819D01*
X270612857Y-122034819D02*
X270708095Y-122082438D01*
X270708095Y-122082438D02*
X270755714Y-122130057D01*
X270755714Y-122130057D02*
X270803333Y-122225295D01*
X270803333Y-122225295D02*
X270803333Y-122368152D01*
X270803333Y-122368152D02*
X270755714Y-122463390D01*
X270755714Y-122463390D02*
X270708095Y-122511009D01*
X270708095Y-122511009D02*
X270612857Y-122558628D01*
X270612857Y-122558628D02*
X270231905Y-122558628D01*
X271708095Y-122034819D02*
X271231905Y-122034819D01*
X271231905Y-122034819D02*
X271184286Y-122511009D01*
X271184286Y-122511009D02*
X271231905Y-122463390D01*
X271231905Y-122463390D02*
X271327143Y-122415771D01*
X271327143Y-122415771D02*
X271565238Y-122415771D01*
X271565238Y-122415771D02*
X271660476Y-122463390D01*
X271660476Y-122463390D02*
X271708095Y-122511009D01*
X271708095Y-122511009D02*
X271755714Y-122606247D01*
X271755714Y-122606247D02*
X271755714Y-122844342D01*
X271755714Y-122844342D02*
X271708095Y-122939580D01*
X271708095Y-122939580D02*
X271660476Y-122987200D01*
X271660476Y-122987200D02*
X271565238Y-123034819D01*
X271565238Y-123034819D02*
X271327143Y-123034819D01*
X271327143Y-123034819D02*
X271231905Y-122987200D01*
X271231905Y-122987200D02*
X271184286Y-122939580D01*
X260815714Y-120494819D02*
X260815714Y-119494819D01*
X260815714Y-119494819D02*
X261196666Y-119494819D01*
X261196666Y-119494819D02*
X261291904Y-119542438D01*
X261291904Y-119542438D02*
X261339523Y-119590057D01*
X261339523Y-119590057D02*
X261387142Y-119685295D01*
X261387142Y-119685295D02*
X261387142Y-119828152D01*
X261387142Y-119828152D02*
X261339523Y-119923390D01*
X261339523Y-119923390D02*
X261291904Y-119971009D01*
X261291904Y-119971009D02*
X261196666Y-120018628D01*
X261196666Y-120018628D02*
X260815714Y-120018628D01*
X262339523Y-120494819D02*
X261768095Y-120494819D01*
X262053809Y-120494819D02*
X262053809Y-119494819D01*
X262053809Y-119494819D02*
X261958571Y-119637676D01*
X261958571Y-119637676D02*
X261863333Y-119732914D01*
X261863333Y-119732914D02*
X261768095Y-119780533D01*
X262815714Y-120494819D02*
X263006190Y-120494819D01*
X263006190Y-120494819D02*
X263101428Y-120447200D01*
X263101428Y-120447200D02*
X263149047Y-120399580D01*
X263149047Y-120399580D02*
X263244285Y-120256723D01*
X263244285Y-120256723D02*
X263291904Y-120066247D01*
X263291904Y-120066247D02*
X263291904Y-119685295D01*
X263291904Y-119685295D02*
X263244285Y-119590057D01*
X263244285Y-119590057D02*
X263196666Y-119542438D01*
X263196666Y-119542438D02*
X263101428Y-119494819D01*
X263101428Y-119494819D02*
X262910952Y-119494819D01*
X262910952Y-119494819D02*
X262815714Y-119542438D01*
X262815714Y-119542438D02*
X262768095Y-119590057D01*
X262768095Y-119590057D02*
X262720476Y-119685295D01*
X262720476Y-119685295D02*
X262720476Y-119923390D01*
X262720476Y-119923390D02*
X262768095Y-120018628D01*
X262768095Y-120018628D02*
X262815714Y-120066247D01*
X262815714Y-120066247D02*
X262910952Y-120113866D01*
X262910952Y-120113866D02*
X263101428Y-120113866D01*
X263101428Y-120113866D02*
X263196666Y-120066247D01*
X263196666Y-120066247D02*
X263244285Y-120018628D01*
X263244285Y-120018628D02*
X263291904Y-119923390D01*
X260815714Y-130654819D02*
X260815714Y-129654819D01*
X260815714Y-129654819D02*
X261196666Y-129654819D01*
X261196666Y-129654819D02*
X261291904Y-129702438D01*
X261291904Y-129702438D02*
X261339523Y-129750057D01*
X261339523Y-129750057D02*
X261387142Y-129845295D01*
X261387142Y-129845295D02*
X261387142Y-129988152D01*
X261387142Y-129988152D02*
X261339523Y-130083390D01*
X261339523Y-130083390D02*
X261291904Y-130131009D01*
X261291904Y-130131009D02*
X261196666Y-130178628D01*
X261196666Y-130178628D02*
X260815714Y-130178628D01*
X262339523Y-130654819D02*
X261768095Y-130654819D01*
X262053809Y-130654819D02*
X262053809Y-129654819D01*
X262053809Y-129654819D02*
X261958571Y-129797676D01*
X261958571Y-129797676D02*
X261863333Y-129892914D01*
X261863333Y-129892914D02*
X261768095Y-129940533D01*
X263196666Y-129654819D02*
X263006190Y-129654819D01*
X263006190Y-129654819D02*
X262910952Y-129702438D01*
X262910952Y-129702438D02*
X262863333Y-129750057D01*
X262863333Y-129750057D02*
X262768095Y-129892914D01*
X262768095Y-129892914D02*
X262720476Y-130083390D01*
X262720476Y-130083390D02*
X262720476Y-130464342D01*
X262720476Y-130464342D02*
X262768095Y-130559580D01*
X262768095Y-130559580D02*
X262815714Y-130607200D01*
X262815714Y-130607200D02*
X262910952Y-130654819D01*
X262910952Y-130654819D02*
X263101428Y-130654819D01*
X263101428Y-130654819D02*
X263196666Y-130607200D01*
X263196666Y-130607200D02*
X263244285Y-130559580D01*
X263244285Y-130559580D02*
X263291904Y-130464342D01*
X263291904Y-130464342D02*
X263291904Y-130226247D01*
X263291904Y-130226247D02*
X263244285Y-130131009D01*
X263244285Y-130131009D02*
X263196666Y-130083390D01*
X263196666Y-130083390D02*
X263101428Y-130035771D01*
X263101428Y-130035771D02*
X262910952Y-130035771D01*
X262910952Y-130035771D02*
X262815714Y-130083390D01*
X262815714Y-130083390D02*
X262768095Y-130131009D01*
X262768095Y-130131009D02*
X262720476Y-130226247D01*
X270231905Y-117954819D02*
X270231905Y-116954819D01*
X270231905Y-116954819D02*
X270612857Y-116954819D01*
X270612857Y-116954819D02*
X270708095Y-117002438D01*
X270708095Y-117002438D02*
X270755714Y-117050057D01*
X270755714Y-117050057D02*
X270803333Y-117145295D01*
X270803333Y-117145295D02*
X270803333Y-117288152D01*
X270803333Y-117288152D02*
X270755714Y-117383390D01*
X270755714Y-117383390D02*
X270708095Y-117431009D01*
X270708095Y-117431009D02*
X270612857Y-117478628D01*
X270612857Y-117478628D02*
X270231905Y-117478628D01*
X271136667Y-116954819D02*
X271755714Y-116954819D01*
X271755714Y-116954819D02*
X271422381Y-117335771D01*
X271422381Y-117335771D02*
X271565238Y-117335771D01*
X271565238Y-117335771D02*
X271660476Y-117383390D01*
X271660476Y-117383390D02*
X271708095Y-117431009D01*
X271708095Y-117431009D02*
X271755714Y-117526247D01*
X271755714Y-117526247D02*
X271755714Y-117764342D01*
X271755714Y-117764342D02*
X271708095Y-117859580D01*
X271708095Y-117859580D02*
X271660476Y-117907200D01*
X271660476Y-117907200D02*
X271565238Y-117954819D01*
X271565238Y-117954819D02*
X271279524Y-117954819D01*
X271279524Y-117954819D02*
X271184286Y-117907200D01*
X271184286Y-117907200D02*
X271136667Y-117859580D01*
X270208095Y-109382438D02*
X270112857Y-109334819D01*
X270112857Y-109334819D02*
X269970000Y-109334819D01*
X269970000Y-109334819D02*
X269827143Y-109382438D01*
X269827143Y-109382438D02*
X269731905Y-109477676D01*
X269731905Y-109477676D02*
X269684286Y-109572914D01*
X269684286Y-109572914D02*
X269636667Y-109763390D01*
X269636667Y-109763390D02*
X269636667Y-109906247D01*
X269636667Y-109906247D02*
X269684286Y-110096723D01*
X269684286Y-110096723D02*
X269731905Y-110191961D01*
X269731905Y-110191961D02*
X269827143Y-110287200D01*
X269827143Y-110287200D02*
X269970000Y-110334819D01*
X269970000Y-110334819D02*
X270065238Y-110334819D01*
X270065238Y-110334819D02*
X270208095Y-110287200D01*
X270208095Y-110287200D02*
X270255714Y-110239580D01*
X270255714Y-110239580D02*
X270255714Y-109906247D01*
X270255714Y-109906247D02*
X270065238Y-109906247D01*
X270684286Y-110334819D02*
X270684286Y-109334819D01*
X270684286Y-109334819D02*
X271255714Y-110334819D01*
X271255714Y-110334819D02*
X271255714Y-109334819D01*
X271731905Y-110334819D02*
X271731905Y-109334819D01*
X271731905Y-109334819D02*
X271970000Y-109334819D01*
X271970000Y-109334819D02*
X272112857Y-109382438D01*
X272112857Y-109382438D02*
X272208095Y-109477676D01*
X272208095Y-109477676D02*
X272255714Y-109572914D01*
X272255714Y-109572914D02*
X272303333Y-109763390D01*
X272303333Y-109763390D02*
X272303333Y-109906247D01*
X272303333Y-109906247D02*
X272255714Y-110096723D01*
X272255714Y-110096723D02*
X272208095Y-110191961D01*
X272208095Y-110191961D02*
X272112857Y-110287200D01*
X272112857Y-110287200D02*
X271970000Y-110334819D01*
X271970000Y-110334819D02*
X271731905Y-110334819D01*
X270208095Y-111922438D02*
X270112857Y-111874819D01*
X270112857Y-111874819D02*
X269970000Y-111874819D01*
X269970000Y-111874819D02*
X269827143Y-111922438D01*
X269827143Y-111922438D02*
X269731905Y-112017676D01*
X269731905Y-112017676D02*
X269684286Y-112112914D01*
X269684286Y-112112914D02*
X269636667Y-112303390D01*
X269636667Y-112303390D02*
X269636667Y-112446247D01*
X269636667Y-112446247D02*
X269684286Y-112636723D01*
X269684286Y-112636723D02*
X269731905Y-112731961D01*
X269731905Y-112731961D02*
X269827143Y-112827200D01*
X269827143Y-112827200D02*
X269970000Y-112874819D01*
X269970000Y-112874819D02*
X270065238Y-112874819D01*
X270065238Y-112874819D02*
X270208095Y-112827200D01*
X270208095Y-112827200D02*
X270255714Y-112779580D01*
X270255714Y-112779580D02*
X270255714Y-112446247D01*
X270255714Y-112446247D02*
X270065238Y-112446247D01*
X270684286Y-112874819D02*
X270684286Y-111874819D01*
X270684286Y-111874819D02*
X271255714Y-112874819D01*
X271255714Y-112874819D02*
X271255714Y-111874819D01*
X271731905Y-112874819D02*
X271731905Y-111874819D01*
X271731905Y-111874819D02*
X271970000Y-111874819D01*
X271970000Y-111874819D02*
X272112857Y-111922438D01*
X272112857Y-111922438D02*
X272208095Y-112017676D01*
X272208095Y-112017676D02*
X272255714Y-112112914D01*
X272255714Y-112112914D02*
X272303333Y-112303390D01*
X272303333Y-112303390D02*
X272303333Y-112446247D01*
X272303333Y-112446247D02*
X272255714Y-112636723D01*
X272255714Y-112636723D02*
X272208095Y-112731961D01*
X272208095Y-112731961D02*
X272112857Y-112827200D01*
X272112857Y-112827200D02*
X271970000Y-112874819D01*
X271970000Y-112874819D02*
X271731905Y-112874819D01*
X260529999Y-125574819D02*
X260053809Y-125574819D01*
X260053809Y-125574819D02*
X260053809Y-124574819D01*
X260863333Y-125051009D02*
X261196666Y-125051009D01*
X261339523Y-125574819D02*
X260863333Y-125574819D01*
X260863333Y-125574819D02*
X260863333Y-124574819D01*
X260863333Y-124574819D02*
X261339523Y-124574819D01*
X261768095Y-125574819D02*
X261768095Y-124574819D01*
X261768095Y-124574819D02*
X262006190Y-124574819D01*
X262006190Y-124574819D02*
X262149047Y-124622438D01*
X262149047Y-124622438D02*
X262244285Y-124717676D01*
X262244285Y-124717676D02*
X262291904Y-124812914D01*
X262291904Y-124812914D02*
X262339523Y-125003390D01*
X262339523Y-125003390D02*
X262339523Y-125146247D01*
X262339523Y-125146247D02*
X262291904Y-125336723D01*
X262291904Y-125336723D02*
X262244285Y-125431961D01*
X262244285Y-125431961D02*
X262149047Y-125527200D01*
X262149047Y-125527200D02*
X262006190Y-125574819D01*
X262006190Y-125574819D02*
X261768095Y-125574819D01*
X262530000Y-125670057D02*
X263291904Y-125670057D01*
X263720476Y-124574819D02*
X263815714Y-124574819D01*
X263815714Y-124574819D02*
X263910952Y-124622438D01*
X263910952Y-124622438D02*
X263958571Y-124670057D01*
X263958571Y-124670057D02*
X264006190Y-124765295D01*
X264006190Y-124765295D02*
X264053809Y-124955771D01*
X264053809Y-124955771D02*
X264053809Y-125193866D01*
X264053809Y-125193866D02*
X264006190Y-125384342D01*
X264006190Y-125384342D02*
X263958571Y-125479580D01*
X263958571Y-125479580D02*
X263910952Y-125527200D01*
X263910952Y-125527200D02*
X263815714Y-125574819D01*
X263815714Y-125574819D02*
X263720476Y-125574819D01*
X263720476Y-125574819D02*
X263625238Y-125527200D01*
X263625238Y-125527200D02*
X263577619Y-125479580D01*
X263577619Y-125479580D02*
X263530000Y-125384342D01*
X263530000Y-125384342D02*
X263482381Y-125193866D01*
X263482381Y-125193866D02*
X263482381Y-124955771D01*
X263482381Y-124955771D02*
X263530000Y-124765295D01*
X263530000Y-124765295D02*
X263577619Y-124670057D01*
X263577619Y-124670057D02*
X263625238Y-124622438D01*
X263625238Y-124622438D02*
X263720476Y-124574819D01*
X261268095Y-106842438D02*
X261172857Y-106794819D01*
X261172857Y-106794819D02*
X261030000Y-106794819D01*
X261030000Y-106794819D02*
X260887143Y-106842438D01*
X260887143Y-106842438D02*
X260791905Y-106937676D01*
X260791905Y-106937676D02*
X260744286Y-107032914D01*
X260744286Y-107032914D02*
X260696667Y-107223390D01*
X260696667Y-107223390D02*
X260696667Y-107366247D01*
X260696667Y-107366247D02*
X260744286Y-107556723D01*
X260744286Y-107556723D02*
X260791905Y-107651961D01*
X260791905Y-107651961D02*
X260887143Y-107747200D01*
X260887143Y-107747200D02*
X261030000Y-107794819D01*
X261030000Y-107794819D02*
X261125238Y-107794819D01*
X261125238Y-107794819D02*
X261268095Y-107747200D01*
X261268095Y-107747200D02*
X261315714Y-107699580D01*
X261315714Y-107699580D02*
X261315714Y-107366247D01*
X261315714Y-107366247D02*
X261125238Y-107366247D01*
X261744286Y-107794819D02*
X261744286Y-106794819D01*
X261744286Y-106794819D02*
X262315714Y-107794819D01*
X262315714Y-107794819D02*
X262315714Y-106794819D01*
X262791905Y-107794819D02*
X262791905Y-106794819D01*
X262791905Y-106794819D02*
X263030000Y-106794819D01*
X263030000Y-106794819D02*
X263172857Y-106842438D01*
X263172857Y-106842438D02*
X263268095Y-106937676D01*
X263268095Y-106937676D02*
X263315714Y-107032914D01*
X263315714Y-107032914D02*
X263363333Y-107223390D01*
X263363333Y-107223390D02*
X263363333Y-107366247D01*
X263363333Y-107366247D02*
X263315714Y-107556723D01*
X263315714Y-107556723D02*
X263268095Y-107651961D01*
X263268095Y-107651961D02*
X263172857Y-107747200D01*
X263172857Y-107747200D02*
X263030000Y-107794819D01*
X263030000Y-107794819D02*
X262791905Y-107794819D01*
X260815714Y-128114819D02*
X260815714Y-127114819D01*
X260815714Y-127114819D02*
X261196666Y-127114819D01*
X261196666Y-127114819D02*
X261291904Y-127162438D01*
X261291904Y-127162438D02*
X261339523Y-127210057D01*
X261339523Y-127210057D02*
X261387142Y-127305295D01*
X261387142Y-127305295D02*
X261387142Y-127448152D01*
X261387142Y-127448152D02*
X261339523Y-127543390D01*
X261339523Y-127543390D02*
X261291904Y-127591009D01*
X261291904Y-127591009D02*
X261196666Y-127638628D01*
X261196666Y-127638628D02*
X260815714Y-127638628D01*
X262339523Y-128114819D02*
X261768095Y-128114819D01*
X262053809Y-128114819D02*
X262053809Y-127114819D01*
X262053809Y-127114819D02*
X261958571Y-127257676D01*
X261958571Y-127257676D02*
X261863333Y-127352914D01*
X261863333Y-127352914D02*
X261768095Y-127400533D01*
X263196666Y-127448152D02*
X263196666Y-128114819D01*
X262958571Y-127067200D02*
X262720476Y-127781485D01*
X262720476Y-127781485D02*
X263339523Y-127781485D01*
X260815714Y-117954819D02*
X260815714Y-116954819D01*
X260815714Y-116954819D02*
X261196666Y-116954819D01*
X261196666Y-116954819D02*
X261291904Y-117002438D01*
X261291904Y-117002438D02*
X261339523Y-117050057D01*
X261339523Y-117050057D02*
X261387142Y-117145295D01*
X261387142Y-117145295D02*
X261387142Y-117288152D01*
X261387142Y-117288152D02*
X261339523Y-117383390D01*
X261339523Y-117383390D02*
X261291904Y-117431009D01*
X261291904Y-117431009D02*
X261196666Y-117478628D01*
X261196666Y-117478628D02*
X260815714Y-117478628D01*
X261768095Y-117050057D02*
X261815714Y-117002438D01*
X261815714Y-117002438D02*
X261910952Y-116954819D01*
X261910952Y-116954819D02*
X262149047Y-116954819D01*
X262149047Y-116954819D02*
X262244285Y-117002438D01*
X262244285Y-117002438D02*
X262291904Y-117050057D01*
X262291904Y-117050057D02*
X262339523Y-117145295D01*
X262339523Y-117145295D02*
X262339523Y-117240533D01*
X262339523Y-117240533D02*
X262291904Y-117383390D01*
X262291904Y-117383390D02*
X261720476Y-117954819D01*
X261720476Y-117954819D02*
X262339523Y-117954819D01*
X262958571Y-116954819D02*
X263053809Y-116954819D01*
X263053809Y-116954819D02*
X263149047Y-117002438D01*
X263149047Y-117002438D02*
X263196666Y-117050057D01*
X263196666Y-117050057D02*
X263244285Y-117145295D01*
X263244285Y-117145295D02*
X263291904Y-117335771D01*
X263291904Y-117335771D02*
X263291904Y-117573866D01*
X263291904Y-117573866D02*
X263244285Y-117764342D01*
X263244285Y-117764342D02*
X263196666Y-117859580D01*
X263196666Y-117859580D02*
X263149047Y-117907200D01*
X263149047Y-117907200D02*
X263053809Y-117954819D01*
X263053809Y-117954819D02*
X262958571Y-117954819D01*
X262958571Y-117954819D02*
X262863333Y-117907200D01*
X262863333Y-117907200D02*
X262815714Y-117859580D01*
X262815714Y-117859580D02*
X262768095Y-117764342D01*
X262768095Y-117764342D02*
X262720476Y-117573866D01*
X262720476Y-117573866D02*
X262720476Y-117335771D01*
X262720476Y-117335771D02*
X262768095Y-117145295D01*
X262768095Y-117145295D02*
X262815714Y-117050057D01*
X262815714Y-117050057D02*
X262863333Y-117002438D01*
X262863333Y-117002438D02*
X262958571Y-116954819D01*
X270231905Y-133194819D02*
X270231905Y-132194819D01*
X270231905Y-132194819D02*
X270612857Y-132194819D01*
X270612857Y-132194819D02*
X270708095Y-132242438D01*
X270708095Y-132242438D02*
X270755714Y-132290057D01*
X270755714Y-132290057D02*
X270803333Y-132385295D01*
X270803333Y-132385295D02*
X270803333Y-132528152D01*
X270803333Y-132528152D02*
X270755714Y-132623390D01*
X270755714Y-132623390D02*
X270708095Y-132671009D01*
X270708095Y-132671009D02*
X270612857Y-132718628D01*
X270612857Y-132718628D02*
X270231905Y-132718628D01*
X271279524Y-133194819D02*
X271470000Y-133194819D01*
X271470000Y-133194819D02*
X271565238Y-133147200D01*
X271565238Y-133147200D02*
X271612857Y-133099580D01*
X271612857Y-133099580D02*
X271708095Y-132956723D01*
X271708095Y-132956723D02*
X271755714Y-132766247D01*
X271755714Y-132766247D02*
X271755714Y-132385295D01*
X271755714Y-132385295D02*
X271708095Y-132290057D01*
X271708095Y-132290057D02*
X271660476Y-132242438D01*
X271660476Y-132242438D02*
X271565238Y-132194819D01*
X271565238Y-132194819D02*
X271374762Y-132194819D01*
X271374762Y-132194819D02*
X271279524Y-132242438D01*
X271279524Y-132242438D02*
X271231905Y-132290057D01*
X271231905Y-132290057D02*
X271184286Y-132385295D01*
X271184286Y-132385295D02*
X271184286Y-132623390D01*
X271184286Y-132623390D02*
X271231905Y-132718628D01*
X271231905Y-132718628D02*
X271279524Y-132766247D01*
X271279524Y-132766247D02*
X271374762Y-132813866D01*
X271374762Y-132813866D02*
X271565238Y-132813866D01*
X271565238Y-132813866D02*
X271660476Y-132766247D01*
X271660476Y-132766247D02*
X271708095Y-132718628D01*
X271708095Y-132718628D02*
X271755714Y-132623390D01*
X260696667Y-111874819D02*
X261030000Y-112874819D01*
X261030000Y-112874819D02*
X261363333Y-111874819D01*
X262268095Y-112779580D02*
X262220476Y-112827200D01*
X262220476Y-112827200D02*
X262077619Y-112874819D01*
X262077619Y-112874819D02*
X261982381Y-112874819D01*
X261982381Y-112874819D02*
X261839524Y-112827200D01*
X261839524Y-112827200D02*
X261744286Y-112731961D01*
X261744286Y-112731961D02*
X261696667Y-112636723D01*
X261696667Y-112636723D02*
X261649048Y-112446247D01*
X261649048Y-112446247D02*
X261649048Y-112303390D01*
X261649048Y-112303390D02*
X261696667Y-112112914D01*
X261696667Y-112112914D02*
X261744286Y-112017676D01*
X261744286Y-112017676D02*
X261839524Y-111922438D01*
X261839524Y-111922438D02*
X261982381Y-111874819D01*
X261982381Y-111874819D02*
X262077619Y-111874819D01*
X262077619Y-111874819D02*
X262220476Y-111922438D01*
X262220476Y-111922438D02*
X262268095Y-111970057D01*
X263268095Y-112779580D02*
X263220476Y-112827200D01*
X263220476Y-112827200D02*
X263077619Y-112874819D01*
X263077619Y-112874819D02*
X262982381Y-112874819D01*
X262982381Y-112874819D02*
X262839524Y-112827200D01*
X262839524Y-112827200D02*
X262744286Y-112731961D01*
X262744286Y-112731961D02*
X262696667Y-112636723D01*
X262696667Y-112636723D02*
X262649048Y-112446247D01*
X262649048Y-112446247D02*
X262649048Y-112303390D01*
X262649048Y-112303390D02*
X262696667Y-112112914D01*
X262696667Y-112112914D02*
X262744286Y-112017676D01*
X262744286Y-112017676D02*
X262839524Y-111922438D01*
X262839524Y-111922438D02*
X262982381Y-111874819D01*
X262982381Y-111874819D02*
X263077619Y-111874819D01*
X263077619Y-111874819D02*
X263220476Y-111922438D01*
X263220476Y-111922438D02*
X263268095Y-111970057D01*
X261339523Y-105254819D02*
X261006190Y-104778628D01*
X260768095Y-105254819D02*
X260768095Y-104254819D01*
X260768095Y-104254819D02*
X261149047Y-104254819D01*
X261149047Y-104254819D02*
X261244285Y-104302438D01*
X261244285Y-104302438D02*
X261291904Y-104350057D01*
X261291904Y-104350057D02*
X261339523Y-104445295D01*
X261339523Y-104445295D02*
X261339523Y-104588152D01*
X261339523Y-104588152D02*
X261291904Y-104683390D01*
X261291904Y-104683390D02*
X261244285Y-104731009D01*
X261244285Y-104731009D02*
X261149047Y-104778628D01*
X261149047Y-104778628D02*
X260768095Y-104778628D01*
X261720476Y-104969104D02*
X262196666Y-104969104D01*
X261625238Y-105254819D02*
X261958571Y-104254819D01*
X261958571Y-104254819D02*
X262291904Y-105254819D01*
X262530000Y-104254819D02*
X262768095Y-105254819D01*
X262768095Y-105254819D02*
X262958571Y-104540533D01*
X262958571Y-104540533D02*
X263149047Y-105254819D01*
X263149047Y-105254819D02*
X263387143Y-104254819D01*
D11*
%TO.C,PWR1*%
X277075000Y-116600000D02*
X277075000Y-116400000D01*
X277075000Y-119600000D02*
X277075000Y-117900000D01*
X278125000Y-121450000D02*
X278915000Y-121450000D01*
X278915000Y-114550000D02*
X278125000Y-114550000D01*
X279925000Y-120850000D02*
X279925000Y-115150000D01*
%TO.C,DISP1*%
X260090000Y-135870000D02*
X260090000Y-138530000D01*
X272910000Y-135870000D02*
X260090000Y-135870000D01*
X272910000Y-135870000D02*
X272910000Y-138530000D01*
X272910000Y-138530000D02*
X260090000Y-138530000D01*
D12*
%TO.C,RST1*%
X277250000Y-105900000D02*
X277250000Y-105650000D01*
X277250000Y-110100000D02*
X277250000Y-110350000D01*
X277500000Y-105650000D02*
X277250000Y-105650000D01*
X277500000Y-110350000D02*
X277250000Y-110350000D01*
X280500000Y-105650000D02*
X280750000Y-105650000D01*
X280500000Y-110350000D02*
X280750000Y-110350000D01*
X280750000Y-105900000D02*
X280750000Y-105650000D01*
X280750000Y-110100000D02*
X280750000Y-110350000D01*
D11*
%TO.C,MCU1*%
X257550000Y-103470000D02*
X257550000Y-134070000D01*
X257550000Y-103470000D02*
X260210000Y-103470000D01*
X257550000Y-134070000D02*
X260210000Y-134070000D01*
X260210000Y-103470000D02*
X260210000Y-134070000D01*
X272790000Y-103470000D02*
X272790000Y-134070000D01*
X272790000Y-103470000D02*
X275450000Y-103470000D01*
X272790000Y-106070000D02*
X275450000Y-106070000D01*
X272790000Y-134070000D02*
X275450000Y-134070000D01*
X275450000Y-103470000D02*
X275450000Y-134070000D01*
%TD*%
M02*
