%TF.GenerationSoftware,KiCad,Pcbnew,8.0.6*%
%TF.CreationDate,2024-12-22T12:47:55+01:00*%
%TF.ProjectId,left_finished,6c656674-5f66-4696-9e69-736865642e6b,0.1*%
%TF.SameCoordinates,Original*%
%TF.FileFunction,Soldermask,Top*%
%TF.FilePolarity,Negative*%
%FSLAX46Y46*%
G04 Gerber Fmt 4.6, Leading zero omitted, Abs format (unit mm)*
G04 Created by KiCad (PCBNEW 8.0.6) date 2024-12-22 12:47:55*
%MOMM*%
%LPD*%
G01*
G04 APERTURE LIST*
G04 Aperture macros list*
%AMRoundRect*
0 Rectangle with rounded corners*
0 $1 Rounding radius*
0 $2 $3 $4 $5 $6 $7 $8 $9 X,Y pos of 4 corners*
0 Add a 4 corners polygon primitive as box body*
4,1,4,$2,$3,$4,$5,$6,$7,$8,$9,$2,$3,0*
0 Add four circle primitives for the rounded corners*
1,1,$1+$1,$2,$3*
1,1,$1+$1,$4,$5*
1,1,$1+$1,$6,$7*
1,1,$1+$1,$8,$9*
0 Add four rect primitives between the rounded corners*
20,1,$1+$1,$2,$3,$4,$5,0*
20,1,$1+$1,$4,$5,$6,$7,0*
20,1,$1+$1,$6,$7,$8,$9,0*
20,1,$1+$1,$8,$9,$2,$3,0*%
G04 Aperture macros list end*
%ADD10RoundRect,0.050000X0.400000X-0.500000X0.400000X0.500000X-0.400000X0.500000X-0.400000X-0.500000X0*%
%ADD11C,1.000000*%
%ADD12RoundRect,0.050000X0.750000X-0.350000X0.750000X0.350000X-0.750000X0.350000X-0.750000X-0.350000X0*%
%ADD13O,1.800000X1.800000*%
%ADD14C,1.800000*%
%ADD15C,2.300000*%
%ADD16RoundRect,0.050000X0.500000X-0.775000X0.500000X0.775000X-0.500000X0.775000X-0.500000X-0.775000X0*%
%ADD17C,2.000000*%
%ADD18C,3.100000*%
%ADD19C,4.200000*%
%ADD20RoundRect,0.260000X0.390000X0.665000X-0.390000X0.665000X-0.390000X-0.665000X0.390000X-0.665000X0*%
%ADD21O,1.300000X1.850000*%
G04 APERTURE END LIST*
D10*
%TO.C,PWR1*%
X277415000Y-114350000D03*
X277415000Y-121650000D03*
D11*
X278525000Y-116500000D03*
X278525000Y-119500000D03*
D10*
X279625000Y-114350000D03*
X279625000Y-121650000D03*
D12*
X276765000Y-120250000D03*
X276765000Y-117250000D03*
X276765000Y-115750000D03*
%TD*%
D13*
%TO.C,DISP1*%
X261420000Y-137200000D03*
X263960000Y-137200000D03*
X266500000Y-137200000D03*
X269040000Y-137200000D03*
D14*
X271580000Y-137200000D03*
%TD*%
D15*
%TO.C,MH4*%
X234000000Y-116500000D03*
%TD*%
%TO.C,MH3*%
X157000000Y-121500000D03*
%TD*%
D16*
%TO.C,RST1*%
X279850000Y-110625000D03*
X278150000Y-110625000D03*
X279850000Y-105375000D03*
X278150000Y-105375000D03*
%TD*%
D15*
%TO.C,MH1*%
X248074234Y-187864648D03*
%TD*%
%TO.C,MH5*%
X205000000Y-130500000D03*
%TD*%
D14*
%TO.C,MCU1*%
X274120000Y-104800000D03*
X274120000Y-107340000D03*
X274120000Y-109880000D03*
X274120000Y-112420000D03*
X274120000Y-114960000D03*
X274120000Y-117500000D03*
X274120000Y-120040000D03*
X274120000Y-122580000D03*
X274120000Y-125120000D03*
X274120000Y-127660000D03*
X274120000Y-130200000D03*
X274120000Y-132740000D03*
X258880000Y-132740000D03*
X258880000Y-130200000D03*
X258880000Y-127660000D03*
X258880000Y-125120000D03*
X258880000Y-122580000D03*
X258880000Y-120040000D03*
X258880000Y-117500000D03*
X258880000Y-114960000D03*
X258880000Y-112420000D03*
X258880000Y-109880000D03*
X258880000Y-107340000D03*
X258880000Y-104800000D03*
%TD*%
D15*
%TO.C,MH2*%
X157000000Y-161500000D03*
%TD*%
D17*
%TO.C,S22*%
X237920000Y-146000000D03*
D18*
X239190000Y-143460000D03*
D19*
X243000000Y-146000000D03*
D18*
X245540000Y-140920000D03*
D17*
X248080000Y-146000000D03*
%TD*%
D20*
%TO.C,JST1*%
X234950000Y-138400000D03*
D21*
X236950000Y-138400000D03*
%TD*%
D17*
%TO.C,S20*%
X218920000Y-106000000D03*
D18*
X220190000Y-103460000D03*
D19*
X224000000Y-106000000D03*
D18*
X226540000Y-100920000D03*
D17*
X229080000Y-106000000D03*
%TD*%
%TO.C,S11*%
X180920000Y-125000000D03*
D18*
X182190000Y-122460000D03*
D19*
X186000000Y-125000000D03*
D18*
X188540000Y-119920000D03*
D17*
X191080000Y-125000000D03*
%TD*%
%TO.C,S13*%
X199920000Y-158000000D03*
D18*
X201190000Y-155460000D03*
D19*
X205000000Y-158000000D03*
D18*
X207540000Y-152920000D03*
D17*
X210080000Y-158000000D03*
%TD*%
%TO.C,S10*%
X180920000Y-144000000D03*
D18*
X182190000Y-141460000D03*
D19*
X186000000Y-144000000D03*
D18*
X188540000Y-138920000D03*
D17*
X191080000Y-144000000D03*
%TD*%
%TO.C,S2*%
X142920000Y-151000000D03*
D18*
X144190000Y-148460000D03*
D19*
X148000000Y-151000000D03*
D18*
X150540000Y-145920000D03*
D17*
X153080000Y-151000000D03*
%TD*%
%TO.C,S25*%
X190420000Y-182000000D03*
D18*
X191690000Y-179460000D03*
D19*
X195500000Y-182000000D03*
D18*
X198040000Y-176920000D03*
D17*
X200580000Y-182000000D03*
%TD*%
%TO.C,S9*%
X180920000Y-163000000D03*
D18*
X182190000Y-160460000D03*
D19*
X186000000Y-163000000D03*
D18*
X188540000Y-157920000D03*
D17*
X191080000Y-163000000D03*
%TD*%
%TO.C,S5*%
X161920000Y-169000000D03*
D18*
X163190000Y-166460000D03*
D19*
X167000000Y-169000000D03*
D18*
X169540000Y-163920000D03*
D17*
X172080000Y-169000000D03*
%TD*%
%TO.C,S27*%
X228420000Y-184000000D03*
D18*
X229690000Y-181460000D03*
D19*
X233500000Y-184000000D03*
D18*
X236040000Y-178920000D03*
D17*
X238580000Y-184000000D03*
%TD*%
%TO.C,S23*%
X237920000Y-127000000D03*
D18*
X239190000Y-124460000D03*
D19*
X243000000Y-127000000D03*
D18*
X245540000Y-121920000D03*
D17*
X248080000Y-127000000D03*
%TD*%
%TO.C,S18*%
X218920000Y-144000000D03*
D18*
X220190000Y-141460000D03*
D19*
X224000000Y-144000000D03*
D18*
X226540000Y-138920000D03*
D17*
X229080000Y-144000000D03*
%TD*%
%TO.C,S6*%
X161920000Y-150000000D03*
D18*
X163190000Y-147460000D03*
D19*
X167000000Y-150000000D03*
D18*
X169540000Y-144920000D03*
D17*
X172080000Y-150000000D03*
%TD*%
%TO.C,S14*%
X199920000Y-139000000D03*
D18*
X201190000Y-136460000D03*
D19*
X205000000Y-139000000D03*
D18*
X207540000Y-133920000D03*
D17*
X210080000Y-139000000D03*
%TD*%
%TO.C,S16*%
X199920000Y-101000000D03*
D18*
X201190000Y-98460000D03*
D19*
X205000000Y-101000000D03*
D18*
X207540000Y-95920000D03*
D17*
X210080000Y-101000000D03*
%TD*%
%TO.C,S24*%
X237920000Y-108000000D03*
D18*
X239190000Y-105460000D03*
D19*
X243000000Y-108000000D03*
D18*
X245540000Y-102920000D03*
D17*
X248080000Y-108000000D03*
%TD*%
%TO.C,S1*%
X142920000Y-170000000D03*
D18*
X144190000Y-167460000D03*
D19*
X148000000Y-170000000D03*
D18*
X150540000Y-164920000D03*
D17*
X153080000Y-170000000D03*
%TD*%
%TO.C,S17*%
X218920000Y-163000000D03*
D18*
X220190000Y-160460000D03*
D19*
X224000000Y-163000000D03*
D18*
X226540000Y-157920000D03*
D17*
X229080000Y-163000000D03*
%TD*%
%TO.C,S21*%
X237920000Y-165000000D03*
D18*
X239190000Y-162460000D03*
D19*
X243000000Y-165000000D03*
D18*
X245540000Y-159920000D03*
D17*
X248080000Y-165000000D03*
%TD*%
%TO.C,S3*%
X142920000Y-132000000D03*
D18*
X144190000Y-129460000D03*
D19*
X148000000Y-132000000D03*
D18*
X150540000Y-126920000D03*
D17*
X153080000Y-132000000D03*
%TD*%
%TO.C,S19*%
X218920000Y-125000000D03*
D18*
X220190000Y-122460000D03*
D19*
X224000000Y-125000000D03*
D18*
X226540000Y-119920000D03*
D17*
X229080000Y-125000000D03*
%TD*%
%TO.C,S4*%
X142920000Y-113000000D03*
D18*
X144190000Y-110460000D03*
D19*
X148000000Y-113000000D03*
D18*
X150540000Y-107920000D03*
D17*
X153080000Y-113000000D03*
%TD*%
%TO.C,S29*%
X256920000Y-155500000D03*
D18*
X258190000Y-152960000D03*
D19*
X262000000Y-155500000D03*
D18*
X264540000Y-150420000D03*
D17*
X267080000Y-155500000D03*
%TD*%
%TO.C,S28*%
X257433778Y-187740811D03*
D18*
X255629928Y-185547497D03*
D19*
X259500000Y-183100000D03*
D18*
X255892300Y-178713372D03*
D17*
X261566222Y-178459189D03*
%TD*%
%TO.C,S15*%
X199920000Y-120000000D03*
D18*
X201190000Y-117460000D03*
D19*
X205000000Y-120000000D03*
D18*
X207540000Y-114920000D03*
D17*
X210080000Y-120000000D03*
%TD*%
%TO.C,S26*%
X209420000Y-182000000D03*
D18*
X210690000Y-179460000D03*
D19*
X214500000Y-182000000D03*
D18*
X217040000Y-176920000D03*
D17*
X219580000Y-182000000D03*
%TD*%
%TO.C,S7*%
X161920000Y-131000000D03*
D18*
X163190000Y-128460000D03*
D19*
X167000000Y-131000000D03*
D18*
X169540000Y-125920000D03*
D17*
X172080000Y-131000000D03*
%TD*%
%TO.C,S8*%
X161920000Y-112000000D03*
D18*
X163190000Y-109460000D03*
D19*
X167000000Y-112000000D03*
D18*
X169540000Y-106920000D03*
D17*
X172080000Y-112000000D03*
%TD*%
%TO.C,S12*%
X180920000Y-106000000D03*
D18*
X182190000Y-103460000D03*
D19*
X186000000Y-106000000D03*
D18*
X188540000Y-100920000D03*
D17*
X191080000Y-106000000D03*
%TD*%
M02*
