%TF.GenerationSoftware,KiCad,Pcbnew,8.0.5*%
%TF.CreationDate,2024-11-30T23:52:13+01:00*%
%TF.ProjectId,left_finished,6c656674-5f66-4696-9e69-736865642e6b,v1.0.0*%
%TF.SameCoordinates,Original*%
%TF.FileFunction,Paste,Top*%
%TF.FilePolarity,Positive*%
%FSLAX46Y46*%
G04 Gerber Fmt 4.6, Leading zero omitted, Abs format (unit mm)*
G04 Created by KiCad (PCBNEW 8.0.5) date 2024-11-30 23:52:13*
%MOMM*%
%LPD*%
G01*
G04 APERTURE LIST*
G04 Aperture macros list*
%AMRotRect*
0 Rectangle, with rotation*
0 The origin of the aperture is its center*
0 $1 length*
0 $2 width*
0 $3 Rotation angle, in degrees counterclockwise*
0 Add horizontal line*
21,1,$1,$2,0,0,$3*%
G04 Aperture macros list end*
%ADD10R,0.900000X1.200000*%
%ADD11RotRect,0.900000X1.200000X66.000000*%
%ADD12R,0.800000X1.000000*%
%ADD13R,1.500000X0.700000*%
%ADD14R,1.000000X1.550000*%
G04 APERTURE END LIST*
D10*
%TO.C,D6*%
X165350000Y-155000000D03*
X168650000Y-155000000D03*
%TD*%
%TO.C,D13*%
X203350000Y-163000000D03*
X206650000Y-163000000D03*
%TD*%
%TO.C,D16*%
X203350000Y-106000000D03*
X206650000Y-106000000D03*
%TD*%
%TO.C,D23*%
X241350000Y-132000000D03*
X244650000Y-132000000D03*
%TD*%
%TO.C,D2*%
X146350000Y-156000000D03*
X149650000Y-156000000D03*
%TD*%
%TO.C,D29*%
X260350000Y-160500000D03*
X263650000Y-160500000D03*
%TD*%
%TO.C,D14*%
X203350000Y-144000000D03*
X206650000Y-144000000D03*
%TD*%
%TO.C,D8*%
X165350000Y-117000000D03*
X168650000Y-117000000D03*
%TD*%
%TO.C,D11*%
X184350000Y-130000000D03*
X187650000Y-130000000D03*
%TD*%
%TO.C,D3*%
X146350000Y-137000000D03*
X149650000Y-137000000D03*
%TD*%
%TO.C,D10*%
X184350000Y-149000000D03*
X187650000Y-149000000D03*
%TD*%
%TO.C,D18*%
X222350000Y-149000000D03*
X225650000Y-149000000D03*
%TD*%
D11*
%TO.C,D28*%
X263396612Y-186641033D03*
X264738842Y-183626333D03*
%TD*%
D10*
%TO.C,D17*%
X222350000Y-168000000D03*
X225650000Y-168000000D03*
%TD*%
%TO.C,D27*%
X231850000Y-189000000D03*
X235150000Y-189000000D03*
%TD*%
%TO.C,D25*%
X193850000Y-187000000D03*
X197150000Y-187000000D03*
%TD*%
%TO.C,D26*%
X212850000Y-187000000D03*
X216150000Y-187000000D03*
%TD*%
%TO.C,D9*%
X184350000Y-168000000D03*
X187650000Y-168000000D03*
%TD*%
%TO.C,D7*%
X165350000Y-136000000D03*
X168650000Y-136000000D03*
%TD*%
%TO.C,D1*%
X146350000Y-175000000D03*
X149650000Y-175000000D03*
%TD*%
%TO.C,D19*%
X222350000Y-130000000D03*
X225650000Y-130000000D03*
%TD*%
%TO.C,D21*%
X241350000Y-170000000D03*
X244650000Y-170000000D03*
%TD*%
%TO.C,D24*%
X241350000Y-113000000D03*
X244650000Y-113000000D03*
%TD*%
%TO.C,D15*%
X203350000Y-125000000D03*
X206650000Y-125000000D03*
%TD*%
%TO.C,D4*%
X146350000Y-118000000D03*
X149650000Y-118000000D03*
%TD*%
%TO.C,D12*%
X184350000Y-111000000D03*
X187650000Y-111000000D03*
%TD*%
%TO.C,D20*%
X222350000Y-111000000D03*
X225650000Y-111000000D03*
%TD*%
%TO.C,D22*%
X241350000Y-151000000D03*
X244650000Y-151000000D03*
%TD*%
%TO.C,D5*%
X165350000Y-174000000D03*
X168650000Y-174000000D03*
%TD*%
D12*
%TO.C,PWR1*%
X277915000Y-114350000D03*
X277915000Y-121650000D03*
X280125000Y-114350000D03*
X280125000Y-121650000D03*
D13*
X277265000Y-120250000D03*
X277265000Y-117250000D03*
X277265000Y-115750000D03*
%TD*%
D14*
%TO.C,RST1*%
X279850000Y-110625000D03*
X278150000Y-110625000D03*
X279850000Y-105375000D03*
X278150000Y-105375000D03*
%TD*%
M02*
