0
SECTION
2
HEADER
9
$INSUNITS
70
4
0
ENDSEC
0
SECTION
2
TABLES
0
TABLE
2
LTYPE
0
LTYPE
72
65
70
64
2
CONTINUOUS
3
______
73
0
40
0
0
ENDTAB
0
TABLE
2
LAYER
0
ENDTAB
0
ENDSEC
0
SECTION
2
ENTITIES
0
LINE
8
0
10
99.5
20
-139.5
11
99.5
21
-105.5
0
LINE
8
0
10
101.5
20
-103.5
11
157.5
21
-103.5
0
LINE
8
0
10
157.5
20
-103.5
11
157.5
21
-102.5
0
LINE
8
0
10
157.5
20
-102.5
11
174.5
21
-102.5
0
LINE
8
0
10
176.5
20
-100.5
11
176.5
21
-98.5
0
LINE
8
0
10
178.5
20
-96.5
11
193.5
21
-96.5
0
LINE
8
0
10
195.5
20
-94.5
11
195.5
21
-93.5
0
LINE
8
0
10
197.5
20
-91.5
11
212.5
21
-91.5
0
LINE
8
0
10
214.5
20
-93.5
11
214.5
21
-94.5
0
LINE
8
0
10
216.5
20
-96.5
11
233.5
21
-96.5
0
LINE
8
0
10
233.5
20
-96.5
11
233.5
21
-98.5
0
LINE
8
0
10
233.5
20
-98.5
11
279
21
-98.5
0
LINE
8
0
10
281
20
-100.5
11
281
21
-155.1320329
0
LINE
8
0
10
280.8690333
20
-155.8438717
11
273.9942531
21
-173.8945808
0
LINE
8
0
10
273.9523108
20
-173.9962152
11
263.196158
21
-198.1549299
0
LINE
8
0
10
260.5555939
20
-199.1685477
11
245.413616
21
-192.4269048
0
LINE
8
0
10
244.6002792
20
-192.2539957
11
187.9998636
21
-192.2501364
0
LINE
8
0
10
186
20
-190.2501364
11
186
21
-181.5
0
LINE
8
0
10
184
20
-179.5
11
139.5
21
-179.5
0
LINE
8
0
10
137.5
20
-177.5
11
137.5
21
-162.5
0
LINE
8
0
10
135.5
20
-160.5
11
120.5
21
-160.5
0
LINE
8
0
10
118.5
20
-158.5
11
118.5
21
-143.5
0
LINE
8
0
10
116.5
20
-141.5
11
101.5
21
-141.5
0
ARC
8
0
10
101.5
20
-105.5
40
2
50
90
51
180
0
ARC
8
0
10
174.5
20
-100.5
40
2
50
270
51
0
0
ARC
8
0
10
178.5
20
-98.5
40
2
50
90
51
180
0
ARC
8
0
10
193.5
20
-94.5
40
2
50
270
51
0
0
ARC
8
0
10
197.5
20
-93.5
40
2
50
90
51
180
0
ARC
8
0
10
212.5
20
-93.5
40
2
50
0
51
90
0
ARC
8
0
10
216.5
20
-94.5
40
2
50
180
51
270
0
ARC
8
0
10
279
20
-100.5
40
2
50
0
51
90
0
ARC
8
0
10
279
20
-155.1320329
40
2
50
339.1501981
51
0
0
ARC
8
0
10
272.1252198
20
-173.182742
40
2
50
336.0000032
51
339.1501981
0
ARC
8
0
10
261.3690671
20
-197.3414567
40
2
50
246.0000032
51
336.0000032
0
ARC
8
0
10
244.6001428
20
-194.2539957
40
2
50
66.0000032
51
89.9960924
0
ARC
8
0
10
188
20
-190.2501364
40
2
50
180
51
269.9960924
0
ARC
8
0
10
184
20
-181.5
40
2
50
0
51
90
0
ARC
8
0
10
139.5
20
-177.5
40
2
50
180
51
270
0
ARC
8
0
10
135.5
20
-162.5
40
2
50
0
51
90
0
ARC
8
0
10
120.5
20
-158.5
40
2
50
180
51
270
0
ARC
8
0
10
116.5
20
-143.5
40
2
50
0
51
90
0
ARC
8
0
10
101.5
20
-139.5
40
2
50
180
51
270
0
ENDSEC
0
EOF