<svg width="142.5mm" height="107.841mm" viewBox="0 0 142.5 107.841" xmlns="http://www.w3.org/2000/svg"><g id="svgGroup" stroke-linecap="round" fill-rule="evenodd" font-size="9pt" stroke="#000" stroke-width="0.25mm" fill="none" style="stroke:#000;stroke-width:0.25mm;fill:none"><path d="M 0 86 L 0 14 A 2 2 0 0 1 2 12 L 19 12 L 19 11 L 36 11 A 2 2 0 0 0 38 9 L 38 7 A 2 2 0 0 1 40 5 L 55 5 A 2 2 0 0 0 57 3 L 57 2 A 2 2 0 0 1 59 0 L 74 0 A 2 2 0 0 1 76 2 L 76 3 A 2 2 0 0 0 78 5 L 95 5 L 95 7 L 140.5 7 A 2 2 0 0 1 142.5 9 L 142.5 63.632 A 2 2 0 0 1 142.369 64.344 L 135.494 82.395 A 2 2 0 0 1 135.452 82.496 L 124.696 106.655 A 2 2 0 0 1 122.056 107.669 L 106.914 100.927 A 2 2 0 0 0 106.1 100.754 L 49.5 100.75 A 2 2 0 0 1 47.5 98.75 L 47.5 90 A 2 2 0 0 0 45.5 88 L 2 88 A 2 2 0 0 1 0 86 Z" vector-effect="non-scaling-stroke"/></g></svg>