<svg width="181.5mm" height="107.841mm" viewBox="0 0 181.5 107.841" xmlns="http://www.w3.org/2000/svg"><g id="svgGroup" stroke-linecap="round" fill-rule="evenodd" font-size="9pt" stroke="#000" stroke-width="0.25mm" fill="none" style="stroke:#000;stroke-width:0.25mm;fill:none"><path d="M 181.5 48 L 181.5 14 A 2 2 0 0 0 179.5 12 L 123.5 12 L 123.5 11 L 107.5 11 A 2 2 0 0 1 105.5 9 L 105.5 7 A 2 2 0 0 0 103.5 5 L 88.5 5 A 2 2 0 0 1 86.5 3 L 86.5 2 A 2 2 0 0 0 84.5 0 L 68.5 0 A 2 2 0 0 0 66.5 2 L 66.5 3 A 2 2 0 0 1 64.5 5 L 47.5 5 L 47.5 7 L 2 7 A 2 2 0 0 0 0 9 L 0 63.632 A 2 2 0 0 0 0.131 64.344 L 7.006 82.395 A 2 2 0 0 0 7.048 82.496 L 17.804 106.655 A 2 2 0 0 0 20.444 107.669 L 35.586 100.927 A 2 2 0 0 1 36.4 100.754 L 94 100.75 A 2 2 0 0 0 96 98.75 L 96 90 A 2 2 0 0 1 98 88 L 141.5 88 A 2 2 0 0 0 143.5 86 L 143.5 71 A 2 2 0 0 1 145.5 69 L 160.5 69 A 2 2 0 0 0 162.5 67 L 162.5 52 A 2 2 0 0 1 164.5 50 L 179.5 50 A 2 2 0 0 0 181.5 48 Z" vector-effect="non-scaling-stroke"/></g></svg>