0
SECTION
2
HEADER
9
$INSUNITS
70
4
0
ENDSEC
0
SECTION
2
TABLES
0
TABLE
2
LTYPE
0
LTYPE
72
65
70
64
2
CONTINUOUS
3
______
73
0
40
0
0
ENDTAB
0
TABLE
2
LAYER
0
ENDTAB
0
ENDSEC
0
SECTION
2
ENTITIES
0
LINE
8
0
10
310.5
20
-139.5
11
310.5
21
-105.5
0
LINE
8
0
10
308.5
20
-103.5
11
252.5
21
-103.5
0
LINE
8
0
10
252.5
20
-103.5
11
252.5
21
-102.5
0
LINE
8
0
10
252.5
20
-102.5
11
236.5
21
-102.5
0
LINE
8
0
10
234.5
20
-100.5
11
234.5
21
-98.5
0
LINE
8
0
10
232.5
20
-96.5
11
217.5
21
-96.5
0
LINE
8
0
10
215.5
20
-94.5
11
215.5
21
-93.5
0
LINE
8
0
10
213.5
20
-91.5
11
197.5
21
-91.5
0
LINE
8
0
10
195.5
20
-93.5
11
195.5
21
-94.5
0
LINE
8
0
10
193.5
20
-96.5
11
176.5
21
-96.5
0
LINE
8
0
10
176.5
20
-96.5
11
176.5
21
-98.5
0
LINE
8
0
10
176.5
20
-98.5
11
131
21
-98.5
0
LINE
8
0
10
129
20
-100.5
11
129
21
-155.1320329
0
LINE
8
0
10
129.1309667
20
-155.8438717
11
136.0057469
21
-173.8945808
0
LINE
8
0
10
136.0476892
20
-173.9962152
11
146.803842
21
-198.1549299
0
LINE
8
0
10
149.4444061
20
-199.1685477
11
164.5863829
21
-192.4269052
0
LINE
8
0
10
165.3997219
20
-192.2539962
11
223.0001342
21
-192.2501341
0
LINE
8
0
10
225
20
-190.2501341
11
225
21
-181.5
0
LINE
8
0
10
227
20
-179.5
11
270.5
21
-179.5
0
LINE
8
0
10
272.5
20
-177.5
11
272.5
21
-162.5
0
LINE
8
0
10
274.5
20
-160.5
11
289.5
21
-160.5
0
LINE
8
0
10
291.5
20
-158.5
11
291.5
21
-143.5
0
LINE
8
0
10
293.5
20
-141.5
11
308.5
21
-141.5
0
ARC
8
0
10
308.5
20
-105.5
40
2
50
0
51
90
0
ARC
8
0
10
236.5
20
-100.5
40
2
50
180
51
270
0
ARC
8
0
10
232.5
20
-98.5
40
2
50
0
51
90
0
ARC
8
0
10
217.5
20
-94.5
40
2
50
180
51
270
0
ARC
8
0
10
213.5
20
-93.5
40
2
50
0
51
90
0
ARC
8
0
10
197.5
20
-93.5
40
2
50
90
51
180
0
ARC
8
0
10
193.5
20
-94.5
40
2
50
270
51
0
0
ARC
8
0
10
131
20
-100.5
40
2
50
90
51
180
0
ARC
8
0
10
131
20
-155.1320329
40
2
50
180
51
200.8498019
0
ARC
8
0
10
137.8747802
20
-173.182742
40
2
50
200.8498019
51
203.9999968
0
ARC
8
0
10
148.6309329
20
-197.3414567
40
2
50
203.9999968
51
293.9999968
0
ARC
8
0
10
165.3998561
20
-194.2539962
40
2
50
90.0038445
51
113.9999968
0
ARC
8
0
10
223
20
-190.2501341
40
2
50
270.0038445
51
0
0
ARC
8
0
10
227
20
-181.5
40
2
50
90
51
180
0
ARC
8
0
10
270.5
20
-177.5
40
2
50
270
51
0
0
ARC
8
0
10
274.5
20
-162.5
40
2
50
90
51
180
0
ARC
8
0
10
289.5
20
-158.5
40
2
50
270
51
0
0
ARC
8
0
10
293.5
20
-143.5
40
2
50
90
51
180
0
ARC
8
0
10
308.5
20
-139.5
40
2
50
270
51
0
0
ENDSEC
0
EOF